<svg width="390" height="395" viewBox="0 0 390 395" fill="none" xmlns="http://www.w3.org/2000/svg">
<g clip-path="url(#clip0_193_2303)">
<path d="M0 24.4776C0 11.2228 10.7452 0.477615 24 0.477615H366C379.255 0.477615 390 11.2228 390 24.4776V395H0V24.4776Z" fill="white"/>
<path d="M47.0135 21.4V19.336H50.8695V31H48.5655V21.4H47.0135ZM55.6744 27.72C55.7597 28.1893 55.9517 28.552 56.2504 28.808C56.5597 29.0533 56.9704 29.176 57.4824 29.176C58.1437 29.176 58.6237 28.904 58.9224 28.36C59.221 27.8053 59.3704 26.8773 59.3704 25.576C59.125 25.9173 58.7784 26.184 58.3304 26.376C57.893 26.568 57.4184 26.664 56.9064 26.664C56.2237 26.664 55.605 26.5253 55.0504 26.248C54.5064 25.96 54.0744 25.5387 53.7544 24.984C53.4344 24.4187 53.2744 23.736 53.2744 22.936C53.2744 21.752 53.6264 20.8133 54.3304 20.12C55.0344 19.416 55.9944 19.064 57.2104 19.064C58.725 19.064 59.7917 19.5493 60.4104 20.52C61.0397 21.4907 61.3544 22.952 61.3544 24.904C61.3544 26.2907 61.2317 27.4267 60.9864 28.312C60.7517 29.1973 60.341 29.8693 59.7544 30.328C59.1784 30.7867 58.389 31.016 57.3864 31.016C56.597 31.016 55.925 30.8667 55.3704 30.568C54.8157 30.2587 54.389 29.8587 54.0904 29.368C53.8024 28.8667 53.637 28.3173 53.5944 27.72H55.6744ZM57.3704 24.84C57.925 24.84 58.3624 24.6693 58.6824 24.328C59.0024 23.9867 59.1624 23.528 59.1624 22.952C59.1624 22.3227 58.9917 21.8373 58.6504 21.496C58.3197 21.144 57.8664 20.968 57.2904 20.968C56.7144 20.968 56.2557 21.1493 55.9144 21.512C55.5837 21.864 55.4184 22.3333 55.4184 22.92C55.4184 23.4853 55.5784 23.9493 55.8984 24.312C56.229 24.664 56.7197 24.84 57.3704 24.84ZM64.346 31.112C63.9407 31.112 63.6047 30.9893 63.338 30.744C63.082 30.488 62.954 30.1733 62.954 29.8C62.954 29.4267 63.082 29.1173 63.338 28.872C63.6047 28.616 63.9407 28.488 64.346 28.488C64.7407 28.488 65.066 28.616 65.322 28.872C65.578 29.1173 65.706 29.4267 65.706 29.8C65.706 30.1733 65.578 30.488 65.322 30.744C65.066 30.9893 64.7407 31.112 64.346 31.112ZM64.346 24.488C63.9407 24.488 63.6047 24.3653 63.338 24.12C63.082 23.864 62.954 23.5493 62.954 23.176C62.954 22.8027 63.082 22.4933 63.338 22.248C63.6047 21.992 63.9407 21.864 64.346 21.864C64.7407 21.864 65.066 21.992 65.322 22.248C65.578 22.4933 65.706 22.8027 65.706 23.176C65.706 23.5493 65.578 23.864 65.322 24.12C65.066 24.3653 64.7407 24.488 64.346 24.488ZM67.3011 25.016C67.3011 23.1707 67.6318 21.7253 68.2931 20.68C68.9651 19.6347 70.0745 19.112 71.6211 19.112C73.1678 19.112 74.2718 19.6347 74.9331 20.68C75.6051 21.7253 75.9411 23.1707 75.9411 25.016C75.9411 26.872 75.6051 28.328 74.9331 29.384C74.2718 30.44 73.1678 30.968 71.6211 30.968C70.0745 30.968 68.9651 30.44 68.2931 29.384C67.6318 28.328 67.3011 26.872 67.3011 25.016ZM73.7331 25.016C73.7331 24.2267 73.6798 23.5653 73.5731 23.032C73.4771 22.488 73.2745 22.0453 72.9651 21.704C72.6665 21.3627 72.2185 21.192 71.6211 21.192C71.0238 21.192 70.5705 21.3627 70.2611 21.704C69.9625 22.0453 69.7598 22.488 69.6531 23.032C69.5571 23.5653 69.5091 24.2267 69.5091 25.016C69.5091 25.8267 69.5571 26.5093 69.6531 27.064C69.7491 27.608 69.9518 28.0507 70.2611 28.392C70.5705 28.7227 71.0238 28.888 71.6211 28.888C72.2185 28.888 72.6718 28.7227 72.9811 28.392C73.2905 28.0507 73.4931 27.608 73.5891 27.064C73.6851 26.5093 73.7331 25.8267 73.7331 25.016ZM85.0689 21.032L80.8129 31H78.5409L82.8289 21.288H77.3569V19.368H85.0689V21.032Z" fill="#334155"/>
<rect x="290" y="22.8049" width="2.92683" height="3.5122" rx="0.878049" fill="#334155"/>
<rect x="290" y="28.0732" width="2.92683" height="2.92683" rx="0.878049" fill="#334155"/>
<rect x="294.683" y="28.0732" width="2.92683" height="2.92683" rx="0.878049" fill="#334155"/>
<rect x="299.366" y="28.0732" width="2.92683" height="2.92683" rx="0.878049" fill="#334155"/>
<rect x="304.049" y="28.0732" width="2.92683" height="2.92683" rx="0.878049" fill="#334155"/>
<rect x="294.683" y="21.6341" width="2.92683" height="4.68293" rx="0.878049" fill="#334155"/>
<rect x="299.366" y="20.4634" width="2.92683" height="5.85366" rx="0.878049" fill="#334155"/>
<rect x="304.049" y="19" width="2.92683" height="7.31707" rx="0.878049" fill="#334155"/>
<path d="M314.678 23.7787L314.058 23.158C313.799 22.8994 313.839 22.4688 314.144 22.2673C319.56 18.6898 322.684 18.9185 327.622 22.2647C327.922 22.4684 327.96 22.8958 327.703 23.1526L327.078 23.778C326.877 23.9784 326.562 24.0055 326.327 23.8475C322.108 21.0142 319.595 21.0594 315.428 23.8489C315.193 24.0063 314.878 23.9789 314.678 23.7787Z" fill="#334155"/>
<path d="M317.182 26.4614L316.594 25.9326C316.315 25.6811 316.342 25.2338 316.656 25.0275C319.745 22.9983 321.741 22.9309 324.951 25.0279C325.266 25.2336 325.294 25.6815 325.014 25.9332L324.432 26.4569C324.235 26.6347 323.942 26.6551 323.715 26.5162C321.497 25.156 320.111 25.1968 317.891 26.5246C317.665 26.6595 317.377 26.6371 317.182 26.4614Z" fill="#334155"/>
<path d="M320.464 29.8568L319.316 28.7095C319.061 28.4541 319.094 28.0264 319.405 27.8423C320.533 27.1738 321.316 27.2144 322.354 27.84C322.663 28.0262 322.695 28.4532 322.44 28.7082L321.292 29.8568C321.063 30.0854 320.692 30.0854 320.464 29.8568Z" fill="#334155"/>
<rect x="334.78" y="19" width="21.9512" height="12" rx="3.21951" fill="#334155"/>
<rect x="334.78" y="19" width="18.1463" height="12" rx="3.21951" fill="#334155"/>
<path d="M357.61 26.7561V23.3902C358.341 23.8293 358.72 24.1782 358.78 25C358.78 25.7317 358.488 26.3171 357.61 26.7561Z" fill="#334155"/>
<path d="M35.716 66.084C34.94 66.084 34.232 65.904 33.592 65.544C32.952 65.176 32.444 64.668 32.068 64.02C31.7 63.364 31.516 62.628 31.516 61.812C31.516 60.996 31.7 60.264 32.068 59.616C32.444 58.96 32.952 58.452 33.592 58.092C34.232 57.724 34.94 57.54 35.716 57.54C36.5 57.54 37.212 57.724 37.852 58.092C38.492 58.452 38.996 58.956 39.364 59.604C39.732 60.252 39.916 60.988 39.916 61.812C39.916 62.636 39.732 63.372 39.364 64.02C38.996 64.668 38.492 65.176 37.852 65.544C37.212 65.904 36.5 66.084 35.716 66.084ZM35.716 65.136C36.3 65.136 36.824 65 37.288 64.728C37.76 64.456 38.128 64.068 38.392 63.564C38.664 63.06 38.8 62.476 38.8 61.812C38.8 61.14 38.664 60.556 38.392 60.06C38.128 59.556 37.764 59.168 37.3 58.896C36.836 58.624 36.308 58.488 35.716 58.488C35.124 58.488 34.596 58.624 34.132 58.896C33.668 59.168 33.3 59.556 33.028 60.06C32.764 60.556 32.632 61.14 32.632 61.812C32.632 62.476 32.764 63.06 33.028 63.564C33.3 64.068 33.668 64.456 34.132 64.728C34.604 65 35.132 65.136 35.716 65.136ZM42.4496 57.12V66H41.3576V57.12H42.4496ZM43.9027 62.688C43.9027 62.016 44.0387 61.428 44.3107 60.924C44.5827 60.412 44.9547 60.016 45.4267 59.736C45.9067 59.456 46.4387 59.316 47.0227 59.316C47.5987 59.316 48.0987 59.44 48.5227 59.688C48.9467 59.936 49.2627 60.248 49.4707 60.624V59.424H50.5747V66H49.4707V64.776C49.2547 65.16 48.9307 65.48 48.4987 65.736C48.0747 65.984 47.5787 66.108 47.0107 66.108C46.4267 66.108 45.8987 65.964 45.4267 65.676C44.9547 65.388 44.5827 64.984 44.3107 64.464C44.0387 63.944 43.9027 63.352 43.9027 62.688ZM49.4707 62.7C49.4707 62.204 49.3707 61.772 49.1707 61.404C48.9707 61.036 48.6987 60.756 48.3547 60.564C48.0187 60.364 47.6467 60.264 47.2387 60.264C46.8307 60.264 46.4587 60.36 46.1227 60.552C45.7867 60.744 45.5187 61.024 45.3187 61.392C45.1187 61.76 45.0187 62.192 45.0187 62.688C45.0187 63.192 45.1187 63.632 45.3187 64.008C45.5187 64.376 45.7867 64.66 46.1227 64.86C46.4587 65.052 46.8307 65.148 47.2387 65.148C47.6467 65.148 48.0187 65.052 48.3547 64.86C48.6987 64.66 48.9707 64.376 49.1707 64.008C49.3707 63.632 49.4707 63.196 49.4707 62.7ZM48.6187 57.564L46.0627 58.932V58.116L48.6187 56.616V57.564ZM53.5481 64.488L52.2041 67.716H51.4721L52.3481 64.488H53.5481Z" fill="#94A3B8"/>
<path d="M43.0899 90H41.0379L34.8639 80.658V90H32.8119V77.472H34.8639L41.0379 86.796V77.472H43.0899V90ZM54.7666 80.082V90H52.7146V88.83C52.3906 89.238 51.9646 89.562 51.4366 89.802C50.9206 90.03 50.3686 90.144 49.7806 90.144C49.0006 90.144 48.2986 89.982 47.6746 89.658C47.0626 89.334 46.5766 88.854 46.2166 88.218C45.8686 87.582 45.6946 86.814 45.6946 85.914V80.082H47.7286V85.608C47.7286 86.496 47.9506 87.18 48.3946 87.66C48.8386 88.128 49.4446 88.362 50.2126 88.362C50.9806 88.362 51.5866 88.128 52.0306 87.66C52.4866 87.18 52.7146 86.496 52.7146 85.608V80.082H54.7666ZM59.526 76.68V90H57.474V76.68H59.526ZM64.2721 76.68V90H62.2201V76.68H64.2721ZM68.0102 78.768C67.6382 78.768 67.3262 78.642 67.0742 78.39C66.8222 78.138 66.6962 77.826 66.6962 77.454C66.6962 77.082 66.8222 76.77 67.0742 76.518C67.3262 76.266 67.6382 76.14 68.0102 76.14C68.3702 76.14 68.6762 76.266 68.9282 76.518C69.1802 76.77 69.3062 77.082 69.3062 77.454C69.3062 77.826 69.1802 78.138 68.9282 78.39C68.6762 78.642 68.3702 78.768 68.0102 78.768ZM69.0182 80.082V90H66.9662V80.082H69.0182ZM74.1063 81.756V87.246C74.1063 87.618 74.1903 87.888 74.3583 88.056C74.5383 88.212 74.8383 88.29 75.2583 88.29H76.5183V90H74.8983C73.9743 90 73.2663 89.784 72.7743 89.352C72.2823 88.92 72.0363 88.218 72.0363 87.246V81.756H70.8663V80.082H72.0363V77.616H74.1063V80.082H76.5183V81.756H74.1063ZM82.7116 90.162C81.7756 90.162 80.9296 89.952 80.1736 89.532C79.4176 89.1 78.8236 88.5 78.3916 87.732C77.9596 86.952 77.7436 86.052 77.7436 85.032C77.7436 84.024 77.9656 83.13 78.4096 82.35C78.8536 81.57 79.4596 80.97 80.2276 80.55C80.9956 80.13 81.8536 79.92 82.8016 79.92C83.7496 79.92 84.6076 80.13 85.3756 80.55C86.1436 80.97 86.7496 81.57 87.1936 82.35C87.6376 83.13 87.8596 84.024 87.8596 85.032C87.8596 86.04 87.6316 86.934 87.1756 87.714C86.7196 88.494 86.0956 89.1 85.3036 89.532C84.5236 89.952 83.6596 90.162 82.7116 90.162ZM82.7116 88.38C83.2396 88.38 83.7316 88.254 84.1876 88.002C84.6556 87.75 85.0336 87.372 85.3216 86.868C85.6096 86.364 85.7536 85.752 85.7536 85.032C85.7536 84.312 85.6156 83.706 85.3396 83.214C85.0636 82.71 84.6976 82.332 84.2416 82.08C83.7856 81.828 83.2936 81.702 82.7656 81.702C82.2376 81.702 81.7456 81.828 81.2896 82.08C80.8456 82.332 80.4916 82.71 80.2276 83.214C79.9636 83.706 79.8316 84.312 79.8316 85.032C79.8316 86.1 80.1016 86.928 80.6416 87.516C81.1936 88.092 81.8836 88.38 82.7116 88.38Z" fill="#64748B"/>
<path d="M267.944 68.73C269.885 68.4987 271.849 68.909 273.535 69.8984C275.221 70.8877 276.537 72.4017 277.282 74.2092C277.351 74.3963 277.351 74.6021 277.282 74.7892C276.975 75.5317 276.571 76.2296 276.078 76.8642M270.737 76.2983C270.265 76.7537 269.634 77.0057 268.978 77C268.323 76.9943 267.696 76.7314 267.232 76.2679C266.769 75.8044 266.506 75.1773 266.5 74.5218C266.494 73.8663 266.746 73.2348 267.202 72.7633M273.566 79.0825C272.46 79.7373 271.227 80.1467 269.949 80.2828C268.672 80.419 267.38 80.2787 266.161 79.8716C264.943 79.4644 263.826 78.7999 262.887 77.9231C261.948 77.0463 261.208 75.9778 260.718 74.79C260.649 74.6029 260.649 74.3971 260.718 74.21C261.457 72.4182 262.757 70.9144 264.423 69.9242M260.667 66.1667L277.333 82.8333" stroke="#64748B" stroke-width="1.66667" stroke-linecap="round" stroke-linejoin="round"/>
<path d="M307.557 82C307.703 82.2534 307.913 82.4637 308.167 82.61C308.42 82.7563 308.707 82.8333 309 82.8333C309.293 82.8333 309.58 82.7563 309.833 82.61C310.087 82.4637 310.297 82.2534 310.443 82M301.718 77.2717C301.609 77.391 301.538 77.5394 301.512 77.6988C301.485 77.8582 301.506 78.0217 301.571 78.1695C301.637 78.3173 301.743 78.443 301.879 78.5312C302.014 78.6195 302.172 78.6666 302.333 78.6667H315.667C315.828 78.6667 315.986 78.6199 316.122 78.5318C316.257 78.4437 316.364 78.3181 316.429 78.1704C316.494 78.0227 316.515 77.8592 316.49 77.6998C316.464 77.5404 316.392 77.392 316.283 77.2725C315.175 76.13 314 74.9158 314 71.1667C314 69.8406 313.473 68.5688 312.536 67.6311C311.598 66.6935 310.326 66.1667 309 66.1667C307.674 66.1667 306.402 66.6935 305.464 67.6311C304.527 68.5688 304 69.8406 304 71.1667C304 74.9158 302.824 76.13 301.718 77.2717Z" stroke="#64748B" stroke-width="1.66667" stroke-linecap="round" stroke-linejoin="round"/>
<path d="M354.833 82V80.3333C354.833 79.4493 354.482 78.6014 353.857 77.9763C353.232 77.3512 352.384 77 351.5 77H346.5C345.616 77 344.768 77.3512 344.143 77.9763C343.518 78.6014 343.167 79.4493 343.167 80.3333V82M352.333 70.3333C352.333 72.1743 350.841 73.6667 349 73.6667C347.159 73.6667 345.667 72.1743 345.667 70.3333C345.667 68.4924 347.159 67 349 67C350.841 67 352.333 68.4924 352.333 70.3333Z" stroke="#64748B" stroke-width="1.66667" stroke-linecap="round" stroke-linejoin="round"/>
<path d="M39.1733 345.168C39.1733 345.663 39.0567 346.129 38.8233 346.568C38.59 347.007 38.2167 347.366 37.7033 347.646C37.19 347.917 36.532 348.052 35.7293 348.052H33.9653V352H32.3693V342.27H35.7293C36.476 342.27 37.106 342.401 37.6193 342.662C38.142 342.914 38.5293 343.259 38.7813 343.698C39.0427 344.137 39.1733 344.627 39.1733 345.168ZM35.7293 346.75C36.336 346.75 36.7887 346.615 37.0873 346.344C37.386 346.064 37.5353 345.672 37.5353 345.168C37.5353 344.104 36.9333 343.572 35.7293 343.572H33.9653V346.75H35.7293ZM42.2915 345.406C42.5248 345.014 42.8328 344.711 43.2155 344.496C43.6075 344.272 44.0695 344.16 44.6015 344.16V345.812H44.1955C43.5702 345.812 43.0942 345.971 42.7675 346.288C42.4502 346.605 42.2915 347.156 42.2915 347.94V352H40.6955V344.286H42.2915V345.406ZM49.4146 352.126C48.6866 352.126 48.0286 351.963 47.4406 351.636C46.8526 351.3 46.3906 350.833 46.0546 350.236C45.7186 349.629 45.5506 348.929 45.5506 348.136C45.5506 347.352 45.7232 346.657 46.0686 346.05C46.4139 345.443 46.8852 344.977 47.4826 344.65C48.0799 344.323 48.7472 344.16 49.4846 344.16C50.2219 344.16 50.8892 344.323 51.4866 344.65C52.0839 344.977 52.5552 345.443 52.9006 346.05C53.2459 346.657 53.4186 347.352 53.4186 348.136C53.4186 348.92 53.2412 349.615 52.8866 350.222C52.5319 350.829 52.0466 351.3 51.4306 351.636C50.8239 351.963 50.1519 352.126 49.4146 352.126ZM49.4146 350.74C49.8252 350.74 50.2079 350.642 50.5626 350.446C50.9266 350.25 51.2206 349.956 51.4446 349.564C51.6686 349.172 51.7806 348.696 51.7806 348.136C51.7806 347.576 51.6732 347.105 51.4586 346.722C51.2439 346.33 50.9592 346.036 50.6046 345.84C50.2499 345.644 49.8672 345.546 49.4566 345.546C49.0459 345.546 48.6632 345.644 48.3086 345.84C47.9632 346.036 47.6879 346.33 47.4826 346.722C47.2772 347.105 47.1746 347.576 47.1746 348.136C47.1746 348.967 47.3846 349.611 47.8046 350.068C48.2339 350.516 48.7706 350.74 49.4146 350.74ZM58.101 348.108C58.101 347.333 58.2597 346.647 58.577 346.05C58.9037 345.453 59.3423 344.991 59.893 344.664C60.453 344.328 61.0737 344.16 61.755 344.16C62.259 344.16 62.7537 344.272 63.239 344.496C63.7337 344.711 64.1257 345 64.415 345.364V341.64H66.025V352H64.415V350.838C64.1537 351.211 63.7897 351.519 63.323 351.762C62.8657 352.005 62.3383 352.126 61.741 352.126C61.069 352.126 60.453 351.958 59.893 351.622C59.3423 351.277 58.9037 350.801 58.577 350.194C58.2597 349.578 58.101 348.883 58.101 348.108ZM64.415 348.136C64.415 347.604 64.303 347.142 64.079 346.75C63.8643 346.358 63.5797 346.059 63.225 345.854C62.8703 345.649 62.4877 345.546 62.077 345.546C61.6663 345.546 61.2837 345.649 60.929 345.854C60.5743 346.05 60.285 346.344 60.061 346.736C59.8463 347.119 59.739 347.576 59.739 348.108C59.739 348.64 59.8463 349.107 60.061 349.508C60.285 349.909 60.5743 350.217 60.929 350.432C61.293 350.637 61.6757 350.74 62.077 350.74C62.4877 350.74 62.8703 350.637 63.225 350.432C63.5797 350.227 63.8643 349.928 64.079 349.536C64.303 349.135 64.415 348.668 64.415 348.136ZM68.9333 343.264C68.644 343.264 68.4013 343.166 68.2053 342.97C68.0093 342.774 67.9113 342.531 67.9113 342.242C67.9113 341.953 68.0093 341.71 68.2053 341.514C68.4013 341.318 68.644 341.22 68.9333 341.22C69.2133 341.22 69.4513 341.318 69.6473 341.514C69.8433 341.71 69.9413 341.953 69.9413 342.242C69.9413 342.531 69.8433 342.774 69.6473 342.97C69.4513 343.166 69.2133 343.264 68.9333 343.264ZM69.7173 344.286V352H68.1213V344.286H69.7173ZM71.2807 348.108C71.2807 347.333 71.4394 346.647 71.7567 346.05C72.0834 345.453 72.522 344.991 73.0727 344.664C73.6327 344.328 74.2487 344.16 74.9207 344.16C75.5274 344.16 76.0547 344.281 76.5027 344.524C76.96 344.757 77.324 345.051 77.5947 345.406V344.286H79.2047V352H77.5947V350.852C77.324 351.216 76.9554 351.519 76.4887 351.762C76.022 352.005 75.49 352.126 74.8927 352.126C74.23 352.126 73.6234 351.958 73.0727 351.622C72.522 351.277 72.0834 350.801 71.7567 350.194C71.4394 349.578 71.2807 348.883 71.2807 348.108ZM77.5947 348.136C77.5947 347.604 77.4827 347.142 77.2587 346.75C77.044 346.358 76.7594 346.059 76.4047 345.854C76.05 345.649 75.6674 345.546 75.2567 345.546C74.846 345.546 74.4634 345.649 74.1087 345.854C73.754 346.05 73.4647 346.344 73.2407 346.736C73.026 347.119 72.9187 347.576 72.9187 348.108C72.9187 348.64 73.026 349.107 73.2407 349.508C73.4647 349.909 73.754 350.217 74.1087 350.432C74.4727 350.637 74.8554 350.74 75.2567 350.74C75.6674 350.74 76.05 350.637 76.4047 350.432C76.7594 350.227 77.044 349.928 77.2587 349.536C77.4827 349.135 77.5947 348.668 77.5947 348.136ZM84.4057 348.108C84.4057 347.333 84.5644 346.647 84.8817 346.05C85.2084 345.453 85.647 344.991 86.1977 344.664C86.7577 344.328 87.3737 344.16 88.0457 344.16C88.6524 344.16 89.1797 344.281 89.6277 344.524C90.085 344.757 90.449 345.051 90.7197 345.406V344.286H92.3297V352H90.7197V350.852C90.449 351.216 90.0804 351.519 89.6137 351.762C89.147 352.005 88.615 352.126 88.0177 352.126C87.355 352.126 86.7484 351.958 86.1977 351.622C85.647 351.277 85.2084 350.801 84.8817 350.194C84.5644 349.578 84.4057 348.883 84.4057 348.108ZM90.7197 348.136C90.7197 347.604 90.6077 347.142 90.3837 346.75C90.169 346.358 89.8844 346.059 89.5297 345.854C89.175 345.649 88.7924 345.546 88.3817 345.546C87.971 345.546 87.5884 345.649 87.2337 345.854C86.879 346.05 86.5897 346.344 86.3657 346.736C86.151 347.119 86.0437 347.576 86.0437 348.108C86.0437 348.64 86.151 349.107 86.3657 349.508C86.5897 349.909 86.879 350.217 87.2337 350.432C87.5977 350.637 87.9804 350.74 88.3817 350.74C88.7924 350.74 89.175 350.637 89.5297 350.432C89.8844 350.227 90.169 349.928 90.3837 349.536C90.6077 349.135 90.7197 348.668 90.7197 348.136ZM97.5307 348.108C97.5307 347.333 97.6894 346.647 98.0067 346.05C98.3334 345.453 98.772 344.991 99.3227 344.664C99.8827 344.328 100.503 344.16 101.185 344.16C101.689 344.16 102.183 344.272 102.669 344.496C103.163 344.711 103.555 345 103.845 345.364V341.64H105.455V352H103.845V350.838C103.583 351.211 103.219 351.519 102.753 351.762C102.295 352.005 101.768 352.126 101.171 352.126C100.499 352.126 99.8827 351.958 99.3227 351.622C98.772 351.277 98.3334 350.801 98.0067 350.194C97.6894 349.578 97.5307 348.883 97.5307 348.108ZM103.845 348.136C103.845 347.604 103.733 347.142 103.509 346.75C103.294 346.358 103.009 346.059 102.655 345.854C102.3 345.649 101.917 345.546 101.507 345.546C101.096 345.546 100.713 345.649 100.359 345.854C100.004 346.05 99.7147 346.344 99.4907 346.736C99.276 347.119 99.1687 347.576 99.1687 348.108C99.1687 348.64 99.276 349.107 99.4907 349.508C99.7147 349.909 100.004 350.217 100.359 350.432C100.723 350.637 101.105 350.74 101.507 350.74C101.917 350.74 102.3 350.637 102.655 350.432C103.009 350.227 103.294 349.928 103.509 349.536C103.733 349.135 103.845 348.668 103.845 348.136ZM108.363 343.264C108.074 343.264 107.831 343.166 107.635 342.97C107.439 342.774 107.341 342.531 107.341 342.242C107.341 341.953 107.439 341.71 107.635 341.514C107.831 341.318 108.074 341.22 108.363 341.22C108.643 341.22 108.881 341.318 109.077 341.514C109.273 341.71 109.371 341.953 109.371 342.242C109.371 342.531 109.273 342.774 109.077 342.97C108.881 343.166 108.643 343.264 108.363 343.264ZM109.147 344.286V352H107.551V344.286H109.147ZM110.71 348.108C110.71 347.333 110.869 346.647 111.186 346.05C111.513 345.453 111.952 344.991 112.502 344.664C113.062 344.328 113.678 344.16 114.35 344.16C114.957 344.16 115.484 344.281 115.932 344.524C116.39 344.757 116.754 345.051 117.024 345.406V344.286H118.634V352H117.024V350.852C116.754 351.216 116.385 351.519 115.918 351.762C115.452 352.005 114.92 352.126 114.322 352.126C113.66 352.126 113.053 351.958 112.502 351.622C111.952 351.277 111.513 350.801 111.186 350.194C110.869 349.578 110.71 348.883 110.71 348.108ZM117.024 348.136C117.024 347.604 116.912 347.142 116.688 346.75C116.474 346.358 116.189 346.059 115.834 345.854C115.48 345.649 115.097 345.546 114.686 345.546C114.276 345.546 113.893 345.649 113.538 345.854C113.184 346.05 112.894 346.344 112.67 346.736C112.456 347.119 112.348 347.576 112.348 348.108C112.348 348.64 112.456 349.107 112.67 349.508C112.894 349.909 113.184 350.217 113.538 350.432C113.902 350.637 114.285 350.74 114.686 350.74C115.097 350.74 115.48 350.637 115.834 350.432C116.189 350.227 116.474 349.928 116.688 349.536C116.912 349.135 117.024 348.668 117.024 348.136Z" fill="#64748B"/>
<rect x="31" y="369" width="70" height="70" rx="10" fill="#6729FF"/>
<rect x="117" y="369" width="70" height="70" rx="10" fill="#F1F5F9"/>
<rect x="203" y="369" width="70" height="70" rx="10" fill="#F1F5F9"/>
<rect x="289" y="369" width="70" height="70" rx="10" fill="#F1F5F9"/>
<rect x="375" y="369" width="70" height="70" rx="10" fill="#F1F5F9"/>
<path d="M154 400H148M156 404H148M153 408H148M144 394V414L146 413L148 414L150 413L152 414L154 413L156 414L158 413L160 414V394L158 395L156 394L154 395L152 394L150 395L148 394L146 395L144 394Z" stroke="#64748B" stroke-width="2" stroke-linecap="round" stroke-linejoin="round"/>
<path d="M69.5182 410.029L69.5185 410.03C70.0049 410.506 70.5956 410.843 71.2385 411.021L67.9795 414.218C67.9795 414.218 67.9795 414.218 67.9794 414.218C66.9069 415.27 65.1632 415.27 64.0911 414.218L60.8963 411.085C61.1147 411.036 61.3291 410.97 61.5371 410.885C62.0175 410.69 62.4545 410.403 62.8226 410.041C62.8228 410.041 62.8231 410.04 62.8233 410.04L66.1763 406.751L69.5182 410.029ZM62.8222 399.292L62.8219 399.291C62.2841 398.764 61.6186 398.408 60.8962 398.249L64.0907 395.115C64.0908 395.115 64.0908 395.115 64.0908 395.115C65.1633 394.063 66.9069 394.063 67.9795 395.115C67.9795 395.115 67.9795 395.115 67.9795 395.115L71.2384 398.312C71.0909 398.353 70.9456 398.402 70.8033 398.46C70.3229 398.655 69.8859 398.942 69.5177 399.304C69.5175 399.304 69.5173 399.305 69.5171 399.305L66.1763 402.582L62.8222 399.292Z" stroke="#F8FAFC" stroke-width="1.33333"/>
<rect x="31" y="125" width="328" height="196" rx="9.84" fill="url(#paint0_linear_193_2303)"/>
<path d="M60.3075 169V154.18H62.6166L63.6032 157.14V169H60.3075ZM70.5306 169L61.7979 157.811L62.6166 154.18L71.3493 165.368L70.5306 169ZM70.5306 169L69.6489 166.04V154.18H72.9446V169H70.5306ZM79.4161 169.231C78.4784 169.231 77.6458 169.042 76.918 168.664C76.2043 168.272 75.6445 167.74 75.2387 167.069C74.8328 166.383 74.6299 165.599 74.6299 164.718V158.798H77.8417V164.676C77.8417 165.026 77.8977 165.326 78.0096 165.578C78.1356 165.83 78.3175 166.026 78.5554 166.166C78.7933 166.306 79.0802 166.376 79.4161 166.376C79.8919 166.376 80.2698 166.229 80.5497 165.935C80.8295 165.627 80.9695 165.207 80.9695 164.676V158.798H84.1813V164.697C84.1813 165.592 83.9783 166.383 83.5725 167.069C83.1667 167.74 82.6069 168.272 81.8931 168.664C81.1794 169.042 80.3537 169.231 79.4161 169.231ZM85.5681 169V153.76H88.7798V169H85.5681ZM90.4118 169V153.76H93.6236V169H90.4118ZM98.0685 169V166.439H101.553C102.197 166.439 102.701 166.25 103.065 165.872C103.428 165.494 103.61 165.033 103.61 164.487C103.61 164.109 103.526 163.773 103.358 163.479C103.191 163.185 102.953 162.954 102.645 162.786C102.351 162.618 101.987 162.534 101.553 162.534H98.0685V160.036H101.28C101.826 160.036 102.267 159.903 102.603 159.638C102.939 159.358 103.107 158.938 103.107 158.378C103.107 157.832 102.939 157.426 102.603 157.161C102.267 156.881 101.826 156.741 101.28 156.741H98.0685V154.18H101.91C102.862 154.18 103.666 154.355 104.324 154.704C104.996 155.054 105.507 155.523 105.856 156.111C106.206 156.699 106.381 157.349 106.381 158.063C106.381 158.973 106.087 159.743 105.5 160.372C104.912 161.002 104.044 161.436 102.897 161.674L102.981 160.561C104.226 160.799 105.185 161.282 105.856 162.01C106.542 162.737 106.885 163.633 106.885 164.697C106.885 165.508 106.682 166.243 106.276 166.901C105.884 167.545 105.311 168.055 104.555 168.433C103.813 168.811 102.918 169 101.868 169H98.0685ZM95.5494 169V154.18H98.8032V169H95.5494ZM112.335 169.21C111.398 169.21 110.558 168.979 109.816 168.517C109.088 168.055 108.508 167.426 108.074 166.628C107.654 165.83 107.444 164.921 107.444 163.899C107.444 162.877 107.654 161.968 108.074 161.17C108.508 160.372 109.088 159.743 109.816 159.281C110.558 158.819 111.398 158.588 112.335 158.588C113.021 158.588 113.637 158.721 114.182 158.987C114.742 159.253 115.197 159.624 115.547 160.099C115.897 160.561 116.093 161.093 116.135 161.695V166.103C116.093 166.705 115.897 167.244 115.547 167.719C115.211 168.181 114.763 168.545 114.203 168.811C113.644 169.077 113.021 169.21 112.335 169.21ZM112.986 166.313C113.672 166.313 114.224 166.089 114.644 165.641C115.064 165.179 115.274 164.599 115.274 163.899C115.274 163.423 115.176 163.003 114.98 162.639C114.798 162.276 114.532 161.996 114.182 161.8C113.847 161.59 113.455 161.485 113.007 161.485C112.559 161.485 112.16 161.59 111.81 161.8C111.474 161.996 111.202 162.276 110.992 162.639C110.796 163.003 110.698 163.423 110.698 163.899C110.698 164.361 110.796 164.774 110.992 165.137C111.188 165.501 111.46 165.788 111.81 165.998C112.16 166.208 112.552 166.313 112.986 166.313ZM115.148 169V166.25L115.631 163.773L115.148 161.296V158.798H118.297V169H115.148ZM126.667 169V163.185C126.667 162.653 126.499 162.227 126.163 161.905C125.841 161.569 125.428 161.401 124.925 161.401C124.575 161.401 124.267 161.478 124.001 161.632C123.735 161.772 123.525 161.982 123.371 162.262C123.217 162.527 123.14 162.835 123.14 163.185L121.902 162.576C121.902 161.779 122.077 161.079 122.427 160.477C122.776 159.875 123.259 159.414 123.875 159.092C124.505 158.756 125.211 158.588 125.995 158.588C126.751 158.588 127.416 158.77 127.989 159.134C128.577 159.484 129.039 159.952 129.375 160.54C129.711 161.128 129.879 161.772 129.879 162.471V169H126.667ZM119.929 169V158.798H123.14V169H119.929ZM137.84 169L134.272 163.71L137.819 158.798H141.409L137.127 164.319L137.231 162.996L141.619 169H137.84ZM131.312 169V153.76H134.524V169H131.312Z" fill="white"/>
<g clip-path="url(#clip1_193_2303)">
<path d="M312.949 159.069C313.211 159.397 313.408 159.79 313.539 160.184C313.67 160.578 313.736 161.037 313.736 161.496C313.736 161.955 313.67 162.414 313.539 162.808C313.408 163.202 313.211 163.595 312.949 163.923C312.621 164.382 312.686 165.038 313.146 165.366C313.605 165.694 314.261 165.629 314.589 165.17C314.982 164.645 315.245 164.12 315.507 163.464C315.77 162.808 315.835 162.152 315.835 161.496C315.835 160.84 315.704 160.184 315.507 159.528C315.31 158.938 314.982 158.347 314.589 157.822C314.261 157.363 313.605 157.298 313.146 157.626C312.686 157.954 312.621 158.61 312.949 159.069Z" fill="#FAFAFA"/>
<path d="M316.557 157.166C317.344 158.413 317.803 159.922 317.803 161.496C317.803 163.07 317.344 164.579 316.557 165.826C316.229 166.285 316.426 166.941 316.885 167.269C317.41 167.597 318 167.4 318.328 166.941C319.312 165.366 319.902 163.53 319.902 161.496C319.902 159.528 319.312 157.626 318.328 156.051C318 155.592 317.344 155.395 316.885 155.723C316.426 156.051 316.229 156.642 316.557 157.166Z" fill="#FAFAFA"/>
<path d="M320.362 155.198C321.477 157.035 322.067 159.2 322.067 161.496C322.067 163.792 321.411 165.957 320.362 167.794C320.099 168.318 320.23 168.909 320.755 169.237C321.28 169.499 321.87 169.368 322.198 168.843C323.51 166.678 324.232 164.186 324.232 161.496C324.232 158.806 323.51 156.314 322.198 154.149C321.936 153.624 321.28 153.493 320.755 153.755C320.23 154.083 320.099 154.674 320.362 155.198Z" fill="#FAFAFA"/>
<path d="M324.166 153.23C325.544 155.658 326.397 158.478 326.397 161.496C326.397 164.514 325.61 167.334 324.166 169.762C323.904 170.286 324.035 170.877 324.56 171.205C325.085 171.467 325.675 171.336 326.003 170.811C327.578 168.056 328.496 164.907 328.496 161.496C328.496 158.085 327.578 154.936 326.003 152.181C325.741 151.656 325.085 151.525 324.56 151.787C324.035 152.05 323.904 152.706 324.166 153.23Z" fill="#FAFAFA"/>
</g>
<path d="M62.3887 239.504V225.784H57.3902C56.8641 225.784 56.3784 226.067 56.3784 226.796C56.3784 227.524 56.8641 227.808 57.3902 227.808H60.365V239.504H57.3902C56.8641 239.504 56.3784 239.788 56.3784 240.516C56.3784 241.245 56.8641 241.528 57.3902 241.528H65.3634C65.8896 241.528 66.3752 241.245 66.3752 240.516V235.417C66.3752 234.83 66.1122 234.405 65.3634 234.405C64.6147 234.405 64.3516 234.83 64.3516 235.417V239.504H62.3887Z" fill="#FAFAFA"/>
<path d="M72.9668 234.668H78.6735C79.3413 234.668 79.8067 234.567 80.3127 234.101C80.8793 233.575 80.94 233.029 80.94 232.3V228.152C80.94 227.423 80.8793 226.877 80.3127 226.351C79.8067 225.885 79.3413 225.784 78.6735 225.784H71.955C71.4288 225.784 70.9432 226.067 70.9432 226.796C70.9432 227.524 71.4288 227.808 71.955 227.808H78.9163V232.644H73.2299C71.7121 232.644 70.9432 233.413 70.9432 234.931V241.528H79.9282C80.4543 241.528 80.94 241.245 80.94 240.516C80.94 239.788 80.4543 239.504 79.9282 239.504H72.9668V234.668Z" fill="#FAFAFA"/>
<path d="M93.4811 227.808V231.167C93.4811 232.3 93.0359 232.644 92.4693 232.644H88.5029C87.9768 232.644 87.4911 232.927 87.4911 233.656C87.4911 234.385 87.9768 234.668 88.5029 234.668H92.4693C93.0359 234.668 93.4811 235.012 93.4811 236.145V239.504H86.5197C85.9936 239.504 85.5079 239.788 85.5079 240.516C85.5079 241.245 85.9936 241.528 86.5197 241.528H93.4811C94.6346 241.528 95.5047 240.658 95.5047 239.504V235.619C95.5047 234.809 95.3428 234.223 94.7155 233.656C95.3428 233.089 95.5047 232.503 95.5047 231.693V227.808C95.5047 226.654 94.6346 225.784 93.4811 225.784H86.5197C85.9936 225.784 85.5079 226.067 85.5079 226.796C85.5079 227.524 85.9936 227.808 86.5197 227.808H93.4811Z" fill="#FAFAFA"/>
<path d="M103.108 234.364V226.796C103.108 226.29 102.865 225.784 102.096 225.784C101.327 225.784 101.084 226.29 101.084 226.796V236.388H107.034V240.516C107.034 241.164 107.317 241.528 108.046 241.528C108.774 241.528 109.058 241.164 109.058 240.516V236.388C109.584 236.388 110.069 236.105 110.069 235.376C110.069 234.648 109.584 234.364 109.058 234.364V228.516C109.058 228.01 108.815 227.504 108.046 227.504C107.277 227.504 107.034 228.01 107.034 228.516V234.364H103.108Z" fill="#FAFAFA"/>
<path d="M133.229 227.808H138.187C138.713 227.808 139.199 227.524 139.199 226.796C139.199 226.067 138.713 225.784 138.187 225.784H131.206V234.668H137.175V239.504H132.501C132.177 239.504 131.711 239.221 131.428 239.1L130.821 238.837C130.598 238.735 130.416 238.675 130.174 238.675C129.647 238.675 129.202 239.16 129.202 239.686C129.202 240.395 129.809 240.577 130.356 240.82L131.125 241.164C131.631 241.386 131.934 241.528 132.46 241.528H136.953C137.681 241.528 138.207 241.447 138.713 240.84C139.138 240.334 139.199 239.889 139.199 239.262V234.931C139.199 234.223 139.138 233.737 138.572 233.211C138.086 232.745 137.6 232.644 136.953 232.644H133.229V227.808Z" fill="#FAFAFA"/>
<path d="M145.791 227.808C146.377 227.808 146.802 227.403 146.802 226.796C146.802 226.27 146.377 225.784 145.851 225.784H144.637C143.929 225.784 143.767 226.33 143.767 226.796V240.253C143.767 241.184 144.131 241.528 145.082 241.528H152.448C153.359 241.528 153.764 241.204 153.764 240.253V235.72C153.764 234.789 153.561 234.364 152.55 234.364H145.791V227.808ZM151.74 236.388V239.504H145.791V236.388H151.74Z" fill="#FAFAFA"/>
<path d="M166.305 227.808V230.6C166.305 231.491 166.345 231.47 165.677 232.057L162.885 234.465C162.379 234.911 162.359 234.971 162.359 235.639V240.516C162.359 241.164 162.642 241.528 163.371 241.528C164.099 241.528 164.382 241.164 164.382 240.516V236.59C164.382 235.882 164.423 235.842 164.949 235.376L167.782 232.927C168.349 232.442 168.328 232.361 168.328 231.653V225.784H159.343C158.696 225.784 158.332 226.351 158.332 226.796V227.808C158.332 228.253 158.696 228.819 159.343 228.819C159.991 228.819 160.355 228.253 160.355 227.808H166.305Z" fill="#FAFAFA"/>
<path d="M176.944 232.644V227.808H178.846V232.644H176.944ZM175.932 225.784C175.244 225.784 174.92 226.27 174.92 226.796V232.644C174.293 232.644 173.807 232.867 173.443 233.211C173.079 233.555 172.896 234.061 172.896 234.688V239.504C172.896 240.739 173.665 241.528 174.92 241.528H180.87C182.124 241.528 182.893 240.739 182.893 239.504V234.688C182.893 234.061 182.711 233.555 182.347 233.211C181.983 232.867 181.497 232.644 180.87 232.644V226.796C180.87 226.27 180.546 225.784 179.858 225.784H175.932ZM174.92 239.504V234.668H180.87V239.504H174.92Z" fill="#FAFAFA"/>
<path d="M209.999 239.504C209.412 239.504 208.987 239.909 208.987 240.516C208.987 241.063 209.392 241.528 209.999 241.528H211.011C211.618 241.528 212.023 241.063 212.023 240.516V226.796C212.023 226.27 211.577 225.784 211.011 225.784H203.038C202.471 225.784 202.026 226.27 202.026 226.796V231.976C202.026 232.503 202.471 232.988 203.038 232.988H209.999V239.504ZM204.05 230.965V227.808H209.999V230.965H204.05Z" fill="#FAFAFA"/>
<path d="M218.614 225.784C217.501 225.784 216.591 226.695 216.591 227.808V239.504C216.591 240.638 217.461 241.528 218.614 241.528H224.564C225.717 241.528 226.587 240.638 226.587 239.504V227.808C226.587 226.695 225.677 225.784 224.564 225.784H218.614ZM218.614 239.504V227.808H224.564V239.504H218.614Z" fill="#FAFAFA"/>
<path d="M233.179 225.784C232.066 225.784 231.155 226.695 231.155 227.808V239.504C231.155 240.638 232.026 241.528 233.179 241.528H239.129C240.282 241.528 241.152 240.638 241.152 239.504V227.808C241.152 226.695 240.242 225.784 239.129 225.784H233.179ZM233.179 239.504V227.808H239.129V239.504H233.179Z" fill="#FAFAFA"/>
<path d="M247.744 225.784C246.631 225.784 245.72 226.695 245.72 227.808V239.504C245.72 240.638 246.59 241.528 247.744 241.528H253.693C254.847 241.528 255.717 240.638 255.717 239.504V227.808C255.717 226.695 254.806 225.784 253.693 225.784H247.744ZM247.744 239.504V227.808H253.693V239.504H247.744Z" fill="#FAFAFA"/>
<path d="M276.873 225.784C275.76 225.784 274.85 226.695 274.85 227.808V239.504C274.85 240.638 275.72 241.528 276.873 241.528H282.823C283.976 241.528 284.846 240.638 284.846 239.504V227.808C284.846 226.695 283.936 225.784 282.823 225.784H276.873ZM276.873 239.504V227.808H282.823V239.504H276.873Z" fill="#FAFAFA"/>
<path d="M291.438 225.784C290.325 225.784 289.414 226.695 289.414 227.808V239.504C289.414 240.638 290.285 241.528 291.438 241.528H297.387C298.541 241.528 299.411 240.638 299.411 239.504V227.808C299.411 226.695 298.501 225.784 297.387 225.784H291.438ZM291.438 239.504V227.808H297.387V239.504H291.438Z" fill="#FAFAFA"/>
<path d="M306.003 225.784C304.89 225.784 303.979 226.695 303.979 227.808V239.504C303.979 240.638 304.849 241.528 306.003 241.528H311.952C313.106 241.528 313.976 240.638 313.976 239.504V227.808C313.976 226.695 313.065 225.784 311.952 225.784H306.003ZM306.003 239.504V227.808H311.952V239.504H306.003Z" fill="#FAFAFA"/>
<path d="M320.567 225.784C319.454 225.784 318.544 226.695 318.544 227.808V239.504C318.544 240.638 319.414 241.528 320.567 241.528H326.517C327.67 241.528 328.541 240.638 328.541 239.504V227.808C328.541 226.695 327.63 225.784 326.517 225.784H320.567ZM320.567 239.504V227.808H326.517V239.504H320.567Z" fill="#FAFAFA"/>
<path opacity="0.8" d="M60.5033 267.637V268.369H59.047V273.108H58.1496V268.369H56.6854V267.637H60.5033ZM61.8688 268.196C61.7061 268.196 61.5696 268.141 61.4594 268.031C61.3492 267.92 61.2941 267.784 61.2941 267.621C61.2941 267.459 61.3492 267.322 61.4594 267.212C61.5696 267.102 61.7061 267.047 61.8688 267.047C62.0262 267.047 62.16 267.102 62.2702 267.212C62.3804 267.322 62.4356 267.459 62.4356 267.621C62.4356 267.784 62.3804 267.92 62.2702 268.031C62.16 268.141 62.0262 268.196 61.8688 268.196ZM62.3096 268.771V273.108H61.4122V268.771H62.3096ZM64.5348 269.503V271.904C64.5348 272.066 64.5715 272.184 64.645 272.258C64.7237 272.326 64.8549 272.36 65.0386 272.36H65.5896V273.108H64.8812C64.4771 273.108 64.1674 273.014 63.9523 272.825C63.7371 272.636 63.6295 272.329 63.6295 271.904V269.503H63.1178V268.771H63.6295V267.692H64.5348V268.771H65.5896V269.503H64.5348ZM70.3449 268.771V273.108H69.4475V272.596C69.3058 272.775 69.1195 272.916 68.8886 273.021C68.6629 273.121 68.4215 273.171 68.1643 273.171C67.8232 273.171 67.5162 273.1 67.2433 272.958C66.9757 272.817 66.7631 272.607 66.6057 272.329C66.4535 272.051 66.3774 271.715 66.3774 271.321V268.771H67.2669V271.187C67.2669 271.576 67.364 271.875 67.5582 272.085C67.7524 272.289 68.0174 272.392 68.3533 272.392C68.6891 272.392 68.9542 272.289 69.1483 272.085C69.3478 271.875 69.4475 271.576 69.4475 271.187V268.771H70.3449ZM72.4264 267.283V273.108H71.5289V267.283H72.4264ZM73.3054 270.92C73.3054 270.484 73.3946 270.098 73.5731 269.762C73.7568 269.427 74.0034 269.167 74.313 268.983C74.6279 268.794 74.9743 268.7 75.3522 268.7C75.6933 268.7 75.9898 268.768 76.2417 268.904C76.4988 269.036 76.7035 269.201 76.8557 269.4V268.771H77.761V273.108H76.8557V272.463C76.7035 272.667 76.4962 272.838 76.2338 272.974C75.9714 273.111 75.6723 273.179 75.3364 273.179C74.9638 273.179 74.6227 273.084 74.313 272.895C74.0034 272.701 73.7568 272.434 73.5731 272.093C73.3946 271.746 73.3054 271.355 73.3054 270.92ZM76.8557 270.935C76.8557 270.636 76.7927 270.376 76.6668 270.156C76.5461 269.936 76.386 269.768 76.1866 269.652C75.9872 269.537 75.772 269.479 75.5411 269.479C75.3102 269.479 75.095 269.537 74.8956 269.652C74.6962 269.762 74.5335 269.928 74.4075 270.148C74.2868 270.363 74.2265 270.62 74.2265 270.92C74.2265 271.219 74.2868 271.481 74.4075 271.707C74.5335 271.932 74.6962 272.106 74.8956 272.226C75.1002 272.342 75.3154 272.4 75.5411 272.4C75.772 272.4 75.9872 272.342 76.1866 272.226C76.386 272.111 76.5461 271.943 76.6668 271.723C76.7927 271.497 76.8557 271.234 76.8557 270.935ZM79.8371 269.4C79.9683 269.18 80.1415 269.009 80.3567 268.889C80.5771 268.763 80.8368 268.7 81.136 268.7V269.629H80.9077C80.5561 269.629 80.2884 269.718 80.1047 269.896C79.9263 270.075 79.8371 270.384 79.8371 270.825V273.108H78.9397V268.771H79.8371V269.4ZM83.7066 270.92C83.7066 270.484 83.7958 270.098 83.9743 269.762C84.1579 269.427 84.4046 269.167 84.7142 268.983C85.0291 268.794 85.3781 268.7 85.7612 268.7C86.0446 268.7 86.3227 268.763 86.5956 268.889C86.8738 269.009 87.0942 269.172 87.2569 269.377V267.283H88.1622V273.108H87.2569V272.455C87.1099 272.665 86.9053 272.838 86.6429 272.974C86.3857 273.111 86.0892 273.179 85.7533 273.179C85.3755 273.179 85.0291 273.084 84.7142 272.895C84.4046 272.701 84.1579 272.434 83.9743 272.093C83.7958 271.746 83.7066 271.355 83.7066 270.92ZM87.2569 270.935C87.2569 270.636 87.1939 270.376 87.068 270.156C86.9473 269.936 86.7872 269.768 86.5878 269.652C86.3883 269.537 86.1732 269.479 85.9423 269.479C85.7114 269.479 85.4962 269.537 85.2968 269.652C85.0973 269.762 84.9347 269.928 84.8087 270.148C84.688 270.363 84.6276 270.62 84.6276 270.92C84.6276 271.219 84.688 271.481 84.8087 271.707C84.9347 271.932 85.0973 272.106 85.2968 272.226C85.5014 272.342 85.7166 272.4 85.9423 272.4C86.1732 272.4 86.3883 272.342 86.5878 272.226C86.7872 272.111 86.9473 271.943 87.068 271.723C87.1939 271.497 87.2569 271.234 87.2569 270.935ZM91.2223 273.179C90.8129 273.179 90.443 273.087 90.1123 272.903C89.7817 272.714 89.5219 272.452 89.333 272.116C89.1441 271.775 89.0496 271.381 89.0496 270.935C89.0496 270.495 89.1467 270.104 89.3409 269.762C89.5351 269.421 89.8001 269.159 90.136 268.975C90.4718 268.792 90.8471 268.7 91.2616 268.7C91.6762 268.7 92.0515 268.792 92.3873 268.975C92.7232 269.159 92.9882 269.421 93.1824 269.762C93.3766 270.104 93.4737 270.495 93.4737 270.935C93.4737 271.376 93.374 271.767 93.1745 272.108C92.9751 272.449 92.7022 272.714 92.3559 272.903C92.0147 273.087 91.6369 273.179 91.2223 273.179ZM91.2223 272.4C91.4532 272.4 91.6684 272.344 91.8678 272.234C92.0725 272.124 92.2378 271.959 92.3637 271.738C92.4897 271.518 92.5527 271.25 92.5527 270.935C92.5527 270.62 92.4923 270.355 92.3716 270.14C92.2509 269.92 92.0908 269.755 91.8914 269.644C91.692 269.534 91.4768 269.479 91.2459 269.479C91.015 269.479 90.7998 269.534 90.6004 269.644C90.4062 269.755 90.2514 269.92 90.136 270.14C90.0205 270.355 89.9628 270.62 89.9628 270.935C89.9628 271.402 90.0808 271.765 90.317 272.022C90.5584 272.274 90.8602 272.4 91.2223 272.4ZM96.1066 270.361C96.1066 269.825 96.2299 269.345 96.4765 268.92C96.7284 268.495 97.0669 268.164 97.492 267.928C97.9224 267.687 98.3921 267.566 98.9011 267.566C99.4836 267.566 100.001 267.71 100.452 267.999C100.908 268.282 101.239 268.687 101.444 269.211H100.365C100.224 268.923 100.027 268.708 99.7749 268.566C99.523 268.424 99.2317 268.353 98.9011 268.353C98.539 268.353 98.2163 268.435 97.9329 268.597C97.6495 268.76 97.4264 268.994 97.2637 269.298C97.1063 269.602 97.0276 269.957 97.0276 270.361C97.0276 270.765 97.1063 271.119 97.2637 271.423C97.4264 271.728 97.6495 271.964 97.9329 272.132C98.2163 272.295 98.539 272.376 98.9011 272.376C99.2317 272.376 99.523 272.305 99.7749 272.163C100.027 272.022 100.224 271.807 100.365 271.518H101.444C101.239 272.043 100.908 272.447 100.452 272.73C100.001 273.014 99.4836 273.155 98.9011 273.155C98.3868 273.155 97.9171 273.037 97.492 272.801C97.0669 272.56 96.7284 272.226 96.4765 271.801C96.2299 271.376 96.1066 270.896 96.1066 270.361ZM102.195 270.92C102.195 270.484 102.284 270.098 102.463 269.762C102.646 269.427 102.893 269.167 103.203 268.983C103.518 268.794 103.864 268.7 104.242 268.7C104.583 268.7 104.879 268.768 105.131 268.904C105.388 269.036 105.593 269.201 105.745 269.4V268.771H106.651V273.108H105.745V272.463C105.593 272.667 105.386 272.838 105.123 272.974C104.861 273.111 104.562 273.179 104.226 273.179C103.853 273.179 103.512 273.084 103.203 272.895C102.893 272.701 102.646 272.434 102.463 272.093C102.284 271.746 102.195 271.355 102.195 270.92ZM105.745 270.935C105.745 270.636 105.682 270.376 105.556 270.156C105.436 269.936 105.276 269.768 105.076 269.652C104.877 269.537 104.662 269.479 104.431 269.479C104.2 269.479 103.985 269.537 103.785 269.652C103.586 269.762 103.423 269.928 103.297 270.148C103.176 270.363 103.116 270.62 103.116 270.92C103.116 271.219 103.176 271.481 103.297 271.707C103.423 271.932 103.586 272.106 103.785 272.226C103.99 272.342 104.205 272.4 104.431 272.4C104.662 272.4 104.877 272.342 105.076 272.226C105.276 272.111 105.436 271.943 105.556 271.723C105.682 271.497 105.745 271.234 105.745 270.935ZM108.727 269.4C108.858 269.18 109.031 269.009 109.246 268.889C109.467 268.763 109.726 268.7 110.026 268.7V269.629H109.797C109.446 269.629 109.178 269.718 108.994 269.896C108.816 270.075 108.727 270.384 108.727 270.825V273.108H107.829V268.771H108.727V269.4ZM111.897 269.503V271.904C111.897 272.066 111.934 272.184 112.008 272.258C112.086 272.326 112.218 272.36 112.401 272.36H112.952V273.108H112.244C111.84 273.108 111.53 273.014 111.315 272.825C111.1 272.636 110.992 272.329 110.992 271.904V269.503H110.481V268.771H110.992V267.692H111.897V268.771H112.952V269.503H111.897ZM113.48 270.92C113.48 270.484 113.57 270.098 113.748 269.762C113.932 269.427 114.178 269.167 114.488 268.983C114.803 268.794 115.149 268.7 115.527 268.7C115.868 268.7 116.165 268.768 116.417 268.904C116.674 269.036 116.878 269.201 117.031 269.4V268.771H117.936V273.108H117.031V272.463C116.878 272.667 116.671 272.838 116.409 272.974C116.146 273.111 115.847 273.179 115.511 273.179C115.139 273.179 114.798 273.084 114.488 272.895C114.178 272.701 113.932 272.434 113.748 272.093C113.57 271.746 113.48 271.355 113.48 270.92ZM117.031 270.935C117.031 270.636 116.968 270.376 116.842 270.156C116.721 269.936 116.561 269.768 116.361 269.652C116.162 269.537 115.947 269.479 115.716 269.479C115.485 269.479 115.27 269.537 115.07 269.652C114.871 269.762 114.708 269.928 114.582 270.148C114.462 270.363 114.401 270.62 114.401 270.92C114.401 271.219 114.462 271.481 114.582 271.707C114.708 271.932 114.871 272.106 115.07 272.226C115.275 272.342 115.49 272.4 115.716 272.4C115.947 272.4 116.162 272.342 116.361 272.226C116.561 272.111 116.721 271.943 116.842 271.723C116.968 271.497 117.031 271.234 117.031 270.935ZM114.575 268.322C114.617 268.017 114.716 267.789 114.874 267.637C115.031 267.48 115.228 267.401 115.464 267.401C115.564 267.401 115.65 267.417 115.724 267.448C115.797 267.48 115.887 267.527 115.991 267.59C116.07 267.642 116.136 267.682 116.188 267.708C116.246 267.734 116.309 267.747 116.377 267.747C116.466 267.747 116.54 267.721 116.598 267.668C116.661 267.611 116.7 267.527 116.716 267.417H117.22C117.178 267.721 117.078 267.952 116.92 268.109C116.763 268.262 116.566 268.338 116.33 268.338C116.23 268.338 116.141 268.322 116.062 268.29C115.984 268.254 115.897 268.204 115.803 268.141C115.708 268.083 115.635 268.044 115.582 268.023C115.535 267.996 115.48 267.983 115.417 267.983C115.328 267.983 115.252 268.012 115.189 268.07C115.131 268.128 115.094 268.212 115.078 268.322H114.575ZM120.996 273.179C120.587 273.179 120.217 273.087 119.886 272.903C119.555 272.714 119.296 272.452 119.107 272.116C118.918 271.775 118.823 271.381 118.823 270.935C118.823 270.495 118.92 270.104 119.115 269.762C119.309 269.421 119.574 269.159 119.91 268.975C120.246 268.792 120.621 268.7 121.035 268.7C121.45 268.7 121.825 268.792 122.161 268.975C122.497 269.159 122.762 269.421 122.956 269.762C123.15 270.104 123.247 270.495 123.247 270.935C123.247 271.376 123.148 271.767 122.948 272.108C122.749 272.449 122.476 272.714 122.13 272.903C121.788 273.087 121.411 273.179 120.996 273.179ZM120.996 272.4C121.227 272.4 121.442 272.344 121.641 272.234C121.846 272.124 122.011 271.959 122.137 271.738C122.263 271.518 122.326 271.25 122.326 270.935C122.326 270.62 122.266 270.355 122.145 270.14C122.025 269.92 121.865 269.755 121.665 269.644C121.466 269.534 121.251 269.479 121.02 269.479C120.789 269.479 120.574 269.534 120.374 269.644C120.18 269.755 120.025 269.92 119.91 270.14C119.794 270.355 119.736 270.62 119.736 270.935C119.736 271.402 119.855 271.765 120.091 272.022C120.332 272.274 120.634 272.4 120.996 272.4Z" fill="white"/>
<path d="M64.0064 288.732H62.6603L58.6101 282.604V288.732H57.264V280.514H58.6101L62.6603 286.63V280.514H64.0064V288.732ZM71.6663 282.226V288.732H70.3202V287.965C70.1076 288.232 69.8282 288.445 69.4818 288.602C69.1433 288.752 68.7812 288.826 68.3955 288.826C67.8838 288.826 67.4233 288.72 67.0139 288.508C66.6124 288.295 66.2936 287.98 66.0575 287.563C65.8292 287.146 65.715 286.642 65.715 286.052V282.226H67.0493V285.851C67.0493 286.433 67.195 286.882 67.4862 287.197C67.7775 287.504 68.175 287.657 68.6788 287.657C69.1827 287.657 69.5802 287.504 69.8715 287.197C70.1706 286.882 70.3202 286.433 70.3202 285.851V282.226H71.6663ZM74.7885 279.994V288.732H73.4424V279.994H74.7885ZM77.9019 279.994V288.732H76.5558V279.994H77.9019ZM80.3541 281.364C80.1101 281.364 79.9054 281.281 79.7401 281.116C79.5748 280.951 79.4921 280.746 79.4921 280.502C79.4921 280.258 79.5748 280.053 79.7401 279.888C79.9054 279.723 80.1101 279.64 80.3541 279.64C80.5903 279.64 80.791 279.723 80.9563 279.888C81.1216 280.053 81.2043 280.258 81.2043 280.502C81.2043 280.746 81.1216 280.951 80.9563 281.116C80.791 281.281 80.5903 281.364 80.3541 281.364ZM81.0154 282.226V288.732H79.6692V282.226H81.0154ZM84.3531 283.324V286.925C84.3531 287.169 84.4082 287.347 84.5185 287.457C84.6365 287.559 84.8333 287.61 85.1089 287.61H85.9354V288.732H84.8727C84.2665 288.732 83.8021 288.59 83.4793 288.307C83.1566 288.024 82.9952 287.563 82.9952 286.925V283.324H82.2277V282.226H82.9952V280.608H84.3531V282.226H85.9354V283.324H84.3531ZM89.9982 288.838C89.3842 288.838 88.8292 288.701 88.3333 288.425C87.8373 288.142 87.4477 287.748 87.1643 287.244C86.8809 286.733 86.7392 286.142 86.7392 285.473C86.7392 284.812 86.8848 284.225 87.1761 283.714C87.4673 283.202 87.8649 282.808 88.3687 282.533C88.8725 282.257 89.4353 282.12 90.0572 282.12C90.6791 282.12 91.242 282.257 91.7458 282.533C92.2496 282.808 92.6471 283.202 92.9384 283.714C93.2297 284.225 93.3753 284.812 93.3753 285.473C93.3753 286.134 93.2257 286.721 92.9266 287.232C92.6274 287.744 92.2181 288.142 91.6985 288.425C91.1869 288.701 90.6201 288.838 89.9982 288.838ZM89.9982 287.669C90.3446 287.669 90.6673 287.587 90.9665 287.421C91.2735 287.256 91.5214 287.008 91.7104 286.677C91.8993 286.347 91.9937 285.945 91.9937 285.473C91.9937 285.001 91.9032 284.603 91.7222 284.28C91.5411 283.95 91.301 283.702 91.0019 283.537C90.7027 283.371 90.38 283.289 90.0336 283.289C89.6872 283.289 89.3645 283.371 89.0654 283.537C88.7741 283.702 88.5419 283.95 88.3687 284.28C88.1955 284.603 88.1089 285.001 88.1089 285.473C88.1089 286.174 88.286 286.717 88.6403 287.103C89.0024 287.48 89.455 287.669 89.9982 287.669Z" fill="white"/>
<path opacity="0.8" d="M161.172 267.637L159.118 273.108H158.078L156.016 267.637H156.976L158.598 272.187L160.228 267.637H161.172ZM161.624 270.92C161.624 270.484 161.713 270.098 161.891 269.762C162.075 269.427 162.321 269.167 162.631 268.983C162.946 268.794 163.292 268.7 163.67 268.7C164.011 268.7 164.308 268.768 164.56 268.904C164.817 269.036 165.022 269.201 165.174 269.4V268.771H166.079V273.108H165.174V272.463C165.022 272.667 164.814 272.838 164.552 272.974C164.289 273.111 163.99 273.179 163.654 273.179C163.282 273.179 162.941 273.084 162.631 272.895C162.321 272.701 162.075 272.434 161.891 272.093C161.713 271.746 161.624 271.355 161.624 270.92ZM165.174 270.935C165.174 270.636 165.111 270.376 164.985 270.156C164.864 269.936 164.704 269.768 164.505 269.652C164.305 269.537 164.09 269.479 163.859 269.479C163.628 269.479 163.413 269.537 163.214 269.652C163.014 269.762 162.852 269.928 162.726 270.148C162.605 270.363 162.545 270.62 162.545 270.92C162.545 271.219 162.605 271.481 162.726 271.707C162.852 271.932 163.014 272.106 163.214 272.226C163.418 272.342 163.633 272.4 163.859 272.4C164.09 272.4 164.305 272.342 164.505 272.226C164.704 272.111 164.864 271.943 164.985 271.723C165.111 271.497 165.174 271.234 165.174 270.935ZM168.155 267.283V273.108H167.258V267.283H168.155ZM169.79 268.196C169.627 268.196 169.491 268.141 169.381 268.031C169.27 267.92 169.215 267.784 169.215 267.621C169.215 267.459 169.27 267.322 169.381 267.212C169.491 267.102 169.627 267.047 169.79 267.047C169.947 267.047 170.081 267.102 170.191 267.212C170.302 267.322 170.357 267.459 170.357 267.621C170.357 267.784 170.302 267.92 170.191 268.031C170.081 268.141 169.947 268.196 169.79 268.196ZM170.231 268.771V273.108H169.333V268.771H170.231ZM171.11 270.92C171.11 270.484 171.199 270.098 171.378 269.762C171.561 269.427 171.808 269.167 172.117 268.983C172.432 268.794 172.781 268.7 173.164 268.7C173.448 268.7 173.726 268.763 173.999 268.889C174.277 269.009 174.497 269.172 174.66 269.377V267.283H175.565V273.108H174.66V272.455C174.513 272.665 174.309 272.838 174.046 272.974C173.789 273.111 173.492 273.179 173.157 273.179C172.779 273.179 172.432 273.084 172.117 272.895C171.808 272.701 171.561 272.434 171.378 272.093C171.199 271.746 171.11 271.355 171.11 270.92ZM174.66 270.935C174.66 270.636 174.597 270.376 174.471 270.156C174.351 269.936 174.19 269.768 173.991 269.652C173.792 269.537 173.576 269.479 173.346 269.479C173.115 269.479 172.899 269.537 172.7 269.652C172.501 269.762 172.338 269.928 172.212 270.148C172.091 270.363 172.031 270.62 172.031 270.92C172.031 271.219 172.091 271.481 172.212 271.707C172.338 271.932 172.501 272.106 172.7 272.226C172.905 272.342 173.12 272.4 173.346 272.4C173.576 272.4 173.792 272.342 173.991 272.226C174.19 272.111 174.351 271.943 174.471 271.723C174.597 271.497 174.66 271.234 174.66 270.935ZM176.445 270.92C176.445 270.484 176.534 270.098 176.713 269.762C176.896 269.427 177.143 269.167 177.453 268.983C177.767 268.794 178.114 268.7 178.492 268.7C178.833 268.7 179.129 268.768 179.381 268.904C179.638 269.036 179.843 269.201 179.995 269.4V268.771H180.901V273.108H179.995V272.463C179.843 272.667 179.636 272.838 179.373 272.974C179.111 273.111 178.812 273.179 178.476 273.179C178.103 273.179 177.762 273.084 177.453 272.895C177.143 272.701 176.896 272.434 176.713 272.093C176.534 271.746 176.445 271.355 176.445 270.92ZM179.995 270.935C179.995 270.636 179.932 270.376 179.806 270.156C179.686 269.936 179.526 269.768 179.326 269.652C179.127 269.537 178.912 269.479 178.681 269.479C178.45 269.479 178.235 269.537 178.035 269.652C177.836 269.762 177.673 269.928 177.547 270.148C177.426 270.363 177.366 270.62 177.366 270.92C177.366 271.219 177.426 271.481 177.547 271.707C177.673 271.932 177.836 272.106 178.035 272.226C178.24 272.342 178.455 272.4 178.681 272.4C178.912 272.4 179.127 272.342 179.326 272.226C179.526 272.111 179.686 271.943 179.806 271.723C179.932 271.497 179.995 271.234 179.995 270.935ZM181.78 270.92C181.78 270.484 181.869 270.098 182.048 269.762C182.231 269.427 182.478 269.167 182.788 268.983C183.103 268.794 183.452 268.7 183.835 268.7C184.118 268.7 184.396 268.763 184.669 268.889C184.947 269.009 185.168 269.172 185.33 269.377V267.283H186.236V273.108H185.33V272.455C185.183 272.665 184.979 272.838 184.716 272.974C184.459 273.111 184.163 273.179 183.827 273.179C183.449 273.179 183.103 273.084 182.788 272.895C182.478 272.701 182.231 272.434 182.048 272.093C181.869 271.746 181.78 271.355 181.78 270.92ZM185.33 270.935C185.33 270.636 185.267 270.376 185.141 270.156C185.021 269.936 184.861 269.768 184.661 269.652C184.462 269.537 184.247 269.479 184.016 269.479C183.785 269.479 183.57 269.537 183.37 269.652C183.171 269.762 183.008 269.928 182.882 270.148C182.762 270.363 182.701 270.62 182.701 270.92C182.701 271.219 182.762 271.481 182.882 271.707C183.008 271.932 183.171 272.106 183.37 272.226C183.575 272.342 183.79 272.4 184.016 272.4C184.247 272.4 184.462 272.342 184.661 272.226C184.861 272.111 185.021 271.943 185.141 271.723C185.267 271.497 185.33 271.234 185.33 270.935ZM191.39 270.833C191.39 270.996 191.379 271.143 191.358 271.274H188.044C188.07 271.62 188.199 271.898 188.43 272.108C188.661 272.318 188.944 272.423 189.28 272.423C189.763 272.423 190.104 272.221 190.303 271.817H191.272C191.14 272.216 190.902 272.544 190.555 272.801C190.214 273.053 189.789 273.179 189.28 273.179C188.865 273.179 188.493 273.087 188.162 272.903C187.837 272.714 187.58 272.452 187.391 272.116C187.207 271.775 187.115 271.381 187.115 270.935C187.115 270.489 187.204 270.098 187.383 269.762C187.567 269.421 187.821 269.159 188.146 268.975C188.477 268.792 188.855 268.7 189.28 268.7C189.689 268.7 190.054 268.789 190.374 268.967C190.694 269.146 190.944 269.398 191.122 269.723C191.301 270.043 191.39 270.413 191.39 270.833ZM190.453 270.55C190.448 270.219 190.33 269.954 190.099 269.755C189.868 269.555 189.582 269.455 189.241 269.455C188.931 269.455 188.666 269.555 188.446 269.755C188.225 269.949 188.094 270.214 188.052 270.55H190.453Z" fill="white"/>
<path d="M156.575 284.316C156.575 282.954 156.803 281.891 157.26 281.128C157.724 280.356 158.519 279.97 159.645 279.97C160.771 279.97 161.562 280.356 162.018 281.128C162.483 281.891 162.715 282.954 162.715 284.316C162.715 285.693 162.483 286.772 162.018 287.551C161.562 288.323 160.771 288.708 159.645 288.708C158.519 288.708 157.724 288.323 157.26 287.551C156.803 286.772 156.575 285.693 156.575 284.316ZM161.393 284.316C161.393 283.678 161.349 283.139 161.263 282.698C161.184 282.257 161.019 281.899 160.767 281.624C160.515 281.34 160.141 281.199 159.645 281.199C159.149 281.199 158.775 281.34 158.523 281.624C158.271 281.899 158.102 282.257 158.015 282.698C157.937 283.139 157.897 283.678 157.897 284.316C157.897 284.977 157.937 285.532 158.015 285.981C158.094 286.429 158.26 286.792 158.511 287.067C158.771 287.343 159.149 287.48 159.645 287.48C160.141 287.48 160.515 287.343 160.767 287.067C161.027 286.792 161.196 286.429 161.274 285.981C161.353 285.532 161.393 284.977 161.393 284.316ZM165.816 286.394C165.895 286.788 166.064 287.087 166.324 287.291C166.584 287.496 166.934 287.598 167.375 287.598C167.934 287.598 168.343 287.378 168.603 286.937C168.863 286.496 168.992 285.745 168.992 284.682C168.804 284.95 168.536 285.158 168.19 285.308C167.851 285.449 167.481 285.52 167.08 285.52C166.568 285.52 166.103 285.418 165.686 285.213C165.269 285.001 164.938 284.69 164.694 284.28C164.458 283.863 164.34 283.359 164.34 282.769C164.34 281.903 164.592 281.214 165.096 280.703C165.608 280.183 166.308 279.923 167.198 279.923C168.268 279.923 169.028 280.281 169.477 280.998C169.933 281.706 170.161 282.797 170.161 284.269C170.161 285.284 170.075 286.115 169.902 286.76C169.736 287.406 169.445 287.894 169.028 288.224C168.611 288.555 168.032 288.72 167.292 288.72C166.45 288.72 165.8 288.5 165.344 288.059C164.887 287.618 164.631 287.063 164.576 286.394H165.816ZM167.316 284.387C167.788 284.387 168.158 284.241 168.426 283.95C168.701 283.651 168.839 283.257 168.839 282.769C168.839 282.226 168.693 281.805 168.402 281.506C168.119 281.199 167.729 281.045 167.233 281.045C166.737 281.045 166.344 281.202 166.052 281.517C165.769 281.824 165.627 282.23 165.627 282.734C165.627 283.214 165.765 283.611 166.04 283.926C166.324 284.233 166.749 284.387 167.316 284.387ZM176.181 277.585L172.969 290.798H171.647L174.846 277.585H176.181ZM178.444 286.902C179.2 286.248 179.794 285.713 180.227 285.296C180.668 284.871 181.034 284.43 181.325 283.973C181.616 283.517 181.762 283.06 181.762 282.604C181.762 282.131 181.648 281.761 181.42 281.494C181.199 281.226 180.849 281.092 180.369 281.092C179.904 281.092 179.542 281.242 179.282 281.541C179.031 281.832 178.897 282.226 178.881 282.722H177.582C177.606 281.824 177.873 281.139 178.385 280.667C178.905 280.187 179.562 279.947 180.357 279.947C181.215 279.947 181.884 280.183 182.364 280.655C182.852 281.128 183.096 281.757 183.096 282.545C183.096 283.111 182.951 283.659 182.66 284.186C182.376 284.705 182.034 285.174 181.632 285.591C181.239 286 180.735 286.477 180.121 287.02L179.589 287.492H183.333V288.614H177.594V287.634L178.444 286.902ZM185.968 284.233C185.149 283.824 184.739 283.178 184.739 282.297C184.739 281.872 184.846 281.482 185.058 281.128C185.271 280.773 185.59 280.494 186.015 280.289C186.44 280.077 186.959 279.97 187.573 279.97C188.18 279.97 188.695 280.077 189.12 280.289C189.553 280.494 189.876 280.773 190.089 281.128C190.301 281.482 190.407 281.872 190.407 282.297C190.407 282.737 190.293 283.127 190.065 283.466C189.844 283.796 189.549 284.052 189.179 284.233C189.628 284.398 189.982 284.67 190.242 285.048C190.502 285.418 190.632 285.855 190.632 286.359C190.632 286.87 190.502 287.323 190.242 287.717C189.982 288.11 189.62 288.413 189.156 288.626C188.691 288.838 188.164 288.945 187.573 288.945C186.983 288.945 186.456 288.838 185.991 288.626C185.535 288.413 185.176 288.11 184.917 287.717C184.657 287.323 184.527 286.87 184.527 286.359C184.527 285.847 184.657 285.406 184.917 285.036C185.176 284.666 185.527 284.398 185.968 284.233ZM189.12 282.462C189.12 282.021 188.982 281.683 188.707 281.446C188.431 281.21 188.054 281.092 187.573 281.092C187.101 281.092 186.727 281.21 186.452 281.446C186.176 281.683 186.038 282.025 186.038 282.474C186.038 282.867 186.18 283.19 186.463 283.442C186.755 283.686 187.125 283.808 187.573 283.808C188.022 283.808 188.392 283.682 188.683 283.43C188.975 283.178 189.12 282.856 189.12 282.462ZM187.573 284.824C187.054 284.824 186.629 284.953 186.298 285.213C185.975 285.465 185.814 285.831 185.814 286.311C185.814 286.76 185.971 287.126 186.286 287.41C186.601 287.685 187.03 287.823 187.573 287.823C188.109 287.823 188.53 287.681 188.837 287.398C189.152 287.114 189.309 286.752 189.309 286.311C189.309 285.839 189.148 285.473 188.825 285.213C188.51 284.953 188.093 284.824 187.573 284.824Z" fill="white"/>
<g filter="url(#filter0_b_193_2303)">
<ellipse cx="301.801" cy="278.675" rx="12.2388" ry="12.2388" fill="#FAFAFA" fill-opacity="0.3"/>
</g>
<g filter="url(#filter1_b_193_2303)">
<path d="M329.216 278.675C329.216 285.435 323.736 290.914 316.977 290.914C310.218 290.914 304.738 285.435 304.738 278.675C304.738 271.916 310.218 266.436 316.977 266.436C323.736 266.436 329.216 271.916 329.216 278.675Z" fill="#FAFAFA" fill-opacity="0.7"/>
</g>
<g filter="url(#filter2_b_193_2303)">
<path d="M309.389 269.072C306.556 271.314 304.738 274.782 304.738 278.675C304.738 282.568 306.556 286.037 309.389 288.278C312.222 286.037 314.04 282.568 314.04 278.675C314.04 274.782 312.222 271.314 309.389 269.072Z" fill="#FAFAFA" fill-opacity="0.6"/>
</g>
</g>
<defs>
<filter id="filter0_b_193_2303" x="256.762" y="233.636" width="90.0776" height="90.0776" filterUnits="userSpaceOnUse" color-interpolation-filters="sRGB">
<feFlood flood-opacity="0" result="BackgroundImageFix"/>
<feGaussianBlur in="BackgroundImageFix" stdDeviation="16.4"/>
<feComposite in2="SourceAlpha" operator="in" result="effect1_backgroundBlur_193_2303"/>
<feBlend mode="normal" in="SourceGraphic" in2="effect1_backgroundBlur_193_2303" result="shape"/>
</filter>
<filter id="filter1_b_193_2303" x="271.938" y="233.636" width="90.0776" height="90.0776" filterUnits="userSpaceOnUse" color-interpolation-filters="sRGB">
<feFlood flood-opacity="0" result="BackgroundImageFix"/>
<feGaussianBlur in="BackgroundImageFix" stdDeviation="16.4"/>
<feComposite in2="SourceAlpha" operator="in" result="effect1_backgroundBlur_193_2303"/>
<feBlend mode="normal" in="SourceGraphic" in2="effect1_backgroundBlur_193_2303" result="shape"/>
</filter>
<filter id="filter2_b_193_2303" x="271.938" y="236.272" width="74.9015" height="84.8064" filterUnits="userSpaceOnUse" color-interpolation-filters="sRGB">
<feFlood flood-opacity="0" result="BackgroundImageFix"/>
<feGaussianBlur in="BackgroundImageFix" stdDeviation="16.4"/>
<feComposite in2="SourceAlpha" operator="in" result="effect1_backgroundBlur_193_2303"/>
<feBlend mode="normal" in="SourceGraphic" in2="effect1_backgroundBlur_193_2303" result="shape"/>
</filter>
<linearGradient id="paint0_linear_193_2303" x1="-5.736" y1="105.4" x2="400.157" y2="340.07" gradientUnits="userSpaceOnUse">
<stop stop-color="#500DC3"/>
<stop offset="1" stop-color="#7C3AFC"/>
</linearGradient>
<clipPath id="clip0_193_2303">
<path d="M0 24.4776C0 11.2228 10.7452 0.477615 24 0.477615H366C379.255 0.477615 390 11.2228 390 24.4776V395H0V24.4776Z" fill="white"/>
</clipPath>
<clipPath id="clip1_193_2303">
<rect width="20.992" height="20.992" fill="white" transform="translate(310.128 151)"/>
</clipPath>
</defs>
</svg>
