<svg width="586" height="834" viewBox="0 0 586 834" fill="none" xmlns="http://www.w3.org/2000/svg">
<g filter="url(#filter0_dddd_193_2365)">
<path d="M103 43.7052C103 30.4504 113.745 19.7052 127 19.7052H459C472.255 19.7052 483 30.4504 483 43.7052V473.007H103V43.7052Z" fill="white"/>
<path d="M147.828 99H160V101H147.828L153.192 106.364L151.778 107.778L144 100L151.778 92.222L153.192 93.636L147.828 99Z" fill="#475569"/>
<path d="M259.24 100.02C259.24 98.66 259.553 97.44 260.18 96.36C260.82 95.28 261.68 94.44 262.76 93.84C263.853 93.2267 265.047 92.92 266.34 92.92C267.82 92.92 269.133 93.2867 270.28 94.02C271.44 94.74 272.28 95.7667 272.8 97.1H270.06C269.7 96.3667 269.2 95.82 268.56 95.46C267.92 95.1 267.18 94.92 266.34 94.92C265.42 94.92 264.6 95.1267 263.88 95.54C263.16 95.9533 262.593 96.5467 262.18 97.32C261.78 98.0933 261.58 98.9933 261.58 100.02C261.58 101.047 261.78 101.947 262.18 102.72C262.593 103.493 263.16 104.093 263.88 104.52C264.6 104.933 265.42 105.14 266.34 105.14C267.18 105.14 267.92 104.96 268.56 104.6C269.2 104.24 269.7 103.693 270.06 102.96H272.8C272.28 104.293 271.44 105.32 270.28 106.04C269.133 106.76 267.82 107.12 266.34 107.12C265.033 107.12 263.84 106.82 262.76 106.22C261.68 105.607 260.82 104.76 260.18 103.68C259.553 102.6 259.24 101.38 259.24 100.02ZM274.109 101.44C274.109 100.333 274.335 99.3533 274.789 98.5C275.255 97.6467 275.882 96.9867 276.669 96.52C277.469 96.04 278.349 95.8 279.309 95.8C280.175 95.8 280.929 95.9733 281.569 96.32C282.222 96.6533 282.742 97.0733 283.129 97.58V95.98H285.429V107H283.129V105.36C282.742 105.88 282.215 106.313 281.549 106.66C280.882 107.007 280.122 107.18 279.269 107.18C278.322 107.18 277.455 106.94 276.669 106.46C275.882 105.967 275.255 105.287 274.789 104.42C274.335 103.54 274.109 102.547 274.109 101.44ZM283.129 101.48C283.129 100.72 282.969 100.06 282.649 99.5C282.342 98.94 281.935 98.5133 281.429 98.22C280.922 97.9267 280.375 97.78 279.789 97.78C279.202 97.78 278.655 97.9267 278.149 98.22C277.642 98.5 277.229 98.92 276.909 99.48C276.602 100.027 276.449 100.68 276.449 101.44C276.449 102.2 276.602 102.867 276.909 103.44C277.229 104.013 277.642 104.453 278.149 104.76C278.669 105.053 279.215 105.2 279.789 105.2C280.375 105.2 280.922 105.053 281.429 104.76C281.935 104.467 282.342 104.04 282.649 103.48C282.969 102.907 283.129 102.24 283.129 101.48ZM290.103 97.58C290.437 97.02 290.877 96.5867 291.423 96.28C291.983 95.96 292.643 95.8 293.403 95.8V98.16H292.823C291.93 98.16 291.25 98.3867 290.783 98.84C290.33 99.2933 290.103 100.08 290.103 101.2V107H287.823V95.98H290.103V97.58ZM297.559 97.84V103.94C297.559 104.353 297.653 104.653 297.839 104.84C298.039 105.013 298.373 105.1 298.839 105.1H300.239V107H298.439C297.413 107 296.626 106.76 296.079 106.28C295.533 105.8 295.259 105.02 295.259 103.94V97.84H293.959V95.98H295.259V93.24H297.559V95.98H300.239V97.84H297.559ZM300.981 101.44C300.981 100.333 301.207 99.3533 301.661 98.5C302.127 97.6467 302.754 96.9867 303.541 96.52C304.341 96.04 305.221 95.8 306.181 95.8C307.047 95.8 307.801 95.9733 308.441 96.32C309.094 96.6533 309.614 97.0733 310.001 97.58V95.98H312.301V107H310.001V105.36C309.614 105.88 309.087 106.313 308.421 106.66C307.754 107.007 306.994 107.18 306.141 107.18C305.194 107.18 304.327 106.94 303.541 106.46C302.754 105.967 302.127 105.287 301.661 104.42C301.207 103.54 300.981 102.547 300.981 101.44ZM310.001 101.48C310.001 100.72 309.841 100.06 309.521 99.5C309.214 98.94 308.807 98.5133 308.301 98.22C307.794 97.9267 307.247 97.78 306.661 97.78C306.074 97.78 305.527 97.9267 305.021 98.22C304.514 98.5 304.101 98.92 303.781 99.48C303.474 100.027 303.321 100.68 303.321 101.44C303.321 102.2 303.474 102.867 303.781 103.44C304.101 104.013 304.514 104.453 305.021 104.76C305.541 105.053 306.087 105.2 306.661 105.2C307.247 105.2 307.794 105.053 308.301 104.76C308.807 104.467 309.214 104.04 309.521 103.48C309.841 102.907 310.001 102.24 310.001 101.48ZM303.761 94.84C303.867 94.0667 304.121 93.4867 304.521 93.1C304.921 92.7 305.421 92.5 306.021 92.5C306.274 92.5 306.494 92.54 306.681 92.62C306.867 92.7 307.094 92.82 307.361 92.98C307.561 93.1133 307.727 93.2133 307.861 93.28C308.007 93.3467 308.167 93.38 308.341 93.38C308.567 93.38 308.754 93.3133 308.901 93.18C309.061 93.0333 309.161 92.82 309.201 92.54H310.481C310.374 93.3133 310.121 93.9 309.721 94.3C309.321 94.6867 308.821 94.88 308.221 94.88C307.967 94.88 307.741 94.84 307.541 94.76C307.341 94.6667 307.121 94.54 306.881 94.38C306.641 94.2333 306.454 94.1333 306.321 94.08C306.201 94.0133 306.061 93.98 305.901 93.98C305.674 93.98 305.481 94.0533 305.321 94.2C305.174 94.3467 305.081 94.56 305.041 94.84H303.761ZM319.475 107.18C318.435 107.18 317.495 106.947 316.655 106.48C315.815 106 315.155 105.333 314.675 104.48C314.195 103.613 313.955 102.613 313.955 101.48C313.955 100.36 314.202 99.3667 314.695 98.5C315.189 97.6333 315.862 96.9667 316.715 96.5C317.569 96.0333 318.522 95.8 319.575 95.8C320.629 95.8 321.582 96.0333 322.435 96.5C323.289 96.9667 323.962 97.6333 324.455 98.5C324.949 99.3667 325.195 100.36 325.195 101.48C325.195 102.6 324.942 103.593 324.435 104.46C323.929 105.327 323.235 106 322.355 106.48C321.489 106.947 320.529 107.18 319.475 107.18ZM319.475 105.2C320.062 105.2 320.609 105.06 321.115 104.78C321.635 104.5 322.055 104.08 322.375 103.52C322.695 102.96 322.855 102.28 322.855 101.48C322.855 100.68 322.702 100.007 322.395 99.46C322.089 98.9 321.682 98.48 321.175 98.2C320.669 97.92 320.122 97.78 319.535 97.78C318.949 97.78 318.402 97.92 317.895 98.2C317.402 98.48 317.009 98.9 316.715 99.46C316.422 100.007 316.275 100.68 316.275 101.48C316.275 102.667 316.575 103.587 317.175 104.24C317.789 104.88 318.555 105.2 319.475 105.2Z" fill="#475569"/>
<path d="M430.09 97C430.325 96.3317 430.789 95.7681 431.4 95.4091C432.011 95.0502 432.729 94.9189 433.427 95.0387C434.125 95.1585 434.759 95.5215 435.215 96.0635C435.671 96.6055 435.921 97.2915 435.92 98C435.92 100 432.92 101 432.92 101M433 105H433.01M443 100C443 105.523 438.523 110 433 110C427.477 110 423 105.523 423 100C423 94.4772 427.477 90 433 90C438.523 90 443 94.4772 443 100Z" stroke="#475569" stroke-width="2" stroke-linecap="round" stroke-linejoin="round"/>
<rect x="145" y="348" width="40" height="40" rx="6" fill="#F3F2FF"/>
<g clip-path="url(#clip0_193_2365)">
<path d="M165 371.667V368M165 364.333H165.009M174.167 368C174.167 373.063 170.063 377.167 165 377.167C159.937 377.167 155.833 373.063 155.833 368C155.833 362.937 159.937 358.833 165 358.833C170.063 358.833 174.167 362.937 174.167 368Z" stroke="#6729FF" stroke-width="1.83333" stroke-linecap="round" stroke-linejoin="round"/>
</g>
<path d="M141.624 401.66C142.512 401.66 143.288 401.832 143.952 402.176C144.624 402.512 145.14 403 145.5 403.64C145.868 404.272 146.052 405.012 146.052 405.86C146.052 406.708 145.868 407.444 145.5 408.068C145.14 408.692 144.624 409.172 143.952 409.508C143.288 409.836 142.512 410 141.624 410H138.9V401.66H141.624ZM141.624 408.884C142.6 408.884 143.348 408.62 143.868 408.092C144.388 407.564 144.648 406.82 144.648 405.86C144.648 404.892 144.388 404.136 143.868 403.592C143.348 403.048 142.6 402.776 141.624 402.776H140.268V408.884H141.624ZM153.468 406.532C153.468 406.78 153.452 407.004 153.42 407.204H148.368C148.408 407.732 148.604 408.156 148.956 408.476C149.308 408.796 149.74 408.956 150.252 408.956C150.988 408.956 151.508 408.648 151.812 408.032H153.288C153.088 408.64 152.724 409.14 152.196 409.532C151.676 409.916 151.028 410.108 150.252 410.108C149.62 410.108 149.052 409.968 148.548 409.688C148.052 409.4 147.66 409 147.372 408.488C147.092 407.968 146.952 407.368 146.952 406.688C146.952 406.008 147.088 405.412 147.36 404.9C147.64 404.38 148.028 403.98 148.524 403.7C149.028 403.42 149.604 403.28 150.252 403.28C150.876 403.28 151.432 403.416 151.92 403.688C152.408 403.96 152.788 404.344 153.06 404.84C153.332 405.328 153.468 405.892 153.468 406.532ZM152.04 406.1C152.032 405.596 151.852 405.192 151.5 404.888C151.148 404.584 150.712 404.432 150.192 404.432C149.72 404.432 149.316 404.584 148.98 404.888C148.644 405.184 148.444 405.588 148.38 406.1H152.04ZM156.41 404.504V408.164C156.41 408.412 156.466 408.592 156.578 408.704C156.698 408.808 156.898 408.86 157.178 408.86H158.018V410H156.938C156.322 410 155.85 409.856 155.522 409.568C155.194 409.28 155.03 408.812 155.03 408.164V404.504H154.25V403.388H155.03V401.744H156.41V403.388H158.018V404.504H156.41ZM158.823 406.664C158.823 406 158.959 405.412 159.231 404.9C159.511 404.388 159.887 403.992 160.359 403.712C160.839 403.424 161.367 403.28 161.943 403.28C162.463 403.28 162.915 403.384 163.299 403.592C163.691 403.792 164.003 404.044 164.235 404.348V403.388H165.615V410H164.235V409.016C164.003 409.328 163.687 409.588 163.287 409.796C162.887 410.004 162.431 410.108 161.919 410.108C161.351 410.108 160.831 409.964 160.359 409.676C159.887 409.38 159.511 408.972 159.231 408.452C158.959 407.924 158.823 407.328 158.823 406.664ZM164.235 406.688C164.235 406.232 164.139 405.836 163.947 405.5C163.763 405.164 163.519 404.908 163.215 404.732C162.911 404.556 162.583 404.468 162.231 404.468C161.879 404.468 161.551 404.556 161.247 404.732C160.943 404.9 160.695 405.152 160.503 405.488C160.319 405.816 160.227 406.208 160.227 406.664C160.227 407.12 160.319 407.52 160.503 407.864C160.695 408.208 160.943 408.472 161.247 408.656C161.559 408.832 161.887 408.92 162.231 408.92C162.583 408.92 162.911 408.832 163.215 408.656C163.519 408.48 163.763 408.224 163.947 407.888C164.139 407.544 164.235 407.144 164.235 406.688ZM168.78 401.12V410H167.412V401.12H168.78ZM173.996 403.28C174.5 403.28 174.948 403.388 175.34 403.604C175.74 403.82 176.052 404.14 176.276 404.564C176.508 404.988 176.624 405.5 176.624 406.1V410H175.268V406.304C175.268 405.712 175.12 405.26 174.824 404.948C174.528 404.628 174.124 404.468 173.612 404.468C173.1 404.468 172.692 404.628 172.388 404.948C172.092 405.26 171.944 405.712 171.944 406.304V410H170.576V401.12H171.944V404.156C172.176 403.876 172.468 403.66 172.82 403.508C173.18 403.356 173.572 403.28 173.996 403.28ZM184.429 406.532C184.429 406.78 184.413 407.004 184.381 407.204H179.329C179.369 407.732 179.565 408.156 179.917 408.476C180.269 408.796 180.701 408.956 181.213 408.956C181.949 408.956 182.469 408.648 182.773 408.032H184.249C184.049 408.64 183.685 409.14 183.157 409.532C182.637 409.916 181.989 410.108 181.213 410.108C180.581 410.108 180.013 409.968 179.509 409.688C179.013 409.4 178.621 409 178.333 408.488C178.053 407.968 177.913 407.368 177.913 406.688C177.913 406.008 178.049 405.412 178.321 404.9C178.601 404.38 178.989 403.98 179.485 403.7C179.989 403.42 180.565 403.28 181.213 403.28C181.837 403.28 182.393 403.416 182.881 403.688C183.369 403.96 183.749 404.344 184.021 404.84C184.293 405.328 184.429 405.892 184.429 406.532ZM183.001 406.1C182.993 405.596 182.813 405.192 182.461 404.888C182.109 404.584 181.673 404.432 181.153 404.432C180.681 404.432 180.277 404.584 179.941 404.888C179.605 405.184 179.405 405.588 179.341 406.1H183.001ZM188.175 410.108C187.655 410.108 187.187 410.016 186.771 409.832C186.363 409.64 186.039 409.384 185.799 409.064C185.559 408.736 185.431 408.372 185.415 407.972H186.831C186.855 408.252 186.987 408.488 187.227 408.68C187.475 408.864 187.783 408.956 188.151 408.956C188.535 408.956 188.831 408.884 189.039 408.74C189.255 408.588 189.363 408.396 189.363 408.164C189.363 407.916 189.243 407.732 189.003 407.612C188.771 407.492 188.399 407.36 187.887 407.216C187.391 407.08 186.987 406.948 186.675 406.82C186.363 406.692 186.091 406.496 185.859 406.232C185.635 405.968 185.523 405.62 185.523 405.188C185.523 404.836 185.627 404.516 185.835 404.228C186.043 403.932 186.339 403.7 186.723 403.532C187.115 403.364 187.563 403.28 188.067 403.28C188.819 403.28 189.423 403.472 189.879 403.856C190.343 404.232 190.591 404.748 190.623 405.404H189.255C189.231 405.108 189.111 404.872 188.895 404.696C188.679 404.52 188.387 404.432 188.019 404.432C187.659 404.432 187.383 404.5 187.191 404.636C186.999 404.772 186.903 404.952 186.903 405.176C186.903 405.352 186.967 405.5 187.095 405.62C187.223 405.74 187.379 405.836 187.563 405.908C187.747 405.972 188.019 406.056 188.379 406.16C188.859 406.288 189.251 406.42 189.555 406.556C189.867 406.684 190.135 406.876 190.359 407.132C190.583 407.388 190.699 407.728 190.707 408.152C190.707 408.528 190.603 408.864 190.395 409.16C190.187 409.456 189.891 409.688 189.507 409.856C189.131 410.024 188.687 410.108 188.175 410.108Z" fill="#94A3B8"/>
<rect x="234.5" y="348" width="40" height="40" rx="6" fill="#F3F2FF"/>
<path d="M249.917 367.083V363.417C249.917 362.201 250.4 361.035 251.259 360.176C252.119 359.316 253.284 358.833 254.5 358.833C255.716 358.833 256.881 359.316 257.741 360.176C258.6 361.035 259.083 362.201 259.083 363.417V367.083M248.083 367.083H260.917C261.929 367.083 262.75 367.904 262.75 368.917V375.333C262.75 376.346 261.929 377.167 260.917 377.167H248.083C247.071 377.167 246.25 376.346 246.25 375.333V368.917C246.25 367.904 247.071 367.083 248.083 367.083Z" stroke="#6729FF" stroke-width="1.83333" stroke-linecap="round" stroke-linejoin="round"/>
<path d="M233.364 405.716C233.812 405.796 234.192 406.032 234.504 406.424C234.816 406.816 234.972 407.26 234.972 407.756C234.972 408.18 234.86 408.564 234.636 408.908C234.42 409.244 234.104 409.512 233.688 409.712C233.272 409.904 232.788 410 232.236 410H228.9V401.66H232.08C232.648 401.66 233.136 401.756 233.544 401.948C233.952 402.14 234.26 402.4 234.468 402.728C234.676 403.048 234.78 403.408 234.78 403.808C234.78 404.288 234.652 404.688 234.396 405.008C234.14 405.328 233.796 405.564 233.364 405.716ZM230.268 405.164H231.96C232.408 405.164 232.756 405.064 233.004 404.864C233.26 404.656 233.388 404.36 233.388 403.976C233.388 403.6 233.26 403.308 233.004 403.1C232.756 402.884 232.408 402.776 231.96 402.776H230.268V405.164ZM232.116 408.884C232.58 408.884 232.944 408.772 233.208 408.548C233.472 408.324 233.604 408.012 233.604 407.612C233.604 407.204 233.464 406.88 233.184 406.64C232.904 406.4 232.532 406.28 232.068 406.28H230.268V408.884H232.116ZM237.827 401.12V410H236.459V401.12H237.827ZM242.491 410.108C241.867 410.108 241.303 409.968 240.799 409.688C240.295 409.4 239.899 409 239.611 408.488C239.323 407.968 239.179 407.368 239.179 406.688C239.179 406.016 239.327 405.42 239.623 404.9C239.919 404.38 240.323 403.98 240.835 403.7C241.347 403.42 241.919 403.28 242.551 403.28C243.183 403.28 243.755 403.42 244.267 403.7C244.779 403.98 245.183 404.38 245.479 404.9C245.775 405.42 245.923 406.016 245.923 406.688C245.923 407.36 245.771 407.956 245.467 408.476C245.163 408.996 244.747 409.4 244.219 409.688C243.699 409.968 243.123 410.108 242.491 410.108ZM242.491 408.92C242.843 408.92 243.171 408.836 243.475 408.668C243.787 408.5 244.039 408.248 244.231 407.912C244.423 407.576 244.519 407.168 244.519 406.688C244.519 406.208 244.427 405.804 244.243 405.476C244.059 405.14 243.815 404.888 243.511 404.72C243.207 404.552 242.879 404.468 242.527 404.468C242.175 404.468 241.847 404.552 241.543 404.72C241.247 404.888 241.011 405.14 240.835 405.476C240.659 405.804 240.571 406.208 240.571 406.688C240.571 407.4 240.751 407.952 241.111 408.344C241.479 408.728 241.939 408.92 242.491 408.92ZM246.819 406.664C246.819 406 246.955 405.412 247.227 404.9C247.507 404.388 247.883 403.992 248.355 403.712C248.835 403.424 249.367 403.28 249.951 403.28C250.463 403.28 250.915 403.384 251.307 403.592C251.707 403.8 252.015 404.052 252.231 404.348V403.388H253.611V413.144H252.231V409.04C252.015 409.336 251.703 409.588 251.295 409.796C250.887 410.004 250.423 410.108 249.903 410.108C249.335 410.108 248.815 409.964 248.343 409.676C247.879 409.38 247.507 408.972 247.227 408.452C246.955 407.924 246.819 407.328 246.819 406.664ZM252.231 406.688C252.231 406.232 252.135 405.836 251.943 405.5C251.759 405.164 251.515 404.908 251.211 404.732C250.907 404.556 250.579 404.468 250.227 404.468C249.875 404.468 249.547 404.556 249.243 404.732C248.939 404.9 248.691 405.152 248.499 405.488C248.315 405.816 248.223 406.208 248.223 406.664C248.223 407.12 248.315 407.52 248.499 407.864C248.691 408.208 248.939 408.472 249.243 408.656C249.555 408.832 249.883 408.92 250.227 408.92C250.579 408.92 250.907 408.832 251.211 408.656C251.515 408.48 251.759 408.224 251.943 407.888C252.135 407.544 252.231 407.144 252.231 406.688ZM261.396 403.388V410H260.028V409.22C259.812 409.492 259.528 409.708 259.176 409.868C258.832 410.02 258.464 410.096 258.072 410.096C257.552 410.096 257.084 409.988 256.668 409.772C256.26 409.556 255.936 409.236 255.696 408.812C255.464 408.388 255.348 407.876 255.348 407.276V403.388H256.704V407.072C256.704 407.664 256.852 408.12 257.148 408.44C257.444 408.752 257.848 408.908 258.36 408.908C258.872 408.908 259.276 408.752 259.572 408.44C259.876 408.12 260.028 407.664 260.028 407.072V403.388H261.396ZM269.261 406.532C269.261 406.78 269.245 407.004 269.213 407.204H264.161C264.201 407.732 264.397 408.156 264.749 408.476C265.101 408.796 265.533 408.956 266.045 408.956C266.781 408.956 267.301 408.648 267.605 408.032H269.081C268.881 408.64 268.517 409.14 267.989 409.532C267.469 409.916 266.821 410.108 266.045 410.108C265.413 410.108 264.845 409.968 264.341 409.688C263.845 409.4 263.453 409 263.165 408.488C262.885 407.968 262.745 407.368 262.745 406.688C262.745 406.008 262.881 405.412 263.153 404.9C263.433 404.38 263.821 403.98 264.317 403.7C264.821 403.42 265.397 403.28 266.045 403.28C266.669 403.28 267.225 403.416 267.713 403.688C268.201 403.96 268.581 404.344 268.853 404.84C269.125 405.328 269.261 405.892 269.261 406.532ZM267.833 406.1C267.825 405.596 267.645 405.192 267.293 404.888C266.941 404.584 266.505 404.432 265.985 404.432C265.513 404.432 265.109 404.584 264.773 404.888C264.437 405.184 264.237 405.588 264.173 406.1H267.833ZM271.303 402.512C271.055 402.512 270.847 402.428 270.679 402.26C270.511 402.092 270.427 401.884 270.427 401.636C270.427 401.388 270.511 401.18 270.679 401.012C270.847 400.844 271.055 400.76 271.303 400.76C271.543 400.76 271.747 400.844 271.915 401.012C272.083 401.18 272.167 401.388 272.167 401.636C272.167 401.884 272.083 402.092 271.915 402.26C271.747 402.428 271.543 402.512 271.303 402.512ZM271.975 403.388V410H270.607V403.388H271.975ZM276.639 410.108C276.015 410.108 275.451 409.968 274.947 409.688C274.443 409.4 274.047 409 273.759 408.488C273.471 407.968 273.327 407.368 273.327 406.688C273.327 406.016 273.475 405.42 273.771 404.9C274.067 404.38 274.471 403.98 274.983 403.7C275.495 403.42 276.067 403.28 276.699 403.28C277.331 403.28 277.903 403.42 278.415 403.7C278.927 403.98 279.331 404.38 279.627 404.9C279.923 405.42 280.071 406.016 280.071 406.688C280.071 407.36 279.919 407.956 279.615 408.476C279.311 408.996 278.895 409.4 278.367 409.688C277.847 409.968 277.271 410.108 276.639 410.108ZM276.639 408.92C276.991 408.92 277.319 408.836 277.623 408.668C277.935 408.5 278.187 408.248 278.379 407.912C278.571 407.576 278.667 407.168 278.667 406.688C278.667 406.208 278.575 405.804 278.391 405.476C278.207 405.14 277.963 404.888 277.659 404.72C277.355 404.552 277.027 404.468 276.675 404.468C276.323 404.468 275.995 404.552 275.691 404.72C275.395 404.888 275.159 405.14 274.983 405.476C274.807 405.804 274.719 406.208 274.719 406.688C274.719 407.4 274.899 407.952 275.259 408.344C275.627 408.728 276.087 408.92 276.639 408.92Z" fill="#94A3B8"/>
<rect x="324.5" y="348" width="40" height="40" rx="6" fill="#F3F2FF"/>
<path d="M344.5 375.333H344.509M335.333 365.085C337.854 362.83 341.118 361.584 344.5 361.584C347.882 361.584 351.146 362.83 353.667 365.085M338.083 368.787C339.797 367.108 342.101 366.167 344.5 366.167C346.899 366.167 349.203 367.108 350.917 368.787M341.292 372.06C342.148 371.22 343.3 370.75 344.5 370.75C345.7 370.75 346.852 371.22 347.708 372.06" stroke="#6729FF" stroke-width="1.83333" stroke-linecap="round" stroke-linejoin="round"/>
<path d="M322.928 408.296H319.436L318.836 410H317.408L320.396 401.648H321.98L324.968 410H323.528L322.928 408.296ZM322.544 407.18L321.188 403.304L319.82 407.18H322.544ZM327.635 404.348C327.835 404.012 328.099 403.752 328.427 403.568C328.763 403.376 329.159 403.28 329.615 403.28V404.696H329.267C328.731 404.696 328.323 404.832 328.043 405.104C327.771 405.376 327.635 405.848 327.635 406.52V410H326.267V403.388H327.635V404.348ZM333.741 410.108C333.117 410.108 332.553 409.968 332.049 409.688C331.545 409.4 331.149 409 330.861 408.488C330.573 407.968 330.429 407.368 330.429 406.688C330.429 406.016 330.577 405.42 330.873 404.9C331.169 404.38 331.573 403.98 332.085 403.7C332.597 403.42 333.169 403.28 333.801 403.28C334.433 403.28 335.005 403.42 335.517 403.7C336.029 403.98 336.433 404.38 336.729 404.9C337.025 405.42 337.173 406.016 337.173 406.688C337.173 407.36 337.021 407.956 336.717 408.476C336.413 408.996 335.997 409.4 335.469 409.688C334.949 409.968 334.373 410.108 333.741 410.108ZM333.741 408.92C334.093 408.92 334.421 408.836 334.725 408.668C335.037 408.5 335.289 408.248 335.481 407.912C335.673 407.576 335.769 407.168 335.769 406.688C335.769 406.208 335.677 405.804 335.493 405.476C335.309 405.14 335.065 404.888 334.761 404.72C334.457 404.552 334.129 404.468 333.777 404.468C333.425 404.468 333.097 404.552 332.793 404.72C332.497 404.888 332.261 405.14 332.085 405.476C331.909 405.804 331.821 406.208 331.821 406.688C331.821 407.4 332.001 407.952 332.361 408.344C332.729 408.728 333.189 408.92 333.741 408.92ZM341.357 406.652L343.493 410H341.945L340.517 407.756L339.173 410H337.745L339.881 406.748L337.745 403.388H339.293L340.721 405.632L342.065 403.388H343.493L341.357 406.652ZM345.209 402.512C344.961 402.512 344.753 402.428 344.585 402.26C344.417 402.092 344.333 401.884 344.333 401.636C344.333 401.388 344.417 401.18 344.585 401.012C344.753 400.844 344.961 400.76 345.209 400.76C345.449 400.76 345.653 400.844 345.821 401.012C345.989 401.18 346.073 401.388 346.073 401.636C346.073 401.884 345.989 402.092 345.821 402.26C345.653 402.428 345.449 402.512 345.209 402.512ZM345.881 403.388V410H344.513V403.388H345.881ZM355.681 403.28C356.201 403.28 356.665 403.388 357.073 403.604C357.489 403.82 357.813 404.14 358.045 404.564C358.285 404.988 358.405 405.5 358.405 406.1V410H357.049V406.304C357.049 405.712 356.901 405.26 356.605 404.948C356.309 404.628 355.905 404.468 355.393 404.468C354.881 404.468 354.473 404.628 354.169 404.948C353.873 405.26 353.725 405.712 353.725 406.304V410H352.369V406.304C352.369 405.712 352.221 405.26 351.925 404.948C351.629 404.628 351.225 404.468 350.713 404.468C350.201 404.468 349.793 404.628 349.489 404.948C349.193 405.26 349.045 405.712 349.045 406.304V410H347.677V403.388H349.045V404.144C349.269 403.872 349.553 403.66 349.897 403.508C350.241 403.356 350.609 403.28 351.001 403.28C351.529 403.28 352.001 403.392 352.417 403.616C352.833 403.84 353.153 404.164 353.377 404.588C353.577 404.188 353.889 403.872 354.313 403.64C354.737 403.4 355.193 403.28 355.681 403.28ZM359.69 406.664C359.69 406 359.826 405.412 360.098 404.9C360.378 404.388 360.754 403.992 361.226 403.712C361.706 403.424 362.234 403.28 362.81 403.28C363.33 403.28 363.782 403.384 364.166 403.592C364.558 403.792 364.87 404.044 365.102 404.348V403.388H366.482V410H365.102V409.016C364.87 409.328 364.554 409.588 364.154 409.796C363.754 410.004 363.298 410.108 362.786 410.108C362.218 410.108 361.698 409.964 361.226 409.676C360.754 409.38 360.378 408.972 360.098 408.452C359.826 407.924 359.69 407.328 359.69 406.664ZM365.102 406.688C365.102 406.232 365.006 405.836 364.814 405.5C364.63 405.164 364.386 404.908 364.082 404.732C363.778 404.556 363.45 404.468 363.098 404.468C362.746 404.468 362.418 404.556 362.114 404.732C361.81 404.9 361.562 405.152 361.37 405.488C361.186 405.816 361.094 406.208 361.094 406.664C361.094 407.12 361.186 407.52 361.37 407.864C361.562 408.208 361.81 408.472 362.114 408.656C362.426 408.832 362.754 408.92 363.098 408.92C363.45 408.92 363.778 408.832 364.082 408.656C364.386 408.48 364.63 408.224 364.814 407.888C365.006 407.544 365.102 407.144 365.102 406.688ZM369.647 404.348C369.847 404.012 370.111 403.752 370.439 403.568C370.775 403.376 371.171 403.28 371.627 403.28V404.696H371.279C370.743 404.696 370.335 404.832 370.055 405.104C369.783 405.376 369.647 405.848 369.647 406.52V410H368.279V403.388H369.647V404.348Z" fill="#94A3B8"/>
<rect x="408" y="348" width="40" height="40" rx="6" fill="#F3F2FF"/>
<path d="M428.202 358.833H427.798C427.312 358.833 426.846 359.026 426.502 359.37C426.158 359.714 425.965 360.18 425.965 360.667V360.832C425.965 361.153 425.88 361.469 425.719 361.747C425.558 362.026 425.327 362.257 425.048 362.418L424.654 362.647C424.375 362.808 424.059 362.892 423.738 362.892C423.416 362.892 423.1 362.808 422.821 362.647L422.683 362.573C422.263 362.331 421.763 362.265 421.294 362.39C420.824 362.516 420.424 362.822 420.181 363.243L419.979 363.591C419.736 364.012 419.671 364.511 419.796 364.981C419.922 365.45 420.228 365.85 420.648 366.093L420.786 366.185C421.063 366.345 421.293 366.575 421.454 366.851C421.615 367.128 421.701 367.442 421.703 367.762V368.229C421.704 368.552 421.62 368.87 421.459 369.15C421.298 369.43 421.066 369.663 420.786 369.824L420.648 369.907C420.228 370.15 419.922 370.55 419.796 371.02C419.671 371.489 419.736 371.988 419.979 372.409L420.181 372.758C420.424 373.178 420.824 373.484 421.294 373.61C421.763 373.735 422.263 373.669 422.683 373.427L422.821 373.353C423.1 373.192 423.416 373.108 423.738 373.108C424.059 373.108 424.375 373.192 424.654 373.353L425.048 373.583C425.327 373.743 425.558 373.974 425.719 374.253C425.88 374.531 425.965 374.847 425.965 375.168V375.333C425.965 375.82 426.158 376.286 426.502 376.63C426.846 376.974 427.312 377.167 427.798 377.167H428.202C428.688 377.167 429.154 376.974 429.498 376.63C429.842 376.286 430.035 375.82 430.035 375.333V375.168C430.035 374.847 430.12 374.531 430.281 374.253C430.442 373.974 430.673 373.743 430.952 373.583L431.346 373.353C431.625 373.192 431.941 373.108 432.263 373.108C432.584 373.108 432.9 373.192 433.179 373.353L433.317 373.427C433.737 373.669 434.237 373.735 434.706 373.61C435.176 373.484 435.576 373.178 435.819 372.758L436.021 372.4C436.264 371.979 436.329 371.48 436.204 371.01C436.078 370.541 435.772 370.141 435.352 369.898L435.214 369.824C434.934 369.663 434.702 369.43 434.541 369.15C434.38 368.87 434.296 368.552 434.298 368.229V367.771C434.296 367.448 434.38 367.13 434.541 366.85C434.702 366.57 434.934 366.337 435.214 366.176L435.352 366.093C435.772 365.85 436.078 365.45 436.204 364.981C436.329 364.511 436.264 364.012 436.021 363.591L435.819 363.243C435.576 362.822 435.176 362.516 434.706 362.39C434.237 362.265 433.737 362.331 433.317 362.573L433.179 362.647C432.9 362.808 432.584 362.892 432.263 362.892C431.941 362.892 431.625 362.808 431.346 362.647L430.952 362.418C430.673 362.257 430.442 362.026 430.281 361.747C430.12 361.469 430.035 361.153 430.035 360.832V360.667C430.035 360.18 429.842 359.714 429.498 359.37C429.154 359.026 428.688 358.833 428.202 358.833Z" stroke="#6729FF" stroke-width="1.83333" stroke-linecap="round" stroke-linejoin="round"/>
<path d="M428 370.75C429.519 370.75 430.75 369.519 430.75 368C430.75 366.481 429.519 365.25 428 365.25C426.481 365.25 425.25 366.481 425.25 368C425.25 369.519 426.481 370.75 428 370.75Z" stroke="#6729FF" stroke-width="1.83333" stroke-linecap="round" stroke-linejoin="round"/>
<path d="M414.928 408.296H411.436L410.836 410H409.408L412.396 401.648H413.98L416.968 410H415.528L414.928 408.296ZM414.544 407.18L413.188 403.304L411.82 407.18H414.544ZM418.963 402.512C418.715 402.512 418.507 402.428 418.339 402.26C418.171 402.092 418.087 401.884 418.087 401.636C418.087 401.388 418.171 401.18 418.339 401.012C418.507 400.844 418.715 400.76 418.963 400.76C419.203 400.76 419.407 400.844 419.575 401.012C419.743 401.18 419.827 401.388 419.827 401.636C419.827 401.884 419.743 402.092 419.575 402.26C419.407 402.428 419.203 402.512 418.963 402.512ZM419.635 411.296C419.635 411.944 419.471 412.412 419.143 412.7C418.823 412.996 418.355 413.144 417.739 413.144H417.031V411.992H417.499C417.779 411.992 417.975 411.936 418.087 411.824C418.207 411.72 418.267 411.544 418.267 411.296V403.388H419.635V411.296ZM427.419 403.388V410H426.051V409.22C425.835 409.492 425.551 409.708 425.199 409.868C424.855 410.02 424.487 410.096 424.095 410.096C423.575 410.096 423.107 409.988 422.691 409.772C422.283 409.556 421.959 409.236 421.719 408.812C421.487 408.388 421.371 407.876 421.371 407.276V403.388H422.727V407.072C422.727 407.664 422.875 408.12 423.171 408.44C423.467 408.752 423.871 408.908 424.383 408.908C424.895 408.908 425.299 408.752 425.595 408.44C425.899 408.12 426.051 407.664 426.051 407.072V403.388H427.419ZM431.624 410.108C431.104 410.108 430.636 410.016 430.22 409.832C429.812 409.64 429.488 409.384 429.248 409.064C429.008 408.736 428.88 408.372 428.864 407.972H430.28C430.304 408.252 430.436 408.488 430.676 408.68C430.924 408.864 431.232 408.956 431.6 408.956C431.984 408.956 432.28 408.884 432.488 408.74C432.704 408.588 432.812 408.396 432.812 408.164C432.812 407.916 432.692 407.732 432.452 407.612C432.22 407.492 431.848 407.36 431.336 407.216C430.84 407.08 430.436 406.948 430.124 406.82C429.812 406.692 429.54 406.496 429.308 406.232C429.084 405.968 428.972 405.62 428.972 405.188C428.972 404.836 429.076 404.516 429.284 404.228C429.492 403.932 429.788 403.7 430.172 403.532C430.564 403.364 431.012 403.28 431.516 403.28C432.268 403.28 432.872 403.472 433.328 403.856C433.792 404.232 434.04 404.748 434.072 405.404H432.704C432.68 405.108 432.56 404.872 432.344 404.696C432.128 404.52 431.836 404.432 431.468 404.432C431.108 404.432 430.832 404.5 430.64 404.636C430.448 404.772 430.352 404.952 430.352 405.176C430.352 405.352 430.416 405.5 430.544 405.62C430.672 405.74 430.828 405.836 431.012 405.908C431.196 405.972 431.468 406.056 431.828 406.16C432.308 406.288 432.7 406.42 433.004 406.556C433.316 406.684 433.584 406.876 433.808 407.132C434.032 407.388 434.148 407.728 434.156 408.152C434.156 408.528 434.052 408.864 433.844 409.16C433.636 409.456 433.34 409.688 432.956 409.856C432.58 410.024 432.136 410.108 431.624 410.108ZM437.23 404.504V408.164C437.23 408.412 437.286 408.592 437.398 408.704C437.518 408.808 437.718 408.86 437.998 408.86H438.838V410H437.758C437.142 410 436.67 409.856 436.342 409.568C436.014 409.28 435.85 408.812 435.85 408.164V404.504H435.07V403.388H435.85V401.744H437.23V403.388H438.838V404.504H437.23ZM446.159 406.532C446.159 406.78 446.143 407.004 446.111 407.204H441.059C441.099 407.732 441.295 408.156 441.647 408.476C441.999 408.796 442.431 408.956 442.943 408.956C443.679 408.956 444.199 408.648 444.503 408.032H445.979C445.779 408.64 445.415 409.14 444.887 409.532C444.367 409.916 443.719 410.108 442.943 410.108C442.311 410.108 441.743 409.968 441.239 409.688C440.743 409.4 440.351 409 440.063 408.488C439.783 407.968 439.643 407.368 439.643 406.688C439.643 406.008 439.779 405.412 440.051 404.9C440.331 404.38 440.719 403.98 441.215 403.7C441.719 403.42 442.295 403.28 442.943 403.28C443.567 403.28 444.123 403.416 444.611 403.688C445.099 403.96 445.479 404.344 445.751 404.84C446.023 405.328 446.159 405.892 446.159 406.532ZM444.731 406.1C444.723 405.596 444.543 405.192 444.191 404.888C443.839 404.584 443.403 404.432 442.883 404.432C442.411 404.432 442.007 404.584 441.671 404.888C441.335 405.184 441.135 405.588 441.071 406.1H444.731Z" fill="#94A3B8"/>
<path d="M142.536 466V453.76H144.606V466H142.536ZM138.432 455.29V453.4H148.71V455.29H138.432ZM151.97 466.18C151.13 466.18 150.368 465.982 149.684 465.586C149 465.178 148.454 464.632 148.046 463.948C147.65 463.264 147.452 462.502 147.452 461.662C147.452 460.822 147.65 460.066 148.046 459.394C148.454 458.722 149 458.188 149.684 457.792C150.368 457.384 151.13 457.18 151.97 457.18C152.822 457.18 153.59 457.378 154.274 457.774C154.958 458.17 155.498 458.71 155.894 459.394C156.302 460.066 156.506 460.822 156.506 461.662C156.506 462.502 156.302 463.264 155.894 463.948C155.498 464.632 154.958 465.178 154.274 465.586C153.59 465.982 152.822 466.18 151.97 466.18ZM151.97 464.272C152.462 464.272 152.894 464.164 153.266 463.948C153.65 463.72 153.944 463.408 154.148 463.012C154.364 462.616 154.472 462.166 154.472 461.662C154.472 461.158 154.364 460.714 154.148 460.33C153.932 459.946 153.638 459.646 153.266 459.43C152.894 459.202 152.462 459.088 151.97 459.088C151.49 459.088 151.058 459.202 150.674 459.43C150.302 459.646 150.008 459.946 149.792 460.33C149.588 460.714 149.486 461.158 149.486 461.662C149.486 462.166 149.588 462.616 149.792 463.012C150.008 463.408 150.302 463.72 150.674 463.948C151.058 464.164 151.49 464.272 151.97 464.272ZM161.771 466.18C160.991 466.18 160.283 465.982 159.647 465.586C159.023 465.19 158.525 464.656 158.153 463.984C157.793 463.3 157.613 462.538 157.613 461.698C157.613 460.846 157.793 460.084 158.153 459.412C158.525 458.728 159.023 458.188 159.647 457.792C160.283 457.384 160.991 457.18 161.771 457.18C162.431 457.18 163.013 457.324 163.517 457.612C164.033 457.888 164.441 458.272 164.741 458.764C165.041 459.256 165.191 459.814 165.191 460.438V462.922C165.191 463.546 165.041 464.104 164.741 464.596C164.453 465.088 164.051 465.478 163.535 465.766C163.019 466.042 162.431 466.18 161.771 466.18ZM162.095 464.308C162.587 464.308 163.013 464.2 163.373 463.984C163.745 463.756 164.033 463.444 164.237 463.048C164.441 462.652 164.543 462.196 164.543 461.68C164.543 461.164 164.441 460.708 164.237 460.312C164.033 459.916 163.745 459.61 163.373 459.394C163.013 459.166 162.587 459.052 162.095 459.052C161.615 459.052 161.189 459.166 160.817 459.394C160.457 459.61 160.169 459.916 159.953 460.312C159.749 460.708 159.647 461.164 159.647 461.68C159.647 462.196 159.749 462.652 159.953 463.048C160.169 463.444 160.457 463.756 160.817 463.984C161.189 464.2 161.615 464.308 162.095 464.308ZM166.397 466H164.417V463.678L164.759 461.572L164.417 459.484V453.04H166.397V466ZM172.554 466.18C171.714 466.18 170.952 465.982 170.268 465.586C169.584 465.178 169.038 464.632 168.63 463.948C168.234 463.264 168.036 462.502 168.036 461.662C168.036 460.822 168.234 460.066 168.63 459.394C169.038 458.722 169.584 458.188 170.268 457.792C170.952 457.384 171.714 457.18 172.554 457.18C173.406 457.18 174.174 457.378 174.858 457.774C175.542 458.17 176.082 458.71 176.478 459.394C176.886 460.066 177.09 460.822 177.09 461.662C177.09 462.502 176.886 463.264 176.478 463.948C176.082 464.632 175.542 465.178 174.858 465.586C174.174 465.982 173.406 466.18 172.554 466.18ZM172.554 464.272C173.046 464.272 173.478 464.164 173.85 463.948C174.234 463.72 174.528 463.408 174.732 463.012C174.948 462.616 175.056 462.166 175.056 461.662C175.056 461.158 174.948 460.714 174.732 460.33C174.516 459.946 174.222 459.646 173.85 459.43C173.478 459.202 173.046 459.088 172.554 459.088C172.074 459.088 171.642 459.202 171.258 459.43C170.886 459.646 170.592 459.946 170.376 460.33C170.172 460.714 170.07 461.158 170.07 461.662C170.07 462.166 170.172 462.616 170.376 463.012C170.592 463.408 170.886 463.72 171.258 463.948C171.642 464.164 172.074 464.272 172.554 464.272ZM181.563 466.18C181.083 466.18 180.621 466.12 180.177 466C179.733 465.868 179.325 465.688 178.953 465.46C178.581 465.22 178.257 464.932 177.981 464.596L179.241 463.336C179.541 463.684 179.883 463.948 180.267 464.128C180.663 464.296 181.107 464.38 181.599 464.38C182.043 464.38 182.379 464.314 182.607 464.182C182.835 464.05 182.949 463.858 182.949 463.606C182.949 463.342 182.841 463.138 182.625 462.994C182.409 462.85 182.127 462.73 181.779 462.634C181.443 462.526 181.083 462.418 180.699 462.31C180.327 462.202 179.967 462.058 179.619 461.878C179.283 461.686 179.007 461.428 178.791 461.104C178.575 460.78 178.467 460.36 178.467 459.844C178.467 459.292 178.593 458.818 178.845 458.422C179.109 458.026 179.475 457.72 179.943 457.504C180.423 457.288 180.993 457.18 181.653 457.18C182.349 457.18 182.961 457.306 183.489 457.558C184.029 457.798 184.479 458.164 184.839 458.656L183.579 459.916C183.327 459.604 183.039 459.37 182.715 459.214C182.391 459.058 182.019 458.98 181.599 458.98C181.203 458.98 180.897 459.04 180.681 459.16C180.465 459.28 180.357 459.454 180.357 459.682C180.357 459.922 180.465 460.108 180.681 460.24C180.897 460.372 181.173 460.486 181.509 460.582C181.857 460.678 182.217 460.786 182.589 460.906C182.973 461.014 183.333 461.17 183.669 461.374C184.017 461.566 184.299 461.83 184.515 462.166C184.731 462.49 184.839 462.916 184.839 463.444C184.839 464.284 184.545 464.95 183.957 465.442C183.369 465.934 182.571 466.18 181.563 466.18ZM194.035 466.18C193.195 466.18 192.433 465.982 191.749 465.586C191.065 465.178 190.519 464.632 190.111 463.948C189.715 463.264 189.517 462.502 189.517 461.662C189.517 460.822 189.715 460.066 190.111 459.394C190.519 458.722 191.065 458.188 191.749 457.792C192.433 457.384 193.195 457.18 194.035 457.18C194.887 457.18 195.655 457.378 196.339 457.774C197.023 458.17 197.563 458.71 197.959 459.394C198.367 460.066 198.571 460.822 198.571 461.662C198.571 462.502 198.367 463.264 197.959 463.948C197.563 464.632 197.023 465.178 196.339 465.586C195.655 465.982 194.887 466.18 194.035 466.18ZM194.035 464.272C194.527 464.272 194.959 464.164 195.331 463.948C195.715 463.72 196.009 463.408 196.213 463.012C196.429 462.616 196.537 462.166 196.537 461.662C196.537 461.158 196.429 460.714 196.213 460.33C195.997 459.946 195.703 459.646 195.331 459.43C194.959 459.202 194.527 459.088 194.035 459.088C193.555 459.088 193.123 459.202 192.739 459.43C192.367 459.646 192.073 459.946 191.857 460.33C191.653 460.714 191.551 461.158 191.551 461.662C191.551 462.166 191.653 462.616 191.857 463.012C192.073 463.408 192.367 463.72 192.739 463.948C193.123 464.164 193.555 464.272 194.035 464.272ZM203.043 466.18C202.563 466.18 202.101 466.12 201.657 466C201.213 465.868 200.805 465.688 200.433 465.46C200.061 465.22 199.737 464.932 199.461 464.596L200.721 463.336C201.021 463.684 201.363 463.948 201.747 464.128C202.143 464.296 202.587 464.38 203.079 464.38C203.523 464.38 203.859 464.314 204.087 464.182C204.315 464.05 204.429 463.858 204.429 463.606C204.429 463.342 204.321 463.138 204.105 462.994C203.889 462.85 203.607 462.73 203.259 462.634C202.923 462.526 202.563 462.418 202.179 462.31C201.807 462.202 201.447 462.058 201.099 461.878C200.763 461.686 200.487 461.428 200.271 461.104C200.055 460.78 199.947 460.36 199.947 459.844C199.947 459.292 200.073 458.818 200.325 458.422C200.589 458.026 200.955 457.72 201.423 457.504C201.903 457.288 202.473 457.18 203.133 457.18C203.829 457.18 204.441 457.306 204.969 457.558C205.509 457.798 205.959 458.164 206.319 458.656L205.059 459.916C204.807 459.604 204.519 459.37 204.195 459.214C203.871 459.058 203.499 458.98 203.079 458.98C202.683 458.98 202.377 459.04 202.161 459.16C201.945 459.28 201.837 459.454 201.837 459.682C201.837 459.922 201.945 460.108 202.161 460.24C202.377 460.372 202.653 460.486 202.989 460.582C203.337 460.678 203.697 460.786 204.069 460.906C204.453 461.014 204.813 461.17 205.149 461.374C205.497 461.566 205.779 461.83 205.995 462.166C206.211 462.49 206.319 462.916 206.319 463.444C206.319 464.284 206.025 464.95 205.437 465.442C204.849 465.934 204.051 466.18 203.043 466.18ZM215.533 466.18C214.681 466.18 213.907 465.982 213.211 465.586C212.527 465.19 211.987 464.65 211.591 463.966C211.195 463.282 210.997 462.52 210.997 461.68C210.997 460.828 211.195 460.066 211.591 459.394C211.987 458.71 212.527 458.17 213.211 457.774C213.907 457.378 214.681 457.18 215.533 457.18C216.205 457.18 216.829 457.312 217.405 457.576C217.993 457.828 218.491 458.194 218.899 458.674L217.603 459.988C217.351 459.688 217.045 459.466 216.685 459.322C216.337 459.166 215.953 459.088 215.533 459.088C215.041 459.088 214.603 459.202 214.219 459.43C213.847 459.646 213.553 459.946 213.337 460.33C213.133 460.714 213.031 461.164 213.031 461.68C213.031 462.184 213.133 462.634 213.337 463.03C213.553 463.414 213.847 463.72 214.219 463.948C214.603 464.164 215.041 464.272 215.533 464.272C215.953 464.272 216.337 464.2 216.685 464.056C217.045 463.9 217.351 463.672 217.603 463.372L218.899 464.686C218.491 465.166 217.993 465.538 217.405 465.802C216.829 466.054 216.205 466.18 215.533 466.18ZM223.769 466.18C222.989 466.18 222.281 465.982 221.645 465.586C221.021 465.19 220.523 464.656 220.151 463.984C219.791 463.3 219.611 462.538 219.611 461.698C219.611 460.846 219.791 460.084 220.151 459.412C220.523 458.728 221.021 458.188 221.645 457.792C222.281 457.384 222.989 457.18 223.769 457.18C224.429 457.18 225.011 457.324 225.515 457.612C226.031 457.888 226.439 458.272 226.739 458.764C227.039 459.256 227.189 459.814 227.189 460.438V462.922C227.189 463.546 227.039 464.104 226.739 464.596C226.451 465.088 226.049 465.478 225.533 465.766C225.017 466.042 224.429 466.18 223.769 466.18ZM224.093 464.308C224.825 464.308 225.413 464.062 225.857 463.57C226.313 463.078 226.541 462.448 226.541 461.68C226.541 461.164 226.439 460.708 226.235 460.312C226.031 459.916 225.743 459.61 225.371 459.394C225.011 459.166 224.585 459.052 224.093 459.052C223.613 459.052 223.187 459.166 222.815 459.394C222.455 459.61 222.167 459.916 221.951 460.312C221.747 460.708 221.645 461.164 221.645 461.68C221.645 462.196 221.747 462.652 221.951 463.048C222.167 463.444 222.455 463.756 222.815 463.984C223.187 464.2 223.613 464.308 224.093 464.308ZM226.415 466V463.678L226.757 461.572L226.415 459.484V457.36H228.395V466H226.415ZM230.592 466V457.36H232.572V466H230.592ZM232.572 461.194L231.888 460.852C231.888 459.76 232.128 458.878 232.608 458.206C233.1 457.522 233.838 457.18 234.822 457.18C235.254 457.18 235.644 457.258 235.992 457.414C236.34 457.57 236.664 457.822 236.964 458.17L235.668 459.502C235.512 459.334 235.338 459.214 235.146 459.142C234.954 459.07 234.732 459.034 234.48 459.034C233.928 459.034 233.472 459.208 233.112 459.556C232.752 459.904 232.572 460.45 232.572 461.194ZM239.254 466V453.76H241.234V466H239.254ZM237.184 459.16V457.36H243.304V459.16H237.184ZM248.456 466.18C247.616 466.18 246.854 465.982 246.17 465.586C245.486 465.178 244.94 464.632 244.532 463.948C244.136 463.264 243.938 462.502 243.938 461.662C243.938 460.822 244.136 460.066 244.532 459.394C244.94 458.722 245.486 458.188 246.17 457.792C246.854 457.384 247.616 457.18 248.456 457.18C249.308 457.18 250.076 457.378 250.76 457.774C251.444 458.17 251.984 458.71 252.38 459.394C252.788 460.066 252.992 460.822 252.992 461.662C252.992 462.502 252.788 463.264 252.38 463.948C251.984 464.632 251.444 465.178 250.76 465.586C250.076 465.982 249.308 466.18 248.456 466.18ZM248.456 464.272C248.948 464.272 249.38 464.164 249.752 463.948C250.136 463.72 250.43 463.408 250.634 463.012C250.85 462.616 250.958 462.166 250.958 461.662C250.958 461.158 250.85 460.714 250.634 460.33C250.418 459.946 250.124 459.646 249.752 459.43C249.38 459.202 248.948 459.088 248.456 459.088C247.976 459.088 247.544 459.202 247.16 459.43C246.788 459.646 246.494 459.946 246.278 460.33C246.074 460.714 245.972 461.158 245.972 461.662C245.972 462.166 246.074 462.616 246.278 463.012C246.494 463.408 246.788 463.72 247.16 463.948C247.544 464.164 247.976 464.272 248.456 464.272ZM249.77 456.118C249.374 456.118 249.038 456.046 248.762 455.902C248.486 455.758 248.228 455.62 247.988 455.488C247.76 455.344 247.502 455.272 247.214 455.272C246.914 455.272 246.674 455.326 246.494 455.434C246.314 455.542 246.14 455.704 245.972 455.92L244.91 454.858C245.258 454.462 245.606 454.15 245.954 453.922C246.302 453.682 246.71 453.562 247.178 453.562C247.574 453.562 247.91 453.634 248.186 453.778C248.462 453.91 248.72 454.048 248.96 454.192C249.2 454.336 249.458 454.408 249.734 454.408C250.046 454.408 250.292 454.354 250.472 454.246C250.652 454.138 250.82 453.976 250.976 453.76L252.038 454.822C251.69 455.218 251.342 455.536 250.994 455.776C250.646 456.004 250.238 456.118 249.77 456.118ZM258.653 466.18C257.789 466.18 257.009 465.988 256.313 465.604C255.629 465.208 255.083 464.668 254.675 463.984C254.279 463.3 254.081 462.532 254.081 461.68C254.081 460.828 254.279 460.066 254.675 459.394C255.071 458.71 255.605 458.17 256.277 457.774C256.961 457.378 257.717 457.18 258.545 457.18C259.349 457.18 260.057 457.366 260.669 457.738C261.293 458.11 261.779 458.62 262.127 459.268C262.487 459.916 262.667 460.654 262.667 461.482C262.667 461.626 262.655 461.776 262.631 461.932C262.619 462.076 262.595 462.238 262.559 462.418H255.467V460.798H261.533L260.795 461.446C260.771 460.918 260.669 460.474 260.489 460.114C260.309 459.754 260.051 459.478 259.715 459.286C259.391 459.094 258.989 458.998 258.509 458.998C258.005 458.998 257.567 459.106 257.195 459.322C256.823 459.538 256.535 459.844 256.331 460.24C256.127 460.624 256.025 461.086 256.025 461.626C256.025 462.166 256.133 462.64 256.349 463.048C256.565 463.456 256.871 463.774 257.267 464.002C257.663 464.218 258.119 464.326 258.635 464.326C259.079 464.326 259.487 464.248 259.859 464.092C260.243 463.936 260.567 463.708 260.831 463.408L262.091 464.686C261.671 465.178 261.161 465.55 260.561 465.802C259.961 466.054 259.325 466.18 258.653 466.18ZM267.08 466.18C266.6 466.18 266.138 466.12 265.694 466C265.25 465.868 264.842 465.688 264.47 465.46C264.098 465.22 263.774 464.932 263.498 464.596L264.758 463.336C265.058 463.684 265.4 463.948 265.784 464.128C266.18 464.296 266.624 464.38 267.116 464.38C267.56 464.38 267.896 464.314 268.124 464.182C268.352 464.05 268.466 463.858 268.466 463.606C268.466 463.342 268.358 463.138 268.142 462.994C267.926 462.85 267.644 462.73 267.296 462.634C266.96 462.526 266.6 462.418 266.216 462.31C265.844 462.202 265.484 462.058 265.136 461.878C264.8 461.686 264.524 461.428 264.308 461.104C264.092 460.78 263.984 460.36 263.984 459.844C263.984 459.292 264.11 458.818 264.362 458.422C264.626 458.026 264.992 457.72 265.46 457.504C265.94 457.288 266.51 457.18 267.17 457.18C267.866 457.18 268.478 457.306 269.006 457.558C269.546 457.798 269.996 458.164 270.356 458.656L269.096 459.916C268.844 459.604 268.556 459.37 268.232 459.214C267.908 459.058 267.536 458.98 267.116 458.98C266.72 458.98 266.414 459.04 266.198 459.16C265.982 459.28 265.874 459.454 265.874 459.682C265.874 459.922 265.982 460.108 266.198 460.24C266.414 460.372 266.69 460.486 267.026 460.582C267.374 460.678 267.734 460.786 268.106 460.906C268.49 461.014 268.85 461.17 269.186 461.374C269.534 461.566 269.816 461.83 270.032 462.166C270.248 462.49 270.356 462.916 270.356 463.444C270.356 464.284 270.062 464.95 269.474 465.442C268.886 465.934 268.088 466.18 267.08 466.18Z" fill="#64748B"/>
<rect x="138" y="138" width="310" height="186" rx="9.3" fill="#020617"/>
<path d="M165.699 179.8V165.793H167.881L168.814 168.59V179.8H165.699ZM175.361 179.8L167.108 169.225L167.881 165.793L176.135 176.368L175.361 179.8ZM175.361 179.8L174.528 177.003V165.793H177.643V179.8H175.361ZM183.759 180.018C182.873 180.018 182.086 179.84 181.398 179.483C180.724 179.112 180.194 178.61 179.811 177.975C179.427 177.327 179.236 176.586 179.236 175.753V170.158H182.271V175.713C182.271 176.044 182.324 176.328 182.43 176.566C182.549 176.804 182.721 176.989 182.946 177.122C183.17 177.254 183.442 177.32 183.759 177.32C184.209 177.32 184.566 177.181 184.83 176.903C185.095 176.612 185.227 176.216 185.227 175.713V170.158H188.263V175.733C188.263 176.579 188.071 177.327 187.687 177.975C187.304 178.61 186.775 179.112 186.1 179.483C185.426 179.84 184.645 180.018 183.759 180.018ZM189.573 179.8V165.396H192.609V179.8H189.573ZM194.151 179.8V165.396H197.187V179.8H194.151ZM201.388 179.8V177.38H204.681C205.29 177.38 205.766 177.201 206.11 176.844C206.454 176.487 206.626 176.05 206.626 175.534C206.626 175.177 206.546 174.86 206.388 174.582C206.229 174.304 206.004 174.086 205.713 173.927C205.435 173.769 205.091 173.689 204.681 173.689H201.388V171.328H204.423C204.939 171.328 205.356 171.203 205.673 170.951C205.991 170.687 206.149 170.29 206.149 169.761C206.149 169.245 205.991 168.862 205.673 168.61C205.356 168.346 204.939 168.213 204.423 168.213H201.388V165.793H205.019C205.918 165.793 206.679 165.958 207.3 166.289C207.935 166.62 208.418 167.063 208.748 167.618C209.079 168.174 209.244 168.789 209.244 169.463C209.244 170.323 208.967 171.051 208.411 171.646C207.856 172.241 207.036 172.651 205.951 172.876L206.03 171.824C207.208 172.049 208.114 172.505 208.748 173.193C209.397 173.881 209.721 174.728 209.721 175.733C209.721 176.5 209.529 177.194 209.145 177.816C208.775 178.424 208.233 178.907 207.518 179.264C206.817 179.621 205.971 179.8 204.979 179.8H201.388ZM199.007 179.8V165.793H202.082V179.8H199.007ZM214.872 179.998C213.985 179.998 213.192 179.78 212.491 179.344C211.803 178.907 211.254 178.312 210.844 177.558C210.447 176.804 210.249 175.944 210.249 174.979C210.249 174.013 210.447 173.154 210.844 172.4C211.254 171.646 211.803 171.051 212.491 170.614C213.192 170.178 213.985 169.959 214.872 169.959C215.52 169.959 216.102 170.085 216.618 170.336C217.147 170.588 217.576 170.938 217.907 171.388C218.238 171.824 218.423 172.327 218.463 172.896V177.062C218.423 177.631 218.238 178.14 217.907 178.59C217.59 179.026 217.166 179.37 216.637 179.621C216.108 179.873 215.52 179.998 214.872 179.998ZM215.487 177.26C216.135 177.26 216.657 177.049 217.054 176.626C217.451 176.189 217.649 175.64 217.649 174.979C217.649 174.529 217.557 174.132 217.371 173.788C217.199 173.445 216.948 173.18 216.618 172.995C216.3 172.796 215.93 172.697 215.506 172.697C215.083 172.697 214.706 172.796 214.376 172.995C214.058 173.18 213.8 173.445 213.602 173.788C213.417 174.132 213.324 174.529 213.324 174.979C213.324 175.415 213.417 175.806 213.602 176.149C213.787 176.493 214.045 176.764 214.376 176.963C214.706 177.161 215.077 177.26 215.487 177.26ZM217.53 179.8V177.201L217.986 174.86L217.53 172.519V170.158H220.506V179.8H217.53ZM228.417 179.8V174.304C228.417 173.802 228.258 173.398 227.941 173.094C227.637 172.777 227.246 172.618 226.77 172.618C226.44 172.618 226.149 172.691 225.897 172.836C225.646 172.968 225.448 173.167 225.302 173.431C225.157 173.683 225.084 173.974 225.084 174.304L223.913 173.729C223.913 172.975 224.079 172.314 224.409 171.745C224.74 171.176 225.196 170.74 225.778 170.436C226.373 170.118 227.041 169.959 227.782 169.959C228.496 169.959 229.125 170.131 229.667 170.475C230.222 170.806 230.659 171.249 230.976 171.804C231.294 172.36 231.452 172.968 231.452 173.63V179.8H228.417ZM222.048 179.8V170.158H225.084V179.8H222.048ZM238.977 179.8L235.604 174.8L238.957 170.158H242.35L238.302 175.376L238.402 174.126L242.548 179.8H238.977ZM232.807 179.8V165.396H235.842V179.8H232.807Z" fill="white"/>
<g clip-path="url(#clip1_193_2365)">
<path d="M404.476 170.426C404.724 170.736 404.91 171.108 405.034 171.48C405.158 171.852 405.22 172.286 405.22 172.72C405.22 173.154 405.158 173.588 405.034 173.96C404.91 174.332 404.724 174.704 404.476 175.014C404.166 175.448 404.228 176.068 404.662 176.378C405.096 176.688 405.716 176.626 406.026 176.192C406.398 175.696 406.646 175.2 406.894 174.58C407.142 173.96 407.204 173.34 407.204 172.72C407.204 172.1 407.08 171.48 406.894 170.86C406.708 170.302 406.398 169.744 406.026 169.248C405.716 168.814 405.096 168.752 404.662 169.062C404.228 169.372 404.166 169.992 404.476 170.426Z" fill="#FAFAFA"/>
<path d="M407.886 168.628C408.63 169.806 409.064 171.232 409.064 172.72C409.064 174.208 408.63 175.634 407.886 176.812C407.576 177.246 407.762 177.866 408.196 178.176C408.692 178.486 409.25 178.3 409.56 177.866C410.49 176.378 411.048 174.642 411.048 172.72C411.048 170.86 410.49 169.062 409.56 167.574C409.25 167.14 408.63 166.954 408.196 167.264C407.762 167.574 407.576 168.132 407.886 168.628Z" fill="#FAFAFA"/>
<path d="M411.482 166.768C412.536 168.504 413.094 170.55 413.094 172.72C413.094 174.89 412.474 176.936 411.482 178.672C411.234 179.168 411.358 179.726 411.854 180.036C412.35 180.284 412.908 180.16 413.218 179.664C414.458 177.618 415.14 175.262 415.14 172.72C415.14 170.178 414.458 167.822 413.218 165.776C412.97 165.28 412.35 165.156 411.854 165.404C411.358 165.714 411.234 166.272 411.482 166.768Z" fill="#FAFAFA"/>
<path d="M415.078 164.908C416.38 167.202 417.186 169.868 417.186 172.72C417.186 175.572 416.442 178.238 415.078 180.532C414.83 181.028 414.954 181.586 415.45 181.896C415.946 182.144 416.504 182.02 416.814 181.524C418.302 178.92 419.17 175.944 419.17 172.72C419.17 169.496 418.302 166.52 416.814 163.916C416.566 163.42 415.946 163.296 415.45 163.544C414.954 163.792 414.83 164.412 415.078 164.908Z" fill="#FAFAFA"/>
</g>
<path d="M167.666 246.447V233.48H162.942C162.445 233.48 161.986 233.748 161.986 234.436C161.986 235.125 162.445 235.393 162.942 235.393H165.753V246.447H162.942C162.445 246.447 161.986 246.715 161.986 247.404C161.986 248.092 162.445 248.36 162.942 248.36H170.478C170.975 248.36 171.434 248.092 171.434 247.404V242.584C171.434 242.029 171.185 241.628 170.478 241.628C169.77 241.628 169.521 242.029 169.521 242.584V246.447H167.666Z" fill="#FAFAFA"/>
<path d="M177.664 241.876H183.057C183.688 241.876 184.128 241.781 184.606 241.341C185.142 240.844 185.199 240.327 185.199 239.639V235.718C185.199 235.029 185.142 234.513 184.606 234.016C184.128 233.576 183.688 233.48 183.057 233.48H176.707C176.21 233.48 175.751 233.748 175.751 234.436C175.751 235.125 176.21 235.393 176.707 235.393H183.287V239.964H177.912C176.478 239.964 175.751 240.69 175.751 242.125V248.36H184.243C184.74 248.36 185.199 248.092 185.199 247.404C185.199 246.715 184.74 246.447 184.243 246.447H177.664V241.876Z" fill="#FAFAFA"/>
<path d="M197.052 235.393V238.568C197.052 239.639 196.631 239.964 196.096 239.964H192.347C191.85 239.964 191.391 240.231 191.391 240.92C191.391 241.609 191.85 241.876 192.347 241.876H196.096C196.631 241.876 197.052 242.201 197.052 243.273V246.447H190.473C189.976 246.447 189.517 246.715 189.517 247.404C189.517 248.092 189.976 248.36 190.473 248.36H197.052C198.142 248.36 198.965 247.538 198.965 246.447V242.775C198.965 242.01 198.812 241.456 198.219 240.92C198.812 240.384 198.965 239.83 198.965 239.065V235.393C198.965 234.302 198.142 233.48 197.052 233.48H190.473C189.976 233.48 189.517 233.748 189.517 234.436C189.517 235.125 189.976 235.393 190.473 235.393H197.052Z" fill="#FAFAFA"/>
<path d="M206.151 241.589V234.436C206.151 233.958 205.921 233.48 205.195 233.48C204.468 233.48 204.238 233.958 204.238 234.436V243.502H209.861V247.404C209.861 248.016 210.129 248.36 210.818 248.36C211.506 248.36 211.774 248.016 211.774 247.404V243.502C212.271 243.502 212.73 243.234 212.73 242.546C212.73 241.857 212.271 241.589 211.774 241.589V236.062C211.774 235.584 211.544 235.106 210.818 235.106C210.091 235.106 209.861 235.584 209.861 236.062V241.589H206.151Z" fill="#FAFAFA"/>
<path d="M234.619 235.393H239.305C239.802 235.393 240.261 235.125 240.261 234.436C240.261 233.748 239.802 233.48 239.305 233.48H232.706V241.876H238.349V246.447H233.93C233.624 246.447 233.185 246.18 232.917 246.065L232.343 245.816C232.133 245.721 231.961 245.663 231.731 245.663C231.234 245.663 230.813 246.122 230.813 246.62C230.813 247.289 231.387 247.461 231.903 247.691L232.63 248.016C233.108 248.226 233.395 248.36 233.892 248.36H238.138C238.827 248.36 239.324 248.284 239.802 247.71C240.204 247.232 240.261 246.811 240.261 246.218V242.125C240.261 241.456 240.204 240.997 239.668 240.499C239.209 240.059 238.75 239.964 238.138 239.964H234.619V235.393Z" fill="#FAFAFA"/>
<path d="M246.491 235.393C247.046 235.393 247.447 235.01 247.447 234.436C247.447 233.939 247.046 233.48 246.548 233.48H245.401C244.731 233.48 244.578 233.996 244.578 234.436V247.155C244.578 248.035 244.923 248.36 245.822 248.36H252.783C253.644 248.36 254.027 248.054 254.027 247.155V242.871C254.027 241.991 253.835 241.589 252.879 241.589H246.491V235.393ZM252.114 243.502V246.447H246.491V243.502H252.114Z" fill="#FAFAFA"/>
<path d="M265.88 235.393V238.032C265.88 238.874 265.918 238.854 265.287 239.409L262.647 241.685C262.169 242.106 262.15 242.163 262.15 242.794V247.404C262.15 248.016 262.418 248.36 263.106 248.36C263.795 248.36 264.063 248.016 264.063 247.404V243.693C264.063 243.024 264.101 242.986 264.598 242.546L267.276 240.231C267.811 239.772 267.792 239.696 267.792 239.027V233.48H259.3C258.688 233.48 258.344 234.016 258.344 234.436V235.393C258.344 235.813 258.688 236.349 259.3 236.349C259.912 236.349 260.256 235.813 260.256 235.393H265.88Z" fill="#FAFAFA"/>
<path d="M275.935 239.964V235.393H277.732V239.964H275.935ZM274.978 233.48C274.328 233.48 274.022 233.939 274.022 234.436V239.964C273.429 239.964 272.97 240.174 272.626 240.499C272.281 240.824 272.109 241.303 272.109 241.895V246.447C272.109 247.614 272.836 248.36 274.022 248.36H279.645C280.831 248.36 281.558 247.614 281.558 246.447V241.895C281.558 241.303 281.385 240.824 281.041 240.499C280.697 240.174 280.238 239.964 279.645 239.964V234.436C279.645 233.939 279.339 233.48 278.689 233.48H274.978ZM274.022 246.447V241.876H279.645V246.447H274.022Z" fill="#FAFAFA"/>
<path d="M307.176 246.447C306.621 246.447 306.22 246.83 306.22 247.404C306.22 247.92 306.602 248.36 307.176 248.36H308.132C308.706 248.36 309.089 247.92 309.089 247.404V234.436C309.089 233.939 308.668 233.48 308.132 233.48H300.597C300.061 233.48 299.64 233.939 299.64 234.436V239.333C299.64 239.83 300.061 240.289 300.597 240.289H307.176V246.447ZM301.553 238.376V235.393H307.176V238.376H301.553Z" fill="#FAFAFA"/>
<path d="M315.318 233.48C314.266 233.48 313.406 234.341 313.406 235.393V246.447C313.406 247.518 314.228 248.36 315.318 248.36H320.941C322.032 248.36 322.854 247.518 322.854 246.447V235.393C322.854 234.341 321.993 233.48 320.941 233.48H315.318ZM315.318 246.447V235.393H320.941V246.447H315.318Z" fill="#FAFAFA"/>
<path d="M329.084 233.48C328.032 233.48 327.171 234.341 327.171 235.393V246.447C327.171 247.518 327.994 248.36 329.084 248.36H334.707C335.797 248.36 336.619 247.518 336.619 246.447V235.393C336.619 234.341 335.759 233.48 334.707 233.48H329.084ZM329.084 246.447V235.393H334.707V246.447H329.084Z" fill="#FAFAFA"/>
<path d="M342.849 233.48C341.797 233.48 340.937 234.341 340.937 235.393V246.447C340.937 247.518 341.759 248.36 342.849 248.36H348.472C349.562 248.36 350.385 247.518 350.385 246.447V235.393C350.385 234.341 349.524 233.48 348.472 233.48H342.849ZM342.849 246.447V235.393H348.472V246.447H342.849Z" fill="#FAFAFA"/>
<path d="M370.38 233.48C369.328 233.48 368.468 234.341 368.468 235.393V246.447C368.468 247.518 369.29 248.36 370.38 248.36H376.003C377.093 248.36 377.916 247.518 377.916 246.447V235.393C377.916 234.341 377.055 233.48 376.003 233.48H370.38ZM370.38 246.447V235.393H376.003V246.447H370.38Z" fill="#FAFAFA"/>
<path d="M384.146 233.48C383.094 233.48 382.233 234.341 382.233 235.393V246.447C382.233 247.518 383.055 248.36 384.146 248.36H389.769C390.859 248.36 391.681 247.518 391.681 246.447V235.393C391.681 234.341 390.821 233.48 389.769 233.48H384.146ZM384.146 246.447V235.393H389.769V246.447H384.146Z" fill="#FAFAFA"/>
<path d="M397.911 233.48C396.859 233.48 395.998 234.341 395.998 235.393V246.447C395.998 247.518 396.821 248.36 397.911 248.36H403.534C404.624 248.36 405.447 247.518 405.447 246.447V235.393C405.447 234.341 404.586 233.48 403.534 233.48H397.911ZM397.911 246.447V235.393H403.534V246.447H397.911Z" fill="#FAFAFA"/>
<path d="M411.677 233.48C410.625 233.48 409.764 234.341 409.764 235.393V246.447C409.764 247.518 410.586 248.36 411.677 248.36H417.3C418.39 248.36 419.212 247.518 419.212 246.447V235.393C419.212 234.341 418.352 233.48 417.3 233.48H411.677ZM411.677 246.447V235.393H417.3V246.447H411.677Z" fill="#FAFAFA"/>
<path opacity="0.8" d="M166.111 272.989V273.721H164.654V278.46H163.757V273.721H162.293V272.989H166.111ZM167.476 273.548C167.313 273.548 167.177 273.493 167.067 273.383C166.956 273.272 166.901 273.136 166.901 272.973C166.901 272.811 166.956 272.674 167.067 272.564C167.177 272.454 167.313 272.399 167.476 272.399C167.633 272.399 167.767 272.454 167.877 272.564C167.988 272.674 168.043 272.811 168.043 272.973C168.043 273.136 167.988 273.272 167.877 273.383C167.767 273.493 167.633 273.548 167.476 273.548ZM167.917 274.123V278.46H167.019V274.123H167.917ZM170.142 274.855V277.256C170.142 277.418 170.179 277.536 170.252 277.61C170.331 277.678 170.462 277.712 170.646 277.712H171.197V278.46H170.488C170.084 278.46 169.775 278.366 169.56 278.177C169.344 277.988 169.237 277.681 169.237 277.256V274.855H168.725V274.123H169.237V273.044H170.142V274.123H171.197V274.855H170.142ZM175.952 274.123V278.46H175.055V277.948C174.913 278.127 174.727 278.268 174.496 278.373C174.27 278.473 174.029 278.523 173.772 278.523C173.43 278.523 173.123 278.452 172.851 278.31C172.583 278.169 172.37 277.959 172.213 277.681C172.061 277.403 171.985 277.067 171.985 276.673V274.123H172.874V276.539C172.874 276.928 172.971 277.227 173.165 277.437C173.36 277.641 173.625 277.744 173.961 277.744C174.296 277.744 174.561 277.641 174.756 277.437C174.955 277.227 175.055 276.928 175.055 276.539V274.123H175.952ZM178.034 272.635V278.46H177.136V272.635H178.034ZM178.913 276.272C178.913 275.836 179.002 275.45 179.18 275.114C179.364 274.779 179.611 274.519 179.92 274.335C180.235 274.146 180.582 274.052 180.959 274.052C181.301 274.052 181.597 274.12 181.849 274.256C182.106 274.388 182.311 274.553 182.463 274.752V274.123H183.368V278.46H182.463V277.815C182.311 278.019 182.103 278.19 181.841 278.326C181.579 278.463 181.28 278.531 180.944 278.531C180.571 278.531 180.23 278.436 179.92 278.247C179.611 278.053 179.364 277.786 179.18 277.445C179.002 277.098 178.913 276.707 178.913 276.272ZM182.463 276.287C182.463 275.988 182.4 275.728 182.274 275.508C182.153 275.288 181.993 275.12 181.794 275.004C181.594 274.889 181.379 274.831 181.148 274.831C180.917 274.831 180.702 274.889 180.503 275.004C180.303 275.114 180.141 275.28 180.015 275.5C179.894 275.715 179.834 275.972 179.834 276.272C179.834 276.571 179.894 276.833 180.015 277.059C180.141 277.284 180.303 277.458 180.503 277.578C180.707 277.694 180.923 277.752 181.148 277.752C181.379 277.752 181.594 277.694 181.794 277.578C181.993 277.463 182.153 277.295 182.274 277.075C182.4 276.849 182.463 276.586 182.463 276.287ZM185.444 274.752C185.576 274.532 185.749 274.361 185.964 274.241C186.184 274.115 186.444 274.052 186.743 274.052V274.981H186.515C186.163 274.981 185.896 275.07 185.712 275.248C185.534 275.427 185.444 275.736 185.444 276.177V278.46H184.547V274.123H185.444V274.752ZM189.314 276.272C189.314 275.836 189.403 275.45 189.582 275.114C189.765 274.779 190.012 274.519 190.321 274.335C190.636 274.146 190.985 274.052 191.368 274.052C191.652 274.052 191.93 274.115 192.203 274.241C192.481 274.361 192.701 274.524 192.864 274.729V272.635H193.769V278.46H192.864V277.807C192.717 278.017 192.513 278.19 192.25 278.326C191.993 278.463 191.696 278.531 191.361 278.531C190.983 278.531 190.636 278.436 190.321 278.247C190.012 278.053 189.765 277.786 189.582 277.445C189.403 277.098 189.314 276.707 189.314 276.272ZM192.864 276.287C192.864 275.988 192.801 275.728 192.675 275.508C192.554 275.288 192.394 275.12 192.195 275.004C191.996 274.889 191.78 274.831 191.55 274.831C191.319 274.831 191.103 274.889 190.904 275.004C190.705 275.114 190.542 275.28 190.416 275.5C190.295 275.715 190.235 275.972 190.235 276.272C190.235 276.571 190.295 276.833 190.416 277.059C190.542 277.284 190.705 277.458 190.904 277.578C191.109 277.694 191.324 277.752 191.55 277.752C191.78 277.752 191.996 277.694 192.195 277.578C192.394 277.463 192.554 277.295 192.675 277.075C192.801 276.849 192.864 276.586 192.864 276.287ZM196.83 278.531C196.42 278.531 196.05 278.439 195.72 278.255C195.389 278.066 195.129 277.804 194.94 277.468C194.751 277.127 194.657 276.733 194.657 276.287C194.657 275.847 194.754 275.456 194.948 275.114C195.142 274.773 195.407 274.511 195.743 274.327C196.079 274.144 196.454 274.052 196.869 274.052C197.283 274.052 197.659 274.144 197.995 274.327C198.33 274.511 198.595 274.773 198.79 275.114C198.984 275.456 199.081 275.847 199.081 276.287C199.081 276.728 198.981 277.119 198.782 277.46C198.582 277.801 198.309 278.066 197.963 278.255C197.622 278.439 197.244 278.531 196.83 278.531ZM196.83 277.752C197.06 277.752 197.276 277.696 197.475 277.586C197.68 277.476 197.845 277.311 197.971 277.09C198.097 276.87 198.16 276.602 198.16 276.287C198.16 275.972 198.1 275.707 197.979 275.492C197.858 275.272 197.698 275.107 197.499 274.996C197.299 274.886 197.084 274.831 196.853 274.831C196.622 274.831 196.407 274.886 196.208 274.996C196.013 275.107 195.859 275.272 195.743 275.492C195.628 275.707 195.57 275.972 195.57 276.287C195.57 276.754 195.688 277.117 195.924 277.374C196.166 277.626 196.467 277.752 196.83 277.752ZM201.714 275.713C201.714 275.177 201.837 274.697 202.084 274.272C202.336 273.847 202.674 273.516 203.099 273.28C203.53 273.039 203.999 272.918 204.508 272.918C205.091 272.918 205.608 273.062 206.059 273.351C206.516 273.634 206.846 274.039 207.051 274.563H205.973C205.831 274.275 205.634 274.06 205.382 273.918C205.13 273.776 204.839 273.705 204.508 273.705C204.146 273.705 203.823 273.787 203.54 273.949C203.257 274.112 203.034 274.346 202.871 274.65C202.714 274.954 202.635 275.309 202.635 275.713C202.635 276.117 202.714 276.471 202.871 276.775C203.034 277.08 203.257 277.316 203.54 277.484C203.823 277.647 204.146 277.728 204.508 277.728C204.839 277.728 205.13 277.657 205.382 277.515C205.634 277.374 205.831 277.159 205.973 276.87H207.051C206.846 277.395 206.516 277.799 206.059 278.082C205.608 278.366 205.091 278.507 204.508 278.507C203.994 278.507 203.524 278.389 203.099 278.153C202.674 277.912 202.336 277.578 202.084 277.153C201.837 276.728 201.714 276.248 201.714 275.713ZM207.802 276.272C207.802 275.836 207.892 275.45 208.07 275.114C208.254 274.779 208.5 274.519 208.81 274.335C209.125 274.146 209.471 274.052 209.849 274.052C210.19 274.052 210.487 274.12 210.739 274.256C210.996 274.388 211.2 274.553 211.353 274.752V274.123H212.258V278.46H211.353V277.815C211.2 278.019 210.993 278.19 210.731 278.326C210.468 278.463 210.169 278.531 209.833 278.531C209.461 278.531 209.12 278.436 208.81 278.247C208.5 278.053 208.254 277.786 208.07 277.445C207.892 277.098 207.802 276.707 207.802 276.272ZM211.353 276.287C211.353 275.988 211.29 275.728 211.164 275.508C211.043 275.288 210.883 275.12 210.683 275.004C210.484 274.889 210.269 274.831 210.038 274.831C209.807 274.831 209.592 274.889 209.392 275.004C209.193 275.114 209.03 275.28 208.904 275.5C208.784 275.715 208.723 275.972 208.723 276.272C208.723 276.571 208.784 276.833 208.904 277.059C209.03 277.284 209.193 277.458 209.392 277.578C209.597 277.694 209.812 277.752 210.038 277.752C210.269 277.752 210.484 277.694 210.683 277.578C210.883 277.463 211.043 277.295 211.164 277.075C211.29 276.849 211.353 276.586 211.353 276.287ZM214.334 274.752C214.465 274.532 214.638 274.361 214.854 274.241C215.074 274.115 215.334 274.052 215.633 274.052V274.981H215.405C215.053 274.981 214.785 275.07 214.602 275.248C214.423 275.427 214.334 275.736 214.334 276.177V278.46H213.437V274.123H214.334V274.752ZM217.505 274.855V277.256C217.505 277.418 217.541 277.536 217.615 277.61C217.694 277.678 217.825 277.712 218.009 277.712H218.56V278.46H217.851C217.447 278.46 217.137 278.366 216.922 278.177C216.707 277.988 216.599 277.681 216.599 277.256V274.855H216.088V274.123H216.599V273.044H217.505V274.123H218.56V274.855H217.505ZM219.088 276.272C219.088 275.836 219.177 275.45 219.355 275.114C219.539 274.779 219.786 274.519 220.095 274.335C220.41 274.146 220.756 274.052 221.134 274.052C221.475 274.052 221.772 274.12 222.024 274.256C222.281 274.388 222.486 274.553 222.638 274.752V274.123H223.543V278.46H222.638V277.815C222.486 278.019 222.278 278.19 222.016 278.326C221.754 278.463 221.454 278.531 221.119 278.531C220.746 278.531 220.405 278.436 220.095 278.247C219.786 278.053 219.539 277.786 219.355 277.445C219.177 277.098 219.088 276.707 219.088 276.272ZM222.638 276.287C222.638 275.988 222.575 275.728 222.449 275.508C222.328 275.288 222.168 275.12 221.969 275.004C221.769 274.889 221.554 274.831 221.323 274.831C221.092 274.831 220.877 274.889 220.678 275.004C220.478 275.114 220.316 275.28 220.19 275.5C220.069 275.715 220.009 275.972 220.009 276.272C220.009 276.571 220.069 276.833 220.19 277.059C220.316 277.284 220.478 277.458 220.678 277.578C220.882 277.694 221.098 277.752 221.323 277.752C221.554 277.752 221.769 277.694 221.969 277.578C222.168 277.463 222.328 277.295 222.449 277.075C222.575 276.849 222.638 276.586 222.638 276.287ZM220.182 273.674C220.224 273.369 220.323 273.141 220.481 272.989C220.638 272.832 220.835 272.753 221.071 272.753C221.171 272.753 221.258 272.769 221.331 272.8C221.405 272.832 221.494 272.879 221.599 272.942C221.677 272.994 221.743 273.034 221.796 273.06C221.853 273.086 221.916 273.099 221.984 273.099C222.074 273.099 222.147 273.073 222.205 273.02C222.268 272.963 222.307 272.879 222.323 272.769H222.827C222.785 273.073 222.685 273.304 222.528 273.461C222.37 273.613 222.173 273.69 221.937 273.69C221.837 273.69 221.748 273.674 221.67 273.642C221.591 273.606 221.504 273.556 221.41 273.493C221.315 273.435 221.242 273.396 221.189 273.375C221.142 273.348 221.087 273.335 221.024 273.335C220.935 273.335 220.859 273.364 220.796 273.422C220.738 273.48 220.701 273.564 220.686 273.674H220.182ZM226.603 278.531C226.194 278.531 225.824 278.439 225.493 278.255C225.163 278.066 224.903 277.804 224.714 277.468C224.525 277.127 224.431 276.733 224.431 276.287C224.431 275.847 224.528 275.456 224.722 275.114C224.916 274.773 225.181 274.511 225.517 274.327C225.853 274.144 226.228 274.052 226.643 274.052C227.057 274.052 227.432 274.144 227.768 274.327C228.104 274.511 228.369 274.773 228.563 275.114C228.758 275.456 228.855 275.847 228.855 276.287C228.855 276.728 228.755 277.119 228.555 277.46C228.356 277.801 228.083 278.066 227.737 278.255C227.396 278.439 227.018 278.531 226.603 278.531ZM226.603 277.752C226.834 277.752 227.049 277.696 227.249 277.586C227.453 277.476 227.619 277.311 227.745 277.09C227.871 276.87 227.934 276.602 227.934 276.287C227.934 275.972 227.873 275.707 227.753 275.492C227.632 275.272 227.472 275.107 227.272 274.996C227.073 274.886 226.858 274.831 226.627 274.831C226.396 274.831 226.181 274.886 225.981 274.996C225.787 275.107 225.632 275.272 225.517 275.492C225.401 275.707 225.344 275.972 225.344 276.287C225.344 276.754 225.462 277.117 225.698 277.374C225.939 277.626 226.241 277.752 226.603 277.752Z" fill="white"/>
<path d="M169.195 292.94H167.923L164.095 287.148V292.94H162.823V285.173H164.095L167.923 290.954V285.173H169.195V292.94ZM176.435 286.791V292.94H175.162V292.215C174.961 292.468 174.697 292.668 174.37 292.817C174.05 292.959 173.708 293.029 173.343 293.029C172.86 293.029 172.424 292.929 172.038 292.728C171.658 292.527 171.357 292.23 171.134 291.835C170.918 291.441 170.81 290.965 170.81 290.407V286.791H172.071V290.217C172.071 290.768 172.209 291.192 172.484 291.489C172.759 291.779 173.135 291.924 173.611 291.924C174.087 291.924 174.463 291.779 174.738 291.489C175.021 291.192 175.162 290.768 175.162 290.217V286.791H176.435ZM179.385 284.682V292.94H178.113V284.682H179.385ZM182.328 284.682V292.94H181.056V284.682H182.328ZM184.646 285.976C184.415 285.976 184.222 285.898 184.065 285.742C183.909 285.586 183.831 285.392 183.831 285.162C183.831 284.931 183.909 284.737 184.065 284.581C184.222 284.425 184.415 284.347 184.646 284.347C184.869 284.347 185.059 284.425 185.215 284.581C185.371 284.737 185.449 284.931 185.449 285.162C185.449 285.392 185.371 285.586 185.215 285.742C185.059 285.898 184.869 285.976 184.646 285.976ZM185.271 286.791V292.94H183.998V286.791H185.271ZM188.425 287.829V291.233C188.425 291.463 188.477 291.631 188.581 291.735C188.693 291.831 188.879 291.88 189.139 291.88H189.921V292.94H188.916C188.343 292.94 187.904 292.806 187.599 292.538C187.294 292.27 187.142 291.835 187.142 291.233V287.829H186.416V286.791H187.142V285.262H188.425V286.791H189.921V287.829H188.425ZM193.76 293.04C193.18 293.04 192.656 292.91 192.187 292.65C191.718 292.382 191.35 292.01 191.082 291.534C190.814 291.05 190.68 290.492 190.68 289.86C190.68 289.235 190.818 288.681 191.093 288.197C191.368 287.713 191.744 287.341 192.22 287.081C192.697 286.821 193.228 286.69 193.816 286.69C194.404 286.69 194.936 286.821 195.412 287.081C195.888 287.341 196.264 287.713 196.539 288.197C196.815 288.681 196.952 289.235 196.952 289.86C196.952 290.485 196.811 291.039 196.528 291.523C196.245 292.006 195.859 292.382 195.367 292.65C194.884 292.91 194.348 293.04 193.76 293.04ZM193.76 291.936C194.088 291.936 194.393 291.858 194.676 291.701C194.966 291.545 195.2 291.311 195.379 290.998C195.557 290.686 195.646 290.306 195.646 289.86C195.646 289.413 195.561 289.038 195.39 288.733C195.219 288.42 194.992 288.186 194.709 288.03C194.426 287.873 194.121 287.795 193.794 287.795C193.467 287.795 193.162 287.873 192.879 288.03C192.604 288.186 192.384 288.42 192.22 288.733C192.057 289.038 191.975 289.413 191.975 289.86C191.975 290.522 192.142 291.035 192.477 291.4C192.819 291.757 193.247 291.936 193.76 291.936Z" fill="white"/>
<path opacity="0.8" d="M265.051 272.989L262.997 278.46H261.958L259.895 272.989H260.856L262.477 277.539L264.107 272.989H265.051ZM265.503 276.272C265.503 275.836 265.592 275.45 265.77 275.114C265.954 274.779 266.201 274.519 266.51 274.335C266.825 274.146 267.172 274.052 267.549 274.052C267.891 274.052 268.187 274.12 268.439 274.256C268.696 274.388 268.901 274.553 269.053 274.752V274.123H269.958V278.46H269.053V277.815C268.901 278.019 268.694 278.19 268.431 278.326C268.169 278.463 267.87 278.531 267.534 278.531C267.161 278.531 266.82 278.436 266.51 278.247C266.201 278.053 265.954 277.786 265.77 277.445C265.592 277.098 265.503 276.707 265.503 276.272ZM269.053 276.287C269.053 275.988 268.99 275.728 268.864 275.508C268.743 275.288 268.583 275.12 268.384 275.004C268.184 274.889 267.969 274.831 267.738 274.831C267.507 274.831 267.292 274.889 267.093 275.004C266.893 275.114 266.731 275.28 266.605 275.5C266.484 275.715 266.424 275.972 266.424 276.272C266.424 276.571 266.484 276.833 266.605 277.059C266.731 277.284 266.893 277.458 267.093 277.578C267.298 277.694 267.513 277.752 267.738 277.752C267.969 277.752 268.184 277.694 268.384 277.578C268.583 277.463 268.743 277.295 268.864 277.075C268.99 276.849 269.053 276.586 269.053 276.287ZM272.034 272.635V278.46H271.137V272.635H272.034ZM273.669 273.548C273.507 273.548 273.37 273.493 273.26 273.383C273.15 273.272 273.095 273.136 273.095 272.973C273.095 272.811 273.15 272.674 273.26 272.564C273.37 272.454 273.507 272.399 273.669 272.399C273.827 272.399 273.96 272.454 274.071 272.564C274.181 272.674 274.236 272.811 274.236 272.973C274.236 273.136 274.181 273.272 274.071 273.383C273.96 273.493 273.827 273.548 273.669 273.548ZM274.11 274.123V278.46H273.213V274.123H274.11ZM274.989 276.272C274.989 275.836 275.078 275.45 275.257 275.114C275.44 274.779 275.687 274.519 275.997 274.335C276.312 274.146 276.661 274.052 277.044 274.052C277.327 274.052 277.605 274.115 277.878 274.241C278.156 274.361 278.377 274.524 278.539 274.729V272.635H279.445V278.46H278.539V277.807C278.392 278.017 278.188 278.19 277.925 278.326C277.668 278.463 277.372 278.531 277.036 278.531C276.658 278.531 276.312 278.436 275.997 278.247C275.687 278.053 275.44 277.786 275.257 277.445C275.078 277.098 274.989 276.707 274.989 276.272ZM278.539 276.287C278.539 275.988 278.476 275.728 278.35 275.508C278.23 275.288 278.07 275.12 277.87 275.004C277.671 274.889 277.456 274.831 277.225 274.831C276.994 274.831 276.779 274.889 276.579 275.004C276.38 275.114 276.217 275.28 276.091 275.5C275.97 275.715 275.91 275.972 275.91 276.272C275.91 276.571 275.97 276.833 276.091 277.059C276.217 277.284 276.38 277.458 276.579 277.578C276.784 277.694 276.999 277.752 277.225 277.752C277.456 277.752 277.671 277.694 277.87 277.578C278.07 277.463 278.23 277.295 278.35 277.075C278.476 276.849 278.539 276.586 278.539 276.287ZM280.324 276.272C280.324 275.836 280.413 275.45 280.592 275.114C280.776 274.779 281.022 274.519 281.332 274.335C281.647 274.146 281.993 274.052 282.371 274.052C282.712 274.052 283.009 274.12 283.26 274.256C283.518 274.388 283.722 274.553 283.875 274.752V274.123H284.78V278.46H283.875V277.815C283.722 278.019 283.515 278.19 283.253 278.326C282.99 278.463 282.691 278.531 282.355 278.531C281.983 278.531 281.641 278.436 281.332 278.247C281.022 278.053 280.776 277.786 280.592 277.445C280.413 277.098 280.324 276.707 280.324 276.272ZM283.875 276.287C283.875 275.988 283.812 275.728 283.686 275.508C283.565 275.288 283.405 275.12 283.205 275.004C283.006 274.889 282.791 274.831 282.56 274.831C282.329 274.831 282.114 274.889 281.914 275.004C281.715 275.114 281.552 275.28 281.426 275.5C281.306 275.715 281.245 275.972 281.245 276.272C281.245 276.571 281.306 276.833 281.426 277.059C281.552 277.284 281.715 277.458 281.914 277.578C282.119 277.694 282.334 277.752 282.56 277.752C282.791 277.752 283.006 277.694 283.205 277.578C283.405 277.463 283.565 277.295 283.686 277.075C283.812 276.849 283.875 276.586 283.875 276.287ZM285.659 276.272C285.659 275.836 285.749 275.45 285.927 275.114C286.111 274.779 286.357 274.519 286.667 274.335C286.982 274.146 287.331 274.052 287.714 274.052C287.997 274.052 288.275 274.115 288.548 274.241C288.827 274.361 289.047 274.524 289.21 274.729V272.635H290.115V278.46H289.21V277.807C289.063 278.017 288.858 278.19 288.596 278.326C288.338 278.463 288.042 278.531 287.706 278.531C287.328 278.531 286.982 278.436 286.667 278.247C286.357 278.053 286.111 277.786 285.927 277.445C285.749 277.098 285.659 276.707 285.659 276.272ZM289.21 276.287C289.21 275.988 289.147 275.728 289.021 275.508C288.9 275.288 288.74 275.12 288.541 275.004C288.341 274.889 288.126 274.831 287.895 274.831C287.664 274.831 287.449 274.889 287.25 275.004C287.05 275.114 286.887 275.28 286.761 275.5C286.641 275.715 286.58 275.972 286.58 276.272C286.58 276.571 286.641 276.833 286.761 277.059C286.887 277.284 287.05 277.458 287.25 277.578C287.454 277.694 287.669 277.752 287.895 277.752C288.126 277.752 288.341 277.694 288.541 277.578C288.74 277.463 288.9 277.295 289.021 277.075C289.147 276.849 289.21 276.586 289.21 276.287ZM295.269 276.185C295.269 276.348 295.258 276.495 295.238 276.626H291.923C291.95 276.972 292.078 277.25 292.309 277.46C292.54 277.67 292.823 277.775 293.159 277.775C293.642 277.775 293.983 277.573 294.183 277.169H295.151C295.02 277.568 294.781 277.896 294.435 278.153C294.093 278.405 293.668 278.531 293.159 278.531C292.745 278.531 292.372 278.439 292.041 278.255C291.716 278.066 291.459 277.804 291.27 277.468C291.086 277.127 290.994 276.733 290.994 276.287C290.994 275.841 291.084 275.45 291.262 275.114C291.446 274.773 291.7 274.511 292.026 274.327C292.356 274.144 292.734 274.052 293.159 274.052C293.569 274.052 293.933 274.141 294.254 274.319C294.574 274.498 294.823 274.75 295.001 275.075C295.18 275.395 295.269 275.765 295.269 276.185ZM294.332 275.902C294.327 275.571 294.209 275.306 293.978 275.107C293.747 274.907 293.461 274.807 293.12 274.807C292.81 274.807 292.545 274.907 292.325 275.107C292.104 275.301 291.973 275.566 291.931 275.902H294.332Z" fill="white"/>
<path d="M260.248 285.965V284.804H262.569V292.94H261.286V285.965H260.248ZM268.692 286.69C268.61 286.348 268.461 286.092 268.245 285.92C268.029 285.749 267.728 285.664 267.341 285.664C266.754 285.664 266.315 285.891 266.024 286.344C265.734 286.791 265.582 287.535 265.567 288.576C265.76 288.249 266.043 287.996 266.415 287.818C266.787 287.639 267.189 287.55 267.62 287.55C268.111 287.55 268.543 287.658 268.915 287.873C269.294 288.082 269.588 288.387 269.796 288.789C270.012 289.19 270.12 289.67 270.12 290.228C270.12 290.749 270.016 291.214 269.808 291.623C269.607 292.032 269.305 292.356 268.904 292.594C268.502 292.825 268.018 292.94 267.453 292.94C266.687 292.94 266.084 292.773 265.645 292.438C265.213 292.096 264.908 291.616 264.73 290.998C264.559 290.381 264.473 289.611 264.473 288.688C264.473 285.965 265.433 284.604 267.352 284.604C268.096 284.604 268.68 284.804 269.105 285.206C269.536 285.608 269.789 286.103 269.863 286.69H268.692ZM267.341 288.621C266.887 288.621 266.501 288.759 266.181 289.034C265.868 289.302 265.712 289.692 265.712 290.206C265.712 290.719 265.857 291.128 266.147 291.433C266.445 291.731 266.858 291.88 267.386 291.88C267.855 291.88 268.223 291.735 268.491 291.445C268.766 291.154 268.904 290.768 268.904 290.284C268.904 289.778 268.77 289.376 268.502 289.079C268.242 288.774 267.855 288.621 267.341 288.621ZM275.774 282.405L272.738 294.893H271.488L274.513 282.405H275.774ZM277.913 291.21C278.627 290.593 279.189 290.087 279.598 289.692C280.015 289.291 280.361 288.874 280.636 288.443C280.911 288.011 281.049 287.58 281.049 287.148C281.049 286.702 280.941 286.352 280.725 286.099C280.517 285.846 280.186 285.72 279.732 285.72C279.293 285.72 278.951 285.861 278.705 286.144C278.467 286.419 278.341 286.791 278.326 287.26H277.098C277.12 286.411 277.373 285.764 277.857 285.318C278.348 284.864 278.969 284.637 279.721 284.637C280.532 284.637 281.164 284.86 281.618 285.307C282.079 285.753 282.31 286.348 282.31 287.092C282.31 287.628 282.172 288.145 281.897 288.643C281.629 289.134 281.305 289.577 280.926 289.971C280.554 290.358 280.078 290.808 279.498 291.322L278.995 291.768H282.533V292.828H277.109V291.902L277.913 291.21ZM288.896 285.898H285.157V288.119C285.314 287.911 285.544 287.736 285.849 287.594C286.162 287.453 286.493 287.382 286.842 287.382C287.467 287.382 287.973 287.516 288.36 287.784C288.755 288.052 289.034 288.39 289.197 288.8C289.368 289.209 289.454 289.64 289.454 290.094C289.454 290.645 289.346 291.136 289.13 291.567C288.922 291.991 288.606 292.326 288.182 292.572C287.765 292.817 287.252 292.94 286.642 292.94C285.831 292.94 285.18 292.739 284.689 292.337C284.198 291.936 283.904 291.404 283.807 290.742H285.046C285.128 291.091 285.31 291.37 285.593 291.579C285.875 291.779 286.229 291.88 286.653 291.88C287.181 291.88 287.575 291.72 287.836 291.4C288.104 291.08 288.237 290.656 288.237 290.128C288.237 289.592 288.104 289.183 287.836 288.9C287.568 288.61 287.174 288.465 286.653 288.465C286.288 288.465 285.979 288.558 285.726 288.744C285.481 288.922 285.302 289.168 285.191 289.48H283.986V284.782H288.896V285.898Z" fill="white"/>
<g filter="url(#filter1_b_193_2365)">
<ellipse cx="393.94" cy="283.469" rx="11.5672" ry="11.5672" fill="#FAFAFA" fill-opacity="0.3"/>
</g>
<g filter="url(#filter2_b_193_2365)">
<path d="M419.85 283.469C419.85 289.857 414.671 295.036 408.283 295.036C401.895 295.036 396.716 289.857 396.716 283.469C396.716 277.08 401.895 271.901 408.283 271.901C414.671 271.901 419.85 277.08 419.85 283.469Z" fill="#FAFAFA" fill-opacity="0.7"/>
</g>
<g filter="url(#filter3_b_193_2365)">
<path d="M401.111 274.392C398.434 276.511 396.716 279.789 396.716 283.469C396.716 287.148 398.434 290.426 401.111 292.545C403.789 290.426 405.507 287.148 405.507 283.469C405.507 279.789 403.789 276.511 401.111 274.392Z" fill="#FAFAFA" fill-opacity="0.6"/>
</g>
<path d="M150.014 40.4V38.336H153.87V50H151.566V40.4H150.014ZM158.674 46.72C158.76 47.1893 158.952 47.552 159.25 47.808C159.56 48.0533 159.97 48.176 160.482 48.176C161.144 48.176 161.624 47.904 161.922 47.36C162.221 46.8053 162.37 45.8773 162.37 44.576C162.125 44.9173 161.778 45.184 161.33 45.376C160.893 45.568 160.418 45.664 159.906 45.664C159.224 45.664 158.605 45.5253 158.05 45.248C157.506 44.96 157.074 44.5387 156.754 43.984C156.434 43.4187 156.274 42.736 156.274 41.936C156.274 40.752 156.626 39.8133 157.33 39.12C158.034 38.416 158.994 38.064 160.21 38.064C161.725 38.064 162.792 38.5493 163.41 39.52C164.04 40.4907 164.354 41.952 164.354 43.904C164.354 45.2907 164.232 46.4267 163.986 47.312C163.752 48.1973 163.341 48.8693 162.754 49.328C162.178 49.7867 161.389 50.016 160.386 50.016C159.597 50.016 158.925 49.8667 158.37 49.568C157.816 49.2587 157.389 48.8587 157.09 48.368C156.802 47.8667 156.637 47.3173 156.594 46.72H158.674ZM160.37 43.84C160.925 43.84 161.362 43.6693 161.682 43.328C162.002 42.9867 162.162 42.528 162.162 41.952C162.162 41.3227 161.992 40.8373 161.65 40.496C161.32 40.144 160.866 39.968 160.29 39.968C159.714 39.968 159.256 40.1493 158.914 40.512C158.584 40.864 158.418 41.3333 158.418 41.92C158.418 42.4853 158.578 42.9493 158.898 43.312C159.229 43.664 159.72 43.84 160.37 43.84ZM167.346 50.112C166.941 50.112 166.605 49.9893 166.338 49.744C166.082 49.488 165.954 49.1733 165.954 48.8C165.954 48.4267 166.082 48.1173 166.338 47.872C166.605 47.616 166.941 47.488 167.346 47.488C167.741 47.488 168.066 47.616 168.322 47.872C168.578 48.1173 168.706 48.4267 168.706 48.8C168.706 49.1733 168.578 49.488 168.322 49.744C168.066 49.9893 167.741 50.112 167.346 50.112ZM167.346 43.488C166.941 43.488 166.605 43.3653 166.338 43.12C166.082 42.864 165.954 42.5493 165.954 42.176C165.954 41.8027 166.082 41.4933 166.338 41.248C166.605 40.992 166.941 40.864 167.346 40.864C167.741 40.864 168.066 40.992 168.322 41.248C168.578 41.4933 168.706 41.8027 168.706 42.176C168.706 42.5493 168.578 42.864 168.322 43.12C168.066 43.3653 167.741 43.488 167.346 43.488ZM170.301 44.016C170.301 42.1707 170.632 40.7253 171.293 39.68C171.965 38.6347 173.074 38.112 174.621 38.112C176.168 38.112 177.272 38.6347 177.933 39.68C178.605 40.7253 178.941 42.1707 178.941 44.016C178.941 45.872 178.605 47.328 177.933 48.384C177.272 49.44 176.168 49.968 174.621 49.968C173.074 49.968 171.965 49.44 171.293 48.384C170.632 47.328 170.301 45.872 170.301 44.016ZM176.733 44.016C176.733 43.2267 176.68 42.5653 176.573 42.032C176.477 41.488 176.274 41.0453 175.965 40.704C175.666 40.3627 175.218 40.192 174.621 40.192C174.024 40.192 173.57 40.3627 173.261 40.704C172.962 41.0453 172.76 41.488 172.653 42.032C172.557 42.5653 172.509 43.2267 172.509 44.016C172.509 44.8267 172.557 45.5093 172.653 46.064C172.749 46.608 172.952 47.0507 173.261 47.392C173.57 47.7227 174.024 47.888 174.621 47.888C175.218 47.888 175.672 47.7227 175.981 47.392C176.29 47.0507 176.493 46.608 176.589 46.064C176.685 45.5093 176.733 44.8267 176.733 44.016ZM188.069 40.032L183.813 50H181.541L185.829 40.288H180.357V38.368H188.069V40.032Z" fill="#334155"/>
<rect x="393" y="41.8049" width="2.92683" height="3.5122" rx="0.878049" fill="#334155"/>
<rect x="393" y="47.0732" width="2.92683" height="2.92683" rx="0.878049" fill="#334155"/>
<rect x="397.683" y="47.0732" width="2.92683" height="2.92683" rx="0.878049" fill="#334155"/>
<rect x="402.366" y="47.0732" width="2.92683" height="2.92683" rx="0.878049" fill="#334155"/>
<rect x="407.049" y="47.0732" width="2.92683" height="2.92683" rx="0.878049" fill="#334155"/>
<rect x="397.683" y="40.6341" width="2.92683" height="4.68293" rx="0.878049" fill="#334155"/>
<rect x="402.366" y="39.4634" width="2.92683" height="5.85366" rx="0.878049" fill="#334155"/>
<rect x="407.049" y="38" width="2.92683" height="7.31707" rx="0.878049" fill="#334155"/>
<path d="M417.678 42.7787L417.058 42.158C416.799 41.8994 416.839 41.4688 417.144 41.2673C422.56 37.6898 425.684 37.9185 430.622 41.2647C430.922 41.4684 430.96 41.8958 430.703 42.1526L430.078 42.778C429.877 42.9784 429.562 43.0055 429.327 42.8475C425.108 40.0142 422.595 40.0594 418.428 42.8489C418.193 43.0063 417.878 42.9789 417.678 42.7787Z" fill="#334155"/>
<path d="M420.182 45.4614L419.594 44.9326C419.315 44.6811 419.342 44.2338 419.656 44.0275C422.745 41.9983 424.741 41.9309 427.951 44.0279C428.266 44.2336 428.294 44.6815 428.014 44.9332L427.432 45.4569C427.235 45.6347 426.942 45.6551 426.715 45.5162C424.497 44.156 423.111 44.1968 420.891 45.5246C420.665 45.6595 420.377 45.6371 420.182 45.4614Z" fill="#334155"/>
<path d="M423.464 48.8568L422.316 47.7095C422.061 47.4541 422.094 47.0264 422.405 46.8423C423.533 46.1738 424.316 46.2144 425.354 46.84C425.663 47.0262 425.695 47.4532 425.44 47.7082L424.292 48.8568C424.063 49.0854 423.692 49.0854 423.464 48.8568Z" fill="#334155"/>
<rect x="437.78" y="38" width="21.9512" height="12" rx="3.21951" fill="#334155"/>
<rect x="437.78" y="38" width="18.1463" height="12" rx="3.21951" fill="#334155"/>
<path d="M460.61 45.7561V42.3902C461.341 42.8293 461.72 43.1782 461.78 44C461.78 44.7317 461.488 45.3171 460.61 45.7561Z" fill="#334155"/>
</g>
<defs>
<filter id="filter0_dddd_193_2365" x="0" y="0.705223" width="586" height="833.302" filterUnits="userSpaceOnUse" color-interpolation-filters="sRGB">
<feFlood flood-opacity="0" result="BackgroundImageFix"/>
<feColorMatrix in="SourceAlpha" type="matrix" values="0 0 0 0 0 0 0 0 0 0 0 0 0 0 0 0 0 0 127 0" result="hardAlpha"/>
<feOffset dy="16"/>
<feGaussianBlur stdDeviation="17.5"/>
<feColorMatrix type="matrix" values="0 0 0 0 0.639216 0 0 0 0 0.682353 0 0 0 0 0.752941 0 0 0 0.1 0"/>
<feBlend mode="normal" in2="BackgroundImageFix" result="effect1_dropShadow_193_2365"/>
<feColorMatrix in="SourceAlpha" type="matrix" values="0 0 0 0 0 0 0 0 0 0 0 0 0 0 0 0 0 0 127 0" result="hardAlpha"/>
<feOffset dy="64"/>
<feGaussianBlur stdDeviation="32"/>
<feColorMatrix type="matrix" values="0 0 0 0 0.639216 0 0 0 0 0.682353 0 0 0 0 0.752941 0 0 0 0.09 0"/>
<feBlend mode="normal" in2="effect1_dropShadow_193_2365" result="effect2_dropShadow_193_2365"/>
<feColorMatrix in="SourceAlpha" type="matrix" values="0 0 0 0 0 0 0 0 0 0 0 0 0 0 0 0 0 0 127 0" result="hardAlpha"/>
<feOffset dy="145"/>
<feGaussianBlur stdDeviation="43.5"/>
<feColorMatrix type="matrix" values="0 0 0 0 0.639216 0 0 0 0 0.682353 0 0 0 0 0.752941 0 0 0 0.05 0"/>
<feBlend mode="normal" in2="effect2_dropShadow_193_2365" result="effect3_dropShadow_193_2365"/>
<feColorMatrix in="SourceAlpha" type="matrix" values="0 0 0 0 0 0 0 0 0 0 0 0 0 0 0 0 0 0 127 0" result="hardAlpha"/>
<feOffset dy="258"/>
<feGaussianBlur stdDeviation="51.5"/>
<feColorMatrix type="matrix" values="0 0 0 0 0.639216 0 0 0 0 0.682353 0 0 0 0 0.752941 0 0 0 0.01 0"/>
<feBlend mode="normal" in2="effect3_dropShadow_193_2365" result="effect4_dropShadow_193_2365"/>
<feBlend mode="normal" in="SourceGraphic" in2="effect4_dropShadow_193_2365" result="shape"/>
</filter>
<filter id="filter1_b_193_2365" x="351.373" y="240.901" width="85.1343" height="85.1343" filterUnits="userSpaceOnUse" color-interpolation-filters="sRGB">
<feFlood flood-opacity="0" result="BackgroundImageFix"/>
<feGaussianBlur in="BackgroundImageFix" stdDeviation="15.5"/>
<feComposite in2="SourceAlpha" operator="in" result="effect1_backgroundBlur_193_2365"/>
<feBlend mode="normal" in="SourceGraphic" in2="effect1_backgroundBlur_193_2365" result="shape"/>
</filter>
<filter id="filter2_b_193_2365" x="365.716" y="240.901" width="85.1343" height="85.1343" filterUnits="userSpaceOnUse" color-interpolation-filters="sRGB">
<feFlood flood-opacity="0" result="BackgroundImageFix"/>
<feGaussianBlur in="BackgroundImageFix" stdDeviation="15.5"/>
<feComposite in2="SourceAlpha" operator="in" result="effect1_backgroundBlur_193_2365"/>
<feBlend mode="normal" in="SourceGraphic" in2="effect1_backgroundBlur_193_2365" result="shape"/>
</filter>
<filter id="filter3_b_193_2365" x="365.716" y="243.392" width="70.7911" height="80.1524" filterUnits="userSpaceOnUse" color-interpolation-filters="sRGB">
<feFlood flood-opacity="0" result="BackgroundImageFix"/>
<feGaussianBlur in="BackgroundImageFix" stdDeviation="15.5"/>
<feComposite in2="SourceAlpha" operator="in" result="effect1_backgroundBlur_193_2365"/>
<feBlend mode="normal" in="SourceGraphic" in2="effect1_backgroundBlur_193_2365" result="shape"/>
</filter>
<clipPath id="clip0_193_2365">
<rect width="22" height="22" fill="white" transform="translate(154 357)"/>
</clipPath>
<clipPath id="clip1_193_2365">
<rect width="19.84" height="19.84" fill="white" transform="translate(401.81 162.8)"/>
</clipPath>
</defs>
</svg>
