<svg width="30" height="20" viewBox="0 0 30 20" fill="none" xmlns="http://www.w3.org/2000/svg">
<path d="M6.99935 10H7.01268M22.9993 10H23.0127M4.33268 2H25.666C27.1388 2 28.3327 3.19391 28.3327 4.66667V15.3333C28.3327 16.8061 27.1388 18 25.666 18H4.33268C2.85992 18 1.66602 16.8061 1.66602 15.3333V4.66667C1.66602 3.19391 2.85992 2 4.33268 2ZM17.666 10C17.666 11.4728 16.4721 12.6667 14.9993 12.6667C13.5266 12.6667 12.3327 11.4728 12.3327 10C12.3327 8.52724 13.5266 7.33333 14.9993 7.33333C16.4721 7.33333 17.666 8.52724 17.666 10Z" stroke="#6729FF" stroke-width="2.66667" stroke-linecap="round" stroke-linejoin="round"/>
</svg>
