<svg width="28" height="28" viewBox="0 0 28 28" fill="none" xmlns="http://www.w3.org/2000/svg">
<path d="M20.6667 16.6667H20.68M7.33333 7.33333H23.3333C24.0406 7.33333 24.7189 7.61428 25.219 8.11438C25.719 8.61448 26 9.29276 26 10V23.3333C26 24.0406 25.719 24.7189 25.219 25.219C24.7189 25.719 24.0406 26 23.3333 26H4.66667C3.95942 26 3.28115 25.719 2.78105 25.219C2.28095 24.7189 2 24.0406 2 23.3333V4.66667C2 3.95942 2.28095 3.28115 2.78105 2.78105C3.28115 2.28095 3.95942 2 4.66667 2H23.3333" stroke="#6729FF" stroke-width="2.66667" stroke-linecap="round" stroke-linejoin="round"/>
</svg>
