<svg width="22" height="23" viewBox="0 0 22 23" fill="none" xmlns="http://www.w3.org/2000/svg">
<path d="M21 16.42V19.42C21.0011 19.6985 20.9441 19.9741 20.8325 20.2293C20.7209 20.4845 20.5573 20.7136 20.3521 20.9018C20.1468 21.0901 19.9046 21.2335 19.6407 21.3227C19.3769 21.4119 19.0974 21.445 18.82 21.42C15.7428 21.0856 12.787 20.0341 10.19 18.35C7.77382 16.8146 5.72533 14.7661 4.18999 12.35C2.49997 9.74118 1.44824 6.77097 1.11999 3.67997C1.095 3.40344 1.12787 3.12474 1.21649 2.8616C1.30512 2.59846 1.44756 2.35666 1.63476 2.1516C1.82196 1.94653 2.0498 1.78268 2.30379 1.6705C2.55777 1.55831 2.83233 1.50024 3.10999 1.49997H6.10999C6.5953 1.4952 7.06579 1.66705 7.43376 1.98351C7.80173 2.29996 8.04207 2.73942 8.10999 3.21997C8.23662 4.18004 8.47144 5.1227 8.80999 6.02997C8.94454 6.3879 8.97366 6.77689 8.8939 7.15086C8.81415 7.52482 8.62886 7.86809 8.35999 8.13998L7.08999 9.40997C8.51355 11.9135 10.5864 13.9864 13.09 15.41L14.36 14.14C14.6319 13.8711 14.9751 13.6858 15.3491 13.6061C15.7231 13.5263 16.1121 13.5554 16.47 13.69C17.3773 14.0285 18.3199 14.2634 19.28 14.39C19.7658 14.4585 20.2094 14.7032 20.5265 15.0775C20.8437 15.4518 21.0122 15.9296 21 16.42Z" stroke="#6729FF" stroke-width="2" stroke-linecap="round" stroke-linejoin="round"/>
</svg>
