<svg width="24" height="30" viewBox="0 0 24 30" fill="none" xmlns="http://www.w3.org/2000/svg">
<path d="M22.6667 16.3333C22.6667 23 18 26.3333 12.4534 28.2667C12.1629 28.3651 11.8474 28.3604 11.56 28.2533C6.00004 26.3333 1.33337 23 1.33337 16.3333V7.00001C1.33337 6.64639 1.47385 6.30725 1.7239 6.0572C1.97395 5.80715 2.31309 5.66668 2.66671 5.66668C5.33337 5.66668 8.66671 4.06668 10.9867 2.04001C11.2692 1.79867 11.6285 1.66608 12 1.66608C12.3716 1.66608 12.7309 1.79867 13.0134 2.04001C15.3467 4.08001 18.6667 5.66668 21.3334 5.66668C21.687 5.66668 22.0261 5.80715 22.2762 6.0572C22.5262 6.30725 22.6667 6.64639 22.6667 7.00001V16.3333Z" stroke="white" stroke-width="2.66667" stroke-linecap="round" stroke-linejoin="round"/>
</svg>
