<svg width="28" height="28" viewBox="0 0 28 28" fill="none" xmlns="http://www.w3.org/2000/svg">
<path d="M14 8.66667V26M14 8.66667C13.5177 6.6792 12.6873 4.98008 11.617 3.79088C10.5467 2.60168 9.28625 1.97759 8 2C7.11595 2 6.2681 2.35119 5.64298 2.97631C5.01786 3.60143 4.66667 4.44928 4.66667 5.33333C4.66667 6.21739 5.01786 7.06523 5.64298 7.69035C6.2681 8.31548 7.11595 8.66667 8 8.66667M14 8.66667C14.4823 6.6792 15.3127 4.98008 16.383 3.79088C17.4533 2.60168 18.7138 1.97759 20 2C20.8841 2 21.7319 2.35119 22.357 2.97631C22.9821 3.60143 23.3333 4.44928 23.3333 5.33333C23.3333 6.21739 22.9821 7.06523 22.357 7.69035C21.7319 8.31548 20.8841 8.66667 20 8.66667M23.3333 14V23.3333C23.3333 24.0406 23.0524 24.7189 22.5523 25.2189C22.0522 25.719 21.3739 26 20.6667 26H7.33333C6.62609 26 5.94781 25.719 5.44772 25.2189C4.94762 24.7189 4.66667 24.0406 4.66667 23.3333V14M3.33333 8.66667H24.6667C25.403 8.66667 26 9.26362 26 10V12.6667C26 13.403 25.403 14 24.6667 14H3.33333C2.59695 14 2 13.403 2 12.6667V10C2 9.26362 2.59695 8.66667 3.33333 8.66667Z" stroke="white" stroke-width="2.66667" stroke-linecap="round" stroke-linejoin="round"/>
</svg>
