<svg width="28" height="28" viewBox="0 0 28 28" fill="none" xmlns="http://www.w3.org/2000/svg">
<path d="M14 8.66664V26M14 8.66664C13.5177 6.67918 12.6873 4.98005 11.617 3.79085C10.5467 2.60165 9.28625 1.97756 8 1.99997C7.11595 1.99997 6.2681 2.35116 5.64298 2.97628C5.01786 3.6014 4.66667 4.44925 4.66667 5.33331C4.66667 6.21736 5.01786 7.06521 5.64298 7.69033C6.2681 8.31545 7.11595 8.66664 8 8.66664M14 8.66664C14.4823 6.67918 15.3127 4.98005 16.383 3.79085C17.4533 2.60165 18.7138 1.97756 20 1.99997C20.8841 1.99997 21.7319 2.35116 22.357 2.97628C22.9821 3.6014 23.3333 4.44925 23.3333 5.33331C23.3333 6.21736 22.9821 7.06521 22.357 7.69033C21.7319 8.31545 20.8841 8.66664 20 8.66664M23.3333 14V23.3333C23.3333 24.0405 23.0524 24.7188 22.5523 25.2189C22.0522 25.719 21.3739 26 20.6667 26H7.33333C6.62609 26 5.94781 25.719 5.44772 25.2189C4.94762 24.7188 4.66667 24.0405 4.66667 23.3333V14M3.33333 8.66664H24.6667C25.403 8.66664 26 9.26359 26 9.99997V12.6666C26 13.403 25.403 14 24.6667 14H3.33333C2.59695 14 2 13.403 2 12.6666V9.99997C2 9.26359 2.59695 8.66664 3.33333 8.66664Z" stroke="#6729FF" stroke-width="2.66667" stroke-linecap="round" stroke-linejoin="round"/>
</svg>
